<?xml version="1.0" encoding="UTF-8"?>
<svg id="Livello_1" data-name="Livello 1" xmlns="http://www.w3.org/2000/svg" viewBox="0 0 595.28 841.89">
  <defs>
    <style>
      .cls-1 {
        fill: #f5f4f5;
      }
    </style>
  </defs>
  <path class="cls-1" d="M-2.51,74.71c-8.06,5.54-16.66,4.64-23.01-4.58l-1.44-2.1-8.28-12.02-1.44-2.1c-2.96-4.31-6.32-4.68-9.4-2.55-3.09,2.12-3.93,5.39-.96,9.69l9.73,14.13-8.28,5.7-9.73-14.13c-6.32-9.15-4.14-17.57,3.92-23.12,8.05-5.54,16.65-4.64,23,4.59l1.44,2.1,8.28,12.02,1.44,2.1c2.97,4.3,6.32,4.67,9.41,2.55,3.09-2.13,3.93-5.4.96-9.7l-9.73-14.13,8.28-5.7L1.41,51.58c6.31,9.16,4.14,17.57-3.92,23.12Z"/>
  <path class="cls-1" d="M23.22,31.2C15.17,36.75,6.57,35.83.23,26.62l-1.44-2.1-8.28-12.02-1.44-2.1c-2.97-4.3-6.32-4.68-9.4-2.55-3.1,2.12-3.94,5.39-.97,9.69l9.73,14.13-8.28,5.71-9.73-14.13C-35.91,14.08-33.73,5.66-25.68.12-17.62-5.44-9.02-4.52-2.67,4.69l1.44,2.1,8.28,12.02,1.44,2.1c2.96,4.3,6.32,4.68,9.4,2.55,3.09-2.12,3.93-5.39.97-9.7L9.14-.36l8.28-5.7,9.73,14.13c6.32,9.16,4.14,17.58-3.92,23.12Z"/>
  <path class="cls-1" d="M44.51,119.34c-8.06,5.54-16.66,4.64-23.01-4.59l-1.43-2.09-8.29-12.03-1.44-2.09c-2.96-4.31-6.32-4.68-9.4-2.56-3.09,2.13-3.93,5.4-.96,9.7l9.73,14.13-8.28,5.7-9.73-14.13c-6.31-9.15-4.14-17.57,3.92-23.12,8.06-5.54,16.66-4.64,23,4.58l1.44,2.1,8.29,12.02,1.44,2.1c2.96,4.31,6.31,4.68,9.4,2.55,3.09-2.12,3.93-5.39.96-9.69l-9.73-14.13,8.28-5.7,9.73,14.13c6.31,9.15,4.14,17.57-3.92,23.12Z"/>
  <path class="cls-1" d="M19.58,163.03c-8.06,5.54-16.66,4.63-23.01-4.59l-1.44-2.1-8.28-12.02-1.44-2.1c-2.97-4.3-6.32-4.67-9.4-2.55-3.09,2.13-3.93,5.39-.97,9.7l9.73,14.13-8.28,5.7-9.73-14.13c-6.31-9.16-4.13-17.57,3.92-23.12,8.06-5.54,16.66-4.64,23.01,4.58l1.44,2.1,8.28,12.02,1.44,2.1c2.97,4.3,6.32,4.68,9.4,2.55,3.09-2.12,3.93-5.39.97-9.69l-9.73-14.13,8.28-5.7,9.73,14.13c6.31,9.15,4.13,17.57-3.92,23.12Z"/>
  <path class="cls-1" d="M70.73,7.75l8.28,12.04h0s-8.29-12.04-8.29-12.04Z"/>
  <path class="cls-1" d="M95.19,32.15c-8.06,5.54-16.66,4.64-23.01-4.58l-9.73-14.13-1.44-2.1c-2.96-4.3-6.32-4.68-9.4-2.55-3.09,2.12-3.93,5.39-.96,9.69l9.73,14.13-8.28,5.7-9.73-14.13c-6.32-9.15-4.14-17.57,3.92-23.11,8.06-5.55,16.66-4.64,23,4.58l1.44,2.1,8.28,12.04,1.44,2.09c2.97,4.3,6.32,4.67,9.41,2.55,3.09-2.13,3.93-5.39.96-9.7L81.11.6l8.28-5.7,9.73,14.13c6.31,9.16,4.14,17.58-3.92,23.12Z"/>
  <path class="cls-1" d="M70.24,75.83c-8.05,5.54-16.65,4.64-23-4.58l-1.44-2.1-8.28-12.02-1.44-2.1c-2.97-4.31-6.32-4.68-9.4-2.55-3.1,2.12-3.93,5.39-.97,9.69l9.73,14.13-8.28,5.7-9.73-14.13c-6.31-9.15-4.13-17.57,3.92-23.12,8.06-5.54,16.66-4.64,23.01,4.59l1.44,2.1,8.28,12.02,1.44,2.1c2.97,4.3,6.32,4.67,9.4,2.55,3.09-2.13,3.93-5.4.97-9.7l-9.73-14.13,8.27-5.7,9.74,14.13c6.31,9.16,4.13,17.57-3.93,23.12Z"/>
  <path class="cls-1" d="M140.08,74.17c-8.06,5.55-16.66,4.64-23-4.58l-1.44-2.1-8.28-12.04-1.44-2.09c-2.97-4.3-6.32-4.67-9.41-2.55-3.09,2.13-3.93,5.39-.96,9.7l9.73,14.13-8.28,5.7-9.73-14.13c-6.31-9.16-4.14-17.58,3.92-23.12,8.06-5.54,16.66-4.64,23.01,4.58l9.73,14.13,1.44,2.1c2.96,4.3,6.32,4.68,9.4,2.55,3.09-2.12,3.93-5.39.96-9.69l-9.73-14.13,8.28-5.7,9.73,14.13c6.31,9.15,4.14,17.57-3.92,23.11Z"/>
  <path class="cls-1" d="M107.35,55.46h0s8.29,12.04,8.29,12.04l-8.28-12.04Z"/>
  <path class="cls-1" d="M115.14,117.86c-8.06,5.55-16.66,4.64-23.01-4.58l-1.44-2.1-8.28-12.02-1.44-2.1c-2.97-4.3-6.32-4.68-9.4-2.55-3.09,2.12-3.93,5.39-.97,9.7l9.74,14.13-8.28,5.7-9.74-14.13c-6.31-9.16-4.13-17.58,3.93-23.12,8.05-5.55,16.65-4.64,23,4.58l1.44,2.1,8.28,12.02,1.44,2.1c2.97,4.3,6.32,4.68,9.4,2.55,3.1-2.12,3.93-5.39.97-9.69l-9.73-14.13,8.28-5.71,9.73,14.13c6.31,9.16,4.13,17.58-3.92,23.12Z"/>
  <path class="cls-1" d="M165.82,30.67c-8.06,5.54-16.66,4.64-23.01-4.58l-1.44-2.1-8.28-12.02-1.44-2.1c-2.97-4.31-6.32-4.68-9.4-2.56-3.09,2.13-3.93,5.4-.97,9.7l9.74,14.13-8.29,5.7-9.73-14.13c-6.31-9.15-4.13-17.57,3.92-23.12,8.06-5.54,16.66-4.64,23.01,4.58l1.44,2.1,8.28,12.02,1.44,2.1c2.97,4.31,6.32,4.68,9.4,2.56,3.09-2.13,3.93-5.4.97-9.7l-9.73-14.13,8.28-5.7,9.73,14.13c6.31,9.15,4.13,17.57-3.92,23.12Z"/>
  <path class="cls-1" d="M187.1,118.81c-8.05,5.55-16.65,4.64-23-4.58l-1.44-2.1-8.28-12.02-1.44-2.1c-2.97-4.3-6.32-4.68-9.41-2.55-3.09,2.12-3.93,5.39-.96,9.69l9.73,14.13-8.28,5.71-9.73-14.13c-6.31-9.16-4.14-17.58,3.92-23.12,8.06-5.55,16.66-4.64,23.01,4.58l1.44,2.1,8.28,12.02,1.44,2.1c2.96,4.3,6.32,4.67,9.4,2.55,3.09-2.13,3.93-5.39.96-9.7l-9.73-14.13,8.28-5.7,9.73,14.13c6.32,9.16,4.14,17.58-3.92,23.12Z"/>
  <path class="cls-1" d="M162.16,162.49c-8.06,5.54-16.66,4.64-23.01-4.58l-1.44-2.1-8.28-12.02-1.44-2.1c-2.96-4.3-6.32-4.68-9.4-2.55-3.09,2.12-3.93,5.39-.96,9.69l9.73,14.13-8.28,5.7-9.73-14.13c-6.32-9.15-4.14-17.57,3.92-23.11,8.05-5.55,16.65-4.64,23,4.58l1.44,2.1,8.28,12.02,1.44,2.1c2.97,4.3,6.32,4.67,9.4,2.55,3.1-2.13,3.94-5.39.97-9.7l-9.73-14.13,8.28-5.7,9.73,14.13c6.31,9.16,4.13,17.58-3.92,23.12Z"/>
  <path class="cls-1" d="M237.78,31.63c-8.05,5.54-16.65,4.63-23-4.59l-1.44-2.1-8.28-12.02-1.44-2.1c-2.97-4.3-6.32-4.67-9.41-2.55-3.09,2.13-3.93,5.39-.96,9.7l9.73,14.13-8.28,5.7-9.73-14.13c-6.31-9.16-4.14-17.57,3.92-23.12,8.06-5.54,16.66-4.64,23.01,4.58l1.44,2.1,8.28,12.02,1.44,2.1c2.96,4.3,6.32,4.68,9.4,2.55,3.09-2.12,3.93-5.39.96-9.69L223.69.08l8.28-5.7,9.73,14.13c6.32,9.15,4.14,17.57-3.92,23.12Z"/>
  <path class="cls-1" d="M212.84,75.3c-8.06,5.55-16.66,4.64-23.01-4.58l-1.44-2.1-8.28-12.02-1.44-2.1c-2.97-4.3-6.32-4.67-9.4-2.55-3.09,2.13-3.93,5.39-.96,9.7l9.73,14.13-8.28,5.7-9.74-14.13c-6.31-9.16-4.13-17.58,3.93-23.12,8.05-5.54,16.65-4.64,23,4.58l1.44,2.1,8.28,12.02,1.44,2.1c2.97,4.3,6.32,4.68,9.4,2.55,3.1-2.12,3.94-5.39.97-9.69l-9.73-14.13,8.28-5.7,9.73,14.13c6.31,9.15,4.13,17.57-3.92,23.11Z"/>
  <path class="cls-1" d="M86.62,293.19c-8.06,5.54-16.66,4.64-23.01-4.59l-1.44-2.09-8.28-12.04-1.44-2.09c-2.97-4.31-6.32-4.68-9.4-2.56-3.09,2.13-3.93,5.4-.97,9.7l9.74,14.13-8.28,5.7-9.74-14.13c-6.31-9.15-4.13-17.57,3.93-23.12,8.05-5.54,16.65-4.64,23,4.58l1.44,2.1,8.28,12.02,1.44,2.1c2.97,4.31,6.32,4.68,9.4,2.55,3.1-2.12,3.94-5.39.97-9.69l-9.73-14.13,8.28-5.7,9.73,14.13c6.31,9.15,4.13,17.57-3.92,23.12Z"/>
  <path class="cls-1" d="M61.68,336.87c-8.05,5.54-16.65,4.63-23-4.59l-1.44-2.1-8.28-12.02-1.44-2.1c-2.97-4.3-6.32-4.67-9.41-2.55-3.09,2.13-3.93,5.39-.96,9.7l9.73,14.13-8.28,5.7-9.73-14.13c-6.31-9.16-4.14-17.57,3.92-23.12,8.06-5.54,16.66-4.64,23.01,4.58l1.44,2.1,8.28,12.02,1.44,2.1c2.96,4.3,6.32,4.68,9.4,2.55,3.09-2.12,3.93-5.39.96-9.69l-9.73-14.13,8.28-5.7,9.73,14.13c6.32,9.15,4.14,17.57-3.92,23.12Z"/>
  <path class="cls-1" d="M137.3,206c-8.06,5.55-16.66,4.64-23.01-4.58l-1.44-2.1-8.28-12.02-1.44-2.1c-2.97-4.3-6.32-4.68-9.4-2.55-3.09,2.12-3.93,5.39-.97,9.69l9.74,14.13-8.29,5.71-9.73-14.13c-6.31-9.16-4.13-17.58,3.93-23.12,8.05-5.55,16.65-4.64,23,4.58l1.44,2.1,8.28,12.02,1.44,2.1c2.97,4.3,6.32,4.67,9.4,2.55,3.1-2.13,3.93-5.39.97-9.7l-9.73-14.13,8.28-5.7,9.73,14.13c6.31,9.16,4.13,17.58-3.92,23.12Z"/>
  <path class="cls-1" d="M112.36,249.68c-8.06,5.54-16.66,4.64-23-4.58l-1.44-2.1-8.28-12.03-1.44-2.09c-2.97-4.31-6.32-4.68-9.41-2.55-3.09,2.12-3.93,5.39-.96,9.69l9.73,14.13-8.28,5.7-9.73-14.13c-6.31-9.15-4.14-17.57,3.92-23.12,8.06-5.54,16.66-4.64,23.01,4.59l1.44,2.1,8.28,12.02,1.44,2.1c2.96,4.3,6.32,4.67,9.4,2.55,3.09-2.13,3.93-5.4.96-9.7l-9.73-14.13,8.28-5.7,9.73,14.13c6.31,9.16,4.14,17.57-3.92,23.12Z"/>
  <path class="cls-1" d="M79.63,230.97h0s8.29,12.03,8.29,12.03l-8.28-12.03Z"/>
  <path class="cls-1" d="M38.51,247.77c-8.05,5.55-16.65,4.64-23-4.58l-1.44-2.1-8.28-12.02-1.44-2.1c-2.97-4.3-6.32-4.68-9.4-2.55-3.1,2.12-3.94,5.39-.97,9.69l9.73,14.13-8.28,5.71-9.73-14.13c-6.31-9.16-4.13-17.58,3.92-23.12,8.06-5.55,16.66-4.64,23.01,4.58l1.44,2.1,8.28,12.02,1.44,2.1c2.96,4.3,6.32,4.68,9.4,2.55,3.09-2.13,3.93-5.39.97-9.7l-9.74-14.13,8.28-5.7,9.73,14.13c6.32,9.16,4.14,17.58-3.92,23.12Z"/>
  <path class="cls-1" d="M13.58,291.45c-8.06,5.55-16.66,4.64-23.01-4.58l-1.44-2.1-8.28-12.02-1.44-2.1c-2.96-4.3-6.32-4.68-9.4-2.55-3.09,2.12-3.93,5.39-.96,9.69l9.73,14.13-8.28,5.71-9.73-14.13c-6.32-9.16-4.14-17.58,3.92-23.12,8.05-5.55,16.65-4.64,23,4.58l1.44,2.1,8.28,12.02,1.44,2.1c2.97,4.3,6.32,4.67,9.41,2.55,3.09-2.13,3.93-5.39.96-9.7l-9.73-14.13,8.28-5.7,9.73,14.13c6.31,9.16,4.14,17.58-3.92,23.12Z"/>
  <path class="cls-1" d="M89.19,160.59c-8.05,5.54-16.65,4.64-23-4.59l-1.44-2.1-8.28-12.02-1.44-2.1c-2.97-4.3-6.32-4.67-9.41-2.55-3.09,2.13-3.93,5.39-.96,9.7l9.73,14.13-8.28,5.7-9.73-14.13c-6.31-9.16-4.14-17.57,3.92-23.12,8.06-5.54,16.66-4.64,23.01,4.58l1.44,2.1,8.28,12.02,1.44,2.1c2.96,4.3,6.32,4.68,9.4,2.55,3.09-2.12,3.93-5.39.96-9.69l-9.73-14.13,8.28-5.7,9.73,14.13c6.32,9.15,4.14,17.57-3.92,23.12Z"/>
  <path class="cls-1" d="M64.26,204.26c-8.06,5.55-16.66,4.64-23.01-4.58l-1.44-2.1-8.28-12.02-1.44-2.1c-2.96-4.3-6.32-4.67-9.4-2.55-3.09,2.13-3.93,5.39-.96,9.7l9.73,14.13-8.28,5.7-9.73-14.13c-6.32-9.16-4.14-17.58,3.92-23.12,8.05-5.54,16.65-4.64,23,4.58l1.44,2.1,8.28,12.02,1.44,2.1c2.97,4.3,6.32,4.68,9.4,2.55,3.1-2.12,3.94-5.39.97-9.69l-9.73-14.13,8.28-5.7,9.73,14.13c6.31,9.15,4.13,17.57-3.92,23.11Z"/>
  <path class="cls-1" d="M260.66,118.73c-8.06,5.55-16.66,4.64-23.01-4.58l-9.73-14.13-1.44-2.1c-2.96-4.3-6.32-4.68-9.4-2.55-3.09,2.12-3.93,5.39-.96,9.7l9.73,14.13-8.28,5.7-9.73-14.13c-6.31-9.16-4.14-17.58,3.92-23.12,8.06-5.55,16.66-4.64,23,4.58l1.44,2.1,8.29,12.02,1.44,2.1c2.96,4.3,6.31,4.68,9.4,2.55,3.09-2.12,3.93-5.39.96-9.69l-9.73-14.13,8.28-5.71,9.73,14.13c6.31,9.16,4.14,17.58-3.92,23.12Z"/>
  <path class="cls-1" d="M235.73,162.42c-8.06,5.55-16.66,4.64-23.01-4.58l-1.44-2.1-8.28-12.02-1.44-2.1c-2.97-4.3-6.32-4.68-9.4-2.55-3.1,2.12-3.93,5.39-.97,9.69l9.73,14.13-8.28,5.71-9.73-14.13c-6.31-9.16-4.13-17.58,3.92-23.12,8.06-5.55,16.66-4.64,23.01,4.58l1.44,2.1,8.28,12.02,1.44,2.1c2.97,4.3,6.32,4.68,9.4,2.55,3.09-2.13,3.93-5.39.97-9.7l-9.73-14.13,8.27-5.7,9.74,14.13c6.31,9.16,4.13,17.58-3.92,23.12Z"/>
  <path class="cls-1" d="M286.88,7.14l8.28,12.04h0s-8.29-12.04-8.29-12.04Z"/>
  <path class="cls-1" d="M311.34,31.55c-8.06,5.54-16.66,4.64-23.01-4.58l-1.44-2.1-8.28-12.02-1.44-2.1c-2.96-4.31-6.32-4.68-9.4-2.56-3.09,2.13-3.93,5.4-.96,9.7l9.73,14.13-8.28,5.7-9.73-14.13c-6.32-9.15-4.14-17.57,3.92-23.12,8.06-5.54,16.65-4.64,23,4.58l1.44,2.1,8.28,12.04,1.44,2.09c2.97,4.31,6.32,4.68,9.41,2.56,3.09-2.13,3.93-5.4.96-9.7L297.26,0l8.28-5.7,9.73,14.13c6.31,9.15,4.14,17.57-3.92,23.12Z"/>
  <path class="cls-1" d="M286.4,75.24c-8.05,5.54-16.65,4.64-23-4.59l-1.44-2.1-8.28-12.02-1.44-2.1c-2.97-4.3-6.32-4.67-9.4-2.55-3.1,2.13-3.93,5.39-.97,9.7l9.73,14.13-8.28,5.7-9.73-14.13c-6.31-9.16-4.13-17.57,3.92-23.12,8.06-5.54,16.66-4.64,23.01,4.58l1.44,2.1,8.28,12.02,1.44,2.1c2.97,4.3,6.32,4.68,9.4,2.55,3.09-2.12,3.93-5.39.97-9.69l-9.74-14.13,8.28-5.7,9.74,14.13c6.31,9.15,4.13,17.57-3.93,23.12Z"/>
  <path class="cls-1" d="M160.06,292.32c-8.06,5.54-16.66,4.64-23.01-4.58l-1.44-2.1-8.28-12.02-1.44-2.1c-2.97-4.3-6.32-4.68-9.4-2.55-3.09,2.12-3.93,5.39-.97,9.69l9.74,14.13-8.29,5.7-9.73-14.13c-6.31-9.15-4.13-17.57,3.92-23.11,8.06-5.55,16.66-4.64,23.01,4.58l1.44,2.1,8.28,12.02,1.44,2.1c2.97,4.3,6.32,4.67,9.4,2.55,3.09-2.13,3.93-5.4.97-9.7l-9.73-14.13,8.28-5.7,9.73,14.13c6.31,9.16,4.13,17.58-3.92,23.12Z"/>
  <path class="cls-1" d="M135.12,336.01c-8.06,5.54-16.66,4.64-23-4.58l-1.44-2.1-8.28-12.04-1.44-2.09c-2.97-4.31-6.32-4.68-9.41-2.55-3.09,2.12-3.93,5.39-.96,9.69l9.73,14.13-8.28,5.7-9.73-14.13c-6.31-9.15-4.14-17.57,3.92-23.12,8.06-5.54,16.66-4.64,23.01,4.59l1.43,2.09,8.29,12.03,1.44,2.09c2.96,4.31,6.31,4.68,9.4,2.56,3.09-2.13,3.93-5.4.96-9.7l-9.73-14.13,8.28-5.7,9.73,14.13c6.31,9.16,4.14,17.57-3.92,23.12Z"/>
  <path class="cls-1" d="M102.39,317.29h0s8.29,12.04,8.29,12.04l-8.28-12.04Z"/>
  <path class="cls-1" d="M210.74,205.13c-8.06,5.55-16.66,4.64-23.01-4.58l-1.44-2.1-8.28-12.02-1.44-2.1c-2.97-4.3-6.32-4.67-9.4-2.55-3.1,2.13-3.93,5.39-.97,9.7l9.73,14.13-8.28,5.7-9.73-14.13c-6.31-9.16-4.13-17.58,3.92-23.12,8.06-5.55,16.66-4.64,23.01,4.58l1.44,2.1,8.28,12.02,1.44,2.1c2.97,4.3,6.32,4.68,9.4,2.55,3.09-2.12,3.93-5.39.97-9.69l-9.73-14.13,8.27-5.7,9.74,14.13c6.31,9.15,4.13,17.57-3.92,23.11Z"/>
  <path class="cls-1" d="M185.79,248.81c-8.06,5.55-16.66,4.64-23.01-4.58l-9.73-14.13-1.44-2.1c-2.96-4.3-6.32-4.68-9.4-2.55-3.09,2.12-3.93,5.39-.96,9.7l9.73,14.13-8.28,5.7-9.73-14.13c-6.31-9.16-4.14-17.58,3.92-23.12,8.06-5.55,16.66-4.64,23,4.58l1.44,2.1,8.29,12.02,1.44,2.1c2.96,4.3,6.31,4.68,9.4,2.55,3.09-2.12,3.93-5.39.96-9.69l-9.73-14.13,8.28-5.71,9.73,14.13c6.31,9.16,4.14,17.58-3.92,23.12Z"/>
  <path class="cls-1" d="M-6.11,205.83c-8.06,5.54-16.66,4.63-23.01-4.59l-1.44-2.1-8.28-12.02-1.44-2.1c-2.97-4.3-6.32-4.67-9.4-2.55-3.09,2.13-3.93,5.39-.96,9.7l9.73,14.13-8.28,5.7-9.74-14.13c-6.31-9.16-4.13-17.57,3.93-23.12,8.05-5.54,16.65-4.64,23,4.58l1.44,2.1,8.28,12.02,1.44,2.1c2.97,4.3,6.32,4.68,9.4,2.55,3.1-2.12,3.94-5.39.97-9.69l-9.73-14.13,8.28-5.7,9.73,14.13c6.31,9.15,4.13,17.57-3.92,23.12Z"/>
  <path class="cls-1" d="M358.52,74.49c-8.05,5.54-16.65,4.64-23-4.58l-1.44-2.1-8.28-12.02-1.44-2.1c-2.97-4.31-6.32-4.68-9.41-2.56-3.09,2.13-3.93,5.4-.96,9.7l9.73,14.13-8.28,5.7-9.73-14.13c-6.31-9.15-4.14-17.57,3.92-23.12,8.06-5.54,16.66-4.64,23.01,4.59l1.44,2.09,8.28,12.04,1.44,2.09c2.96,4.31,6.32,4.68,9.4,2.56,3.09-2.13,3.93-5.4.96-9.7l-9.73-14.13,8.28-5.7,9.73,14.13c6.32,9.16,4.14,17.57-3.92,23.12Z"/>
  <path class="cls-1" d="M333.58,118.17c-8.06,5.54-16.66,4.64-23.01-4.58l-1.44-2.1-8.28-12.02-1.44-2.1c-2.96-4.31-6.32-4.68-9.4-2.56-3.09,2.13-3.93,5.4-.96,9.7l9.73,14.13-8.28,5.7-9.73-14.13c-6.32-9.15-4.14-17.57,3.92-23.12,8.05-5.54,16.65-4.64,23,4.58l1.44,2.1,8.28,12.02,1.44,2.1c2.97,4.31,6.32,4.68,9.4,2.56,3.1-2.13,3.94-5.4.97-9.7l-9.73-14.13,8.28-5.7,9.73,14.13c6.31,9.15,4.14,17.57-3.92,23.12Z"/>
  <path class="cls-1" d="M384.26,30.98c-8.06,5.55-16.66,4.64-23.01-4.58l-1.44-2.1-8.28-12.02-1.44-2.1c-2.97-4.3-6.32-4.68-9.4-2.55-3.09,2.12-3.93,5.39-.96,9.69l9.73,14.13-8.28,5.71-9.74-14.13c-6.31-9.16-4.13-17.58,3.93-23.12,8.05-5.55,16.65-4.64,23,4.58l1.44,2.1,8.28,12.02,1.44,2.1c2.97,4.3,6.32,4.68,9.4,2.55,3.1-2.13,3.94-5.39.97-9.7l-9.73-14.13,8.28-5.7,9.73,14.13c6.31,9.16,4.13,17.58-3.92,23.12Z"/>
  <path class="cls-1" d="M405.54,119.13c-8.05,5.54-16.65,4.63-23-4.59l-1.44-2.1-8.28-12.02-1.44-2.1c-2.97-4.3-6.32-4.67-9.4-2.55-3.1,2.13-3.93,5.39-.97,9.7l9.73,14.13-8.28,5.7-9.73-14.13c-6.31-9.16-4.13-17.57,3.92-23.12,8.06-5.54,16.66-4.64,23.01,4.58l1.44,2.1,8.28,12.02,1.44,2.1c2.97,4.3,6.32,4.68,9.4,2.55,3.09-2.12,3.93-5.39.97-9.69l-9.74-14.13,8.28-5.7,9.74,14.13c6.31,9.15,4.13,17.57-3.93,23.12Z"/>
  <path class="cls-1" d="M356.15,138.4l8.28,12.04h0s-8.29-12.04-8.29-12.04Z"/>
  <path class="cls-1" d="M380.61,162.8c-8.06,5.55-16.66,4.64-23.01-4.58l-9.73-14.13-1.44-2.1c-2.96-4.3-6.32-4.67-9.4-2.55-3.09,2.13-3.93,5.39-.96,9.7l9.73,14.13-8.28,5.7-9.73-14.13c-6.32-9.16-4.14-17.58,3.92-23.12,8.06-5.54,16.65-4.64,23,4.58l1.44,2.1,8.28,12.04,1.44,2.09c2.97,4.3,6.32,4.68,9.41,2.55,3.09-2.12,3.93-5.39.96-9.69l-9.73-14.13,8.28-5.7,9.73,14.13c6.31,9.15,4.14,17.57-3.92,23.11Z"/>
  <path class="cls-1" d="M456.22,31.93c-8.05,5.54-16.65,4.64-23-4.58l-1.44-2.1-8.28-12.02-1.44-2.1c-2.97-4.3-6.32-4.68-9.4-2.55-3.1,2.12-3.94,5.39-.97,9.69l9.73,14.13-8.28,5.7-9.73-14.13c-6.31-9.15-4.13-17.57,3.92-23.11,8.06-5.55,16.66-4.65,23.01,4.58l1.44,2.1,8.28,12.02,1.44,2.1c2.97,4.3,6.32,4.67,9.4,2.55,3.09-2.13,3.93-5.4.97-9.7l-9.74-14.13,8.28-5.7,9.73,14.13c6.32,9.16,4.14,17.58-3.92,23.12Z"/>
  <path class="cls-1" d="M431.28,75.62c-8.06,5.54-16.66,4.64-23.01-4.58l-1.44-2.1-8.28-12.02-1.44-2.1c-2.96-4.31-6.32-4.68-9.4-2.55-3.09,2.12-3.93,5.39-.96,9.69l9.73,14.13-8.28,5.7-9.73-14.13c-6.32-9.15-4.14-17.57,3.92-23.12,8.05-5.54,16.65-4.64,23,4.59l1.44,2.09,8.28,12.04,1.44,2.09c2.97,4.31,6.32,4.68,9.41,2.56,3.09-2.13,3.93-5.4.96-9.7l-9.73-14.13,8.28-5.7,9.73,14.13c6.31,9.16,4.14,17.57-3.92,23.12Z"/>
  <path class="cls-1" d="M501.11,73.96c-8.06,5.55-16.66,4.64-23.01-4.58l-1.44-2.1-8.28-12.02-1.44-2.1c-2.97-4.3-6.32-4.68-9.4-2.55-3.1,2.13-3.93,5.39-.97,9.7l9.73,14.13-8.28,5.7-9.73-14.13c-6.31-9.16-4.13-17.58,3.92-23.12,8.06-5.55,16.66-4.64,23.01,4.58l1.44,2.1,8.28,12.02,1.44,2.1c2.97,4.3,6.32,4.68,9.4,2.55,3.09-2.12,3.93-5.39.97-9.69l-9.73-14.13,8.28-5.71,9.73,14.13c6.31,9.16,4.13,17.58-3.92,23.12Z"/>
  <path class="cls-1" d="M476.17,117.64c-8.06,5.55-16.66,4.64-23.01-4.58l-9.73-14.13-1.44-2.1c-2.96-4.3-6.32-4.68-9.4-2.55-3.09,2.12-3.93,5.39-.96,9.69l9.73,14.13-8.28,5.71-9.73-14.13c-6.31-9.16-4.14-17.58,3.92-23.12,8.06-5.55,16.66-4.64,23,4.58l1.44,2.1,8.29,12.02,1.44,2.1c2.96,4.3,6.31,4.68,9.4,2.55,3.09-2.12,3.93-5.39.96-9.69l-9.73-14.13,8.28-5.71,9.73,14.13c6.31,9.16,4.14,17.58-3.92,23.12Z"/>
  <path class="cls-1" d="M502.39,6.05l8.28,12.04h0s-8.29-12.04-8.29-12.04Z"/>
  <path class="cls-1" d="M526.85,30.46c-8.06,5.54-16.66,4.64-23.01-4.58l-9.73-14.13-1.44-2.1c-2.96-4.31-6.32-4.68-9.4-2.56-3.09,2.13-3.93,5.4-.96,9.7l9.73,14.13-8.28,5.7-9.73-14.13c-6.31-9.15-4.14-17.57,3.92-23.12,8.06-5.54,16.66-4.64,23,4.58l1.44,2.1,8.28,12.04,1.44,2.09c2.97,4.31,6.32,4.68,9.41,2.55,3.09-2.12,3.93-5.39.96-9.69l-9.73-14.13,8.28-5.7,9.73,14.13c6.31,9.15,4.14,17.57-3.92,23.12Z"/>
  <path class="cls-1" d="M548.14,118.59c-8.06,5.55-16.66,4.64-23.01-4.58l-1.44-2.1-8.28-12.02-1.44-2.1c-2.97-4.3-6.32-4.68-9.4-2.55-3.09,2.12-3.93,5.39-.97,9.69l9.74,14.13-8.28,5.71-9.74-14.13c-6.31-9.16-4.13-17.58,3.93-23.12,8.05-5.55,16.65-4.64,23,4.58l1.44,2.1,8.28,12.02,1.44,2.1c2.97,4.3,6.32,4.67,9.4,2.55,3.1-2.13,3.93-5.39.97-9.7l-9.73-14.13,8.28-5.7,9.73,14.13c6.31,9.16,4.13,17.58-3.92,23.12Z"/>
  <path class="cls-1" d="M523.19,162.28c-8.05,5.54-16.65,4.64-23-4.58l-1.44-2.1-8.28-12.04-1.44-2.09c-2.97-4.3-6.32-4.68-9.41-2.55-3.09,2.12-3.93,5.39-.96,9.69l9.73,14.13-8.28,5.7-9.73-14.13c-6.31-9.15-4.14-17.57,3.92-23.11,8.06-5.55,16.66-4.65,23.01,4.58l1.44,2.1,8.28,12.02,1.44,2.1c2.96,4.3,6.32,4.67,9.4,2.55,3.09-2.13,3.93-5.4.96-9.7l-9.73-14.13,8.28-5.7,9.73,14.13c6.32,9.16,4.14,17.58-3.92,23.12Z"/>
  <path class="cls-1" d="M490.47,143.56h0s8.29,12.04,8.29,12.04l-8.28-12.04Z"/>
  <path class="cls-1" d="M598.81,31.4c-8.06,5.55-16.66,4.64-23.01-4.58l-1.44-2.1-8.28-12.02-1.44-2.1c-2.97-4.3-6.32-4.67-9.4-2.55-3.09,2.13-3.93,5.39-.97,9.7l9.74,14.13-8.29,5.7-9.73-14.13c-6.31-9.16-4.13-17.58,3.93-23.12,8.05-5.54,16.65-4.64,23,4.58l1.44,2.1,8.28,12.02,1.44,2.1c2.97,4.3,6.32,4.68,9.4,2.55,3.09-2.12,3.93-5.39.97-9.69l-9.73-14.13,8.28-5.7,9.73,14.13c6.31,9.15,4.13,17.57-3.92,23.11Z"/>
  <path class="cls-1" d="M573.87,75.08c-8.06,5.55-16.66,4.64-23-4.58l-1.44-2.1-8.28-12.04-1.44-2.09c-2.97-4.3-6.32-4.67-9.41-2.55-3.09,2.13-3.93,5.39-.96,9.7l9.73,14.13-8.28,5.7-9.73-14.13c-6.31-9.16-4.14-17.58,3.92-23.12,8.06-5.55,16.66-4.64,23.01,4.58l1.44,2.1,8.28,12.02,1.44,2.1c2.96,4.3,6.32,4.68,9.4,2.55,3.09-2.12,3.93-5.39.96-9.69l-9.73-14.13,8.28-5.7,9.73,14.13c6.31,9.15,4.14,17.57-3.92,23.11Z"/>
  <path class="cls-1" d="M541.15,56.37h0s8.29,12.04,8.29,12.04l-8.28-12.04Z"/>
  <path class="cls-1" d="M447.65,292.97c-8.06,5.54-16.66,4.64-23-4.59l-1.44-2.1-8.28-12.04-1.44-2.09c-2.97-4.3-6.32-4.67-9.41-2.55-3.09,2.13-3.93,5.39-.96,9.7l9.73,14.13-8.28,5.7-9.73-14.13c-6.31-9.16-4.14-17.57,3.92-23.12,8.06-5.54,16.66-4.64,23.01,4.58l9.73,14.13,1.44,2.1c2.96,4.3,6.32,4.68,9.4,2.55,3.09-2.12,3.93-5.39.96-9.69l-9.73-14.13,8.28-5.7,9.73,14.13c6.31,9.15,4.14,17.57-3.92,23.12Z"/>
  <path class="cls-1" d="M414.93,274.25h0s8.29,12.04,8.29,12.04l-8.28-12.04Z"/>
  <path class="cls-1" d="M422.72,336.64c-8.06,5.55-16.66,4.64-23.01-4.58l-1.44-2.1-8.28-12.02-1.44-2.1c-2.97-4.3-6.32-4.67-9.4-2.55-3.09,2.13-3.93,5.39-.97,9.7l9.74,14.13-8.29,5.7-9.73-14.13c-6.31-9.16-4.13-17.58,3.93-23.12,8.05-5.54,16.65-4.64,23,4.58l1.44,2.1,8.28,12.02,1.44,2.1c2.97,4.3,6.32,4.68,9.4,2.55,3.09-2.12,3.93-5.39.97-9.69l-9.73-14.13,8.28-5.7,9.73,14.13c6.31,9.15,4.13,17.57-3.92,23.11Z"/>
  <path class="cls-1" d="M498.33,205.78c-8.06,5.54-16.66,4.64-23.01-4.58l-9.73-14.13-1.44-2.1c-2.96-4.3-6.32-4.68-9.4-2.55-3.09,2.12-3.93,5.39-.96,9.69l9.73,14.13-8.28,5.7-9.73-14.13c-6.31-9.15-4.14-17.57,3.92-23.11,8.06-5.55,16.66-4.64,23,4.58l1.44,2.1,8.29,12.02,1.44,2.1c2.96,4.3,6.31,4.67,9.4,2.55,3.09-2.13,3.93-5.39.96-9.7l-9.73-14.13,8.28-5.7,9.73,14.13c6.31,9.16,4.14,17.58-3.92,23.12Z"/>
  <path class="cls-1" d="M473.4,249.46c-8.06,5.54-16.66,4.64-23.01-4.58l-1.44-2.1-8.28-12.02-1.44-2.1c-2.97-4.31-6.32-4.68-9.4-2.55-3.09,2.12-3.93,5.39-.97,9.69l9.73,14.13-8.28,5.7-9.73-14.13c-6.31-9.15-4.13-17.57,3.92-23.12,8.06-5.54,16.66-4.64,23.01,4.59l1.44,2.1,8.28,12.02,1.44,2.1c2.97,4.3,6.32,4.67,9.4,2.55,3.09-2.13,3.93-5.4.97-9.7l-9.73-14.13,8.28-5.7,9.73,14.13c6.31,9.16,4.13,17.57-3.92,23.12Z"/>
  <path class="cls-1" d="M399.55,247.55c-8.06,5.55-16.66,4.64-23.01-4.58l-1.44-2.1-8.28-12.02-1.44-2.1c-2.97-4.3-6.32-4.68-9.4-2.55-3.09,2.12-3.93,5.39-.96,9.69l9.73,14.13-8.28,5.71-9.74-14.13c-6.31-9.16-4.13-17.58,3.93-23.12,8.05-5.55,16.65-4.64,23,4.58l1.44,2.1,8.28,12.02,1.44,2.1c2.97,4.3,6.32,4.67,9.4,2.55,3.1-2.13,3.94-5.39.97-9.7l-9.73-14.13,8.28-5.7,9.73,14.13c6.31,9.16,4.13,17.58-3.92,23.12Z"/>
  <path class="cls-1" d="M374.61,291.24c-8.05,5.54-16.65,4.64-23-4.58l-1.44-2.1-8.28-12.02-1.44-2.1c-2.97-4.3-6.32-4.68-9.41-2.55-3.09,2.12-3.93,5.39-.96,9.69l9.73,14.13-8.28,5.7-9.73-14.13c-6.31-9.15-4.14-17.57,3.92-23.11,8.06-5.55,16.66-4.64,23.01,4.58l1.44,2.1,8.28,12.02,1.44,2.1c2.96,4.3,6.32,4.67,9.4,2.55,3.09-2.13,3.93-5.39.96-9.7l-9.73-14.13,8.28-5.7,9.73,14.13c6.32,9.16,4.14,17.58-3.92,23.12Z"/>
  <path class="cls-1" d="M450.23,160.37c-8.06,5.54-16.66,4.63-23.01-4.59l-1.44-2.1-8.28-12.02-1.44-2.1c-2.97-4.3-6.32-4.67-9.4-2.55-3.09,2.13-3.93,5.39-.97,9.7l9.74,14.13-8.28,5.7-9.74-14.13c-6.31-9.16-4.13-17.57,3.93-23.12,8.05-5.54,16.65-4.64,23,4.58l1.44,2.1,8.28,12.02,1.44,2.1c2.97,4.3,6.32,4.68,9.4,2.55,3.1-2.12,3.93-5.39.97-9.69l-9.73-14.13,8.28-5.7,9.73,14.13c6.31,9.15,4.13,17.57-3.92,23.12Z"/>
  <path class="cls-1" d="M425.29,204.04c-8.05,5.55-16.65,4.64-23-4.58l-1.44-2.1-8.28-12.02-1.44-2.1c-2.97-4.3-6.32-4.67-9.41-2.55-3.09,2.13-3.93,5.39-.96,9.7l9.73,14.13-8.28,5.7-9.73-14.13c-6.31-9.16-4.14-17.58,3.92-23.12,8.06-5.55,16.66-4.64,23.01,4.58l1.44,2.1,8.28,12.02,1.44,2.1c2.96,4.3,6.32,4.68,9.4,2.55,3.09-2.12,3.93-5.39.96-9.69l-9.73-14.13,8.28-5.7,9.73,14.13c6.32,9.15,4.14,17.57-3.92,23.11Z"/>
  <path class="cls-1" d="M621.69,118.52c-8.05,5.55-16.65,4.64-23-4.58l-1.44-2.1-8.28-12.02-1.44-2.1c-2.97-4.3-6.32-4.68-9.4-2.55-3.1,2.12-3.93,5.39-.97,9.69l9.73,14.13-8.28,5.71-9.73-14.13c-6.31-9.16-4.13-17.58,3.92-23.12,8.06-5.55,16.66-4.64,23.01,4.58l1.44,2.1,8.28,12.02,1.44,2.1c2.97,4.3,6.32,4.68,9.4,2.55,3.09-2.13,3.93-5.39.97-9.7l-9.74-14.13,8.28-5.7,9.74,14.13c6.31,9.16,4.13,17.58-3.93,23.12Z"/>
  <path class="cls-1" d="M572.3,137.8l8.28,12.03h0s-8.29-12.03-8.29-12.03Z"/>
  <path class="cls-1" d="M596.76,162.2c-8.06,5.55-16.66,4.64-23.01-4.58l-1.44-2.1-8.28-12.02-1.44-2.1c-2.96-4.3-6.32-4.68-9.4-2.55-3.09,2.12-3.93,5.39-.96,9.69l9.73,14.13-8.28,5.71-9.73-14.13c-6.32-9.16-4.14-17.58,3.92-23.12,8.05-5.55,16.65-4.64,23,4.58l1.44,2.1,8.28,12.03,1.44,2.09c2.97,4.3,6.32,4.67,9.41,2.55,3.09-2.13,3.93-5.39.96-9.7l-9.73-14.13,8.28-5.7,9.73,14.13c6.31,9.16,4.14,17.58-3.92,23.12Z"/>
  <path class="cls-1" d="M647.44,75.02c-8.06,5.54-16.66,4.63-23.01-4.59l-1.44-2.1-8.28-12.02-1.44-2.1c-2.96-4.3-6.32-4.67-9.4-2.55-3.09,2.13-3.93,5.39-.96,9.7l9.73,14.13-8.28,5.7-9.73-14.13c-6.32-9.16-4.14-17.57,3.92-23.12,8.05-5.54,16.65-4.64,23,4.58l1.44,2.1,8.28,12.02,1.44,2.1c2.97,4.3,6.32,4.68,9.4,2.55,3.1-2.12,3.94-5.39.97-9.69l-9.73-14.13,8.28-5.7,9.73,14.13c6.31,9.15,4.14,17.57-3.92,23.12Z"/>
  <path class="cls-1" d="M496.63,267.71l8.28,12.04h0s-8.29-12.04-8.29-12.04Z"/>
  <path class="cls-1" d="M521.09,292.11c-8.06,5.54-16.66,4.64-23.01-4.58l-9.73-14.13-1.44-2.1c-2.96-4.31-6.32-4.68-9.4-2.55-3.09,2.12-3.93,5.39-.96,9.69l9.73,14.13-8.28,5.7-9.73-14.13c-6.32-9.15-4.14-17.57,3.92-23.12,8.06-5.54,16.66-4.64,23,4.59l1.44,2.1,8.28,12.04,1.44,2.09c2.97,4.3,6.32,4.67,9.41,2.55,3.09-2.13,3.93-5.4.96-9.7l-9.73-14.13,8.28-5.7,9.73,14.13c6.31,9.16,4.14,17.57-3.92,23.12Z"/>
  <path class="cls-1" d="M496.15,335.79c-8.05,5.54-16.65,4.64-23-4.58l-1.44-2.1-8.28-12.02-1.44-2.1c-2.97-4.31-6.32-4.68-9.4-2.56-3.1,2.13-3.93,5.4-.97,9.7l9.73,14.13-8.28,5.7-9.73-14.13c-6.31-9.15-4.13-17.57,3.92-23.12,8.06-5.54,16.66-4.64,23.01,4.59l1.44,2.09,8.28,12.03,1.44,2.09c2.97,4.31,6.32,4.68,9.4,2.56,3.09-2.13,3.93-5.4.97-9.7l-9.73-14.13,8.27-5.7,9.74,14.13c6.31,9.15,4.13,17.57-3.93,23.12Z"/>
  <path class="cls-1" d="M571.77,204.91c-8.06,5.55-16.66,4.64-23.01-4.58l-1.44-2.1-8.28-12.02-1.44-2.1c-2.96-4.3-6.32-4.68-9.4-2.55-3.09,2.12-3.93,5.39-.96,9.7l9.73,14.13-8.28,5.7-9.73-14.13c-6.32-9.16-4.14-17.58,3.92-23.12,8.05-5.55,16.65-4.64,23,4.58l1.44,2.1,8.28,12.02,1.44,2.1c2.97,4.3,6.32,4.68,9.41,2.55,3.09-2.12,3.93-5.39.96-9.69l-9.73-14.13,8.28-5.71,9.73,14.13c6.31,9.16,4.14,17.58-3.92,23.12Z"/>
  <path class="cls-1" d="M546.82,248.6c-8.05,5.55-16.65,4.64-23-4.58l-1.44-2.1-8.28-12.02-1.44-2.1c-2.97-4.3-6.32-4.68-9.4-2.55-3.1,2.12-3.93,5.39-.97,9.69l9.73,14.13-8.28,5.71-9.73-14.13c-6.31-9.16-4.13-17.58,3.92-23.12,8.06-5.55,16.66-4.64,23.01,4.58l1.44,2.1,8.28,12.02,1.44,2.1c2.97,4.3,6.32,4.68,9.4,2.55,3.09-2.12,3.93-5.39.97-9.7l-9.74-14.13,8.28-5.7,9.74,14.13c6.31,9.16,4.13,17.58-3.93,23.12Z"/>
  <path class="cls-1" d="M304.24,292.8c-8.06,5.55-16.66,4.64-23-4.58l-1.44-2.1-8.28-12.04-1.44-2.09c-2.97-4.3-6.32-4.68-9.41-2.55-3.09,2.12-3.93,5.39-.96,9.69l9.73,14.13-8.28,5.7-9.73-14.13c-6.31-9.15-4.14-17.57,3.92-23.11,8.06-5.55,16.66-4.64,23.01,4.58l1.44,2.1,8.28,12.02,1.44,2.1c2.96,4.3,6.32,4.67,9.4,2.55,3.09-2.13,3.93-5.39.96-9.7l-9.73-14.13,8.28-5.7,9.73,14.13c6.32,9.16,4.14,17.58-3.92,23.12Z"/>
  <path class="cls-1" d="M271.51,274.09h0s8.29,12.04,8.29,12.04l-8.28-12.04Z"/>
  <path class="cls-1" d="M279.31,336.48c-8.06,5.54-16.66,4.64-23.01-4.58l-1.44-2.1-8.28-12.02-1.44-2.1c-2.97-4.31-6.32-4.68-9.4-2.55-3.09,2.12-3.93,5.39-.97,9.69l9.74,14.13-8.28,5.7-9.74-14.13c-6.31-9.15-4.13-17.57,3.93-23.12,8.05-5.54,16.65-4.64,23,4.59l1.44,2.1,8.28,12.02,1.44,2.1c2.97,4.3,6.32,4.67,9.4,2.55,3.1-2.13,3.94-5.4.97-9.7l-9.73-14.13,8.28-5.7,9.73,14.13c6.31,9.16,4.13,17.57-3.92,23.12Z"/>
  <path class="cls-1" d="M354.92,205.61c-8.06,5.55-16.66,4.64-23-4.58l-1.44-2.1-8.28-12.04-1.44-2.09c-2.97-4.3-6.32-4.67-9.41-2.55-3.09,2.13-3.93,5.39-.96,9.7l9.73,14.13-8.28,5.7-9.73-14.13c-6.31-9.16-4.14-17.58,3.92-23.12,8.06-5.54,16.66-4.64,23.01,4.58l9.73,14.13,1.44,2.1c2.96,4.3,6.32,4.68,9.4,2.55,3.09-2.12,3.93-5.39.96-9.69l-9.73-14.13,8.28-5.7,9.73,14.13c6.31,9.15,4.14,17.57-3.92,23.11Z"/>
  <path class="cls-1" d="M322.19,186.89h0s8.29,12.04,8.29,12.04l-8.28-12.04Z"/>
  <path class="cls-1" d="M329.98,249.29c-8.06,5.55-16.66,4.64-23.01-4.58l-1.44-2.1-8.28-12.02-1.44-2.1c-2.97-4.3-6.32-4.68-9.4-2.55s-3.93,5.39-.97,9.7l9.74,14.13-8.29,5.7-9.73-14.13c-6.31-9.16-4.13-17.58,3.93-23.12,8.05-5.55,16.65-4.64,23,4.58l1.44,2.1,8.28,12.02,1.44,2.1c2.97,4.3,6.32,4.68,9.4,2.55,3.1-2.12,3.93-5.39.97-9.69l-9.73-14.13,8.28-5.71,9.73,14.13c6.31,9.16,4.13,17.58-3.92,23.12Z"/>
  <path class="cls-1" d="M257.62,247.83c-8.05,5.55-16.65,4.64-23-4.58l-1.44-2.1-8.28-12.02-1.44-2.1c-2.97-4.3-6.32-4.68-9.41-2.55-3.09,2.12-3.93,5.39-.96,9.7l9.73,14.13-8.28,5.7-9.73-14.13c-6.31-9.16-4.14-17.58,3.92-23.12,8.06-5.55,16.66-4.64,23.01,4.58l1.44,2.1,8.28,12.02,1.44,2.1c2.96,4.3,6.32,4.68,9.4,2.55,3.09-2.12,3.93-5.39.96-9.69l-9.73-14.13,8.28-5.71,9.73,14.13c6.32,9.16,4.14,17.58-3.92,23.12Z"/>
  <path class="cls-1" d="M232.69,291.52c-8.06,5.55-16.66,4.64-23.01-4.58l-1.44-2.1-8.28-12.02-1.44-2.1c-2.97-4.3-6.32-4.68-9.4-2.55-3.09,2.12-3.93,5.39-.96,9.69l9.73,14.13-8.28,5.71-9.74-14.13c-6.31-9.16-4.13-17.58,3.93-23.12,8.05-5.55,16.65-4.64,23,4.58l1.44,2.1,8.28,12.02,1.44,2.1c2.97,4.3,6.32,4.68,9.4,2.55,3.1-2.13,3.94-5.39.97-9.7l-9.73-14.13,8.28-5.7,9.73,14.13c6.31,9.16,4.13,17.58-3.92,23.12Z"/>
  <path class="cls-1" d="M308.3,160.65c-8.06,5.54-16.66,4.64-23-4.58l-1.44-2.1-8.28-12.04-1.44-2.09c-2.97-4.31-6.32-4.68-9.41-2.56-3.09,2.13-3.93,5.4-.96,9.7l9.73,14.13-8.28,5.7-9.73-14.13c-6.31-9.15-4.14-17.57,3.92-23.12,8.06-5.54,16.66-4.64,23.01,4.58l1.44,2.1,8.28,12.02,1.44,2.1c2.96,4.31,6.32,4.68,9.4,2.56,3.09-2.13,3.93-5.4.96-9.7l-9.73-14.13,8.28-5.7,9.73,14.13c6.32,9.15,4.14,17.57-3.92,23.12Z"/>
  <path class="cls-1" d="M275.57,141.94h0s8.29,12.04,8.29,12.04l-8.28-12.04Z"/>
  <path class="cls-1" d="M283.37,204.33c-8.06,5.54-16.66,4.64-23.01-4.59l-1.44-2.1-8.28-12.02-1.44-2.1c-2.97-4.3-6.32-4.67-9.4-2.55-3.09,2.13-3.93,5.39-.97,9.7l9.74,14.13-8.28,5.7-9.74-14.13c-6.31-9.16-4.13-17.57,3.93-23.12,8.05-5.54,16.65-4.64,23,4.58l1.44,2.1,8.28,12.02,1.44,2.1c2.97,4.3,6.32,4.68,9.4,2.55,3.1-2.12,3.94-5.39.97-9.69l-9.73-14.13,8.28-5.7,9.73,14.13c6.31,9.15,4.13,17.57-3.92,23.12Z"/>
  <path class="cls-1" d="M593.37,290.64c-8.06,5.54-16.66,4.64-23.01-4.58l-9.73-14.13-1.44-2.1c-2.96-4.31-6.32-4.68-9.4-2.55-3.09,2.12-3.93,5.39-.96,9.69l9.73,14.13-8.28,5.7-9.73-14.13c-6.32-9.15-4.14-17.57,3.92-23.12,8.06-5.54,16.66-4.64,23,4.59l1.44,2.1,8.28,12.04,1.44,2.09c2.97,4.3,6.32,4.67,9.41,2.55,3.09-2.13,3.93-5.4.96-9.7l-9.73-14.13,8.28-5.7,9.73,14.13c6.31,9.16,4.14,17.57-3.92,23.12Z"/>
  <path class="cls-1" d="M567.66,334.1c-8.05,5.54-16.65,4.64-23-4.58l-1.44-2.1-8.28-12.02-1.44-2.1c-2.97-4.31-6.32-4.68-9.4-2.56-3.1,2.13-3.93,5.4-.97,9.7l9.73,14.13-8.28,5.7-9.73-14.13c-6.31-9.15-4.13-17.57,3.92-23.12,8.06-5.54,16.66-4.64,23.01,4.59l1.44,2.09,8.28,12.03,1.44,2.09c2.97,4.31,6.32,4.68,9.4,2.56,3.09-2.13,3.93-5.4.97-9.7l-9.73-14.13,8.27-5.7,9.74,14.13c6.31,9.15,4.13,17.57-3.93,23.12Z"/>
  <path class="cls-1" d="M644.05,203.45c-8.06,5.55-16.66,4.64-23.01-4.58l-1.44-2.1-8.28-12.02-1.44-2.1c-2.96-4.3-6.32-4.68-9.4-2.55-3.09,2.12-3.93,5.39-.96,9.7l9.73,14.13-8.28,5.7-9.73-14.13c-6.32-9.16-4.14-17.58,3.92-23.12,8.05-5.55,16.65-4.64,23,4.58l1.44,2.1,8.28,12.02,1.44,2.1c2.97,4.3,6.32,4.68,9.41,2.55,3.09-2.12,3.93-5.39.96-9.69l-9.73-14.13,8.28-5.71,9.73,14.13c6.31,9.16,4.14,17.58-3.92,23.12Z"/>
  <path class="cls-1" d="M619.1,247.14c-8.05,5.55-16.65,4.64-23-4.58l-1.44-2.1-8.28-12.02-1.44-2.1c-2.97-4.3-6.32-4.68-9.4-2.55-3.1,2.12-3.93,5.39-.97,9.69l9.73,14.13-8.28,5.71-9.73-14.13c-6.31-9.16-4.13-17.58,3.92-23.12,8.06-5.55,16.66-4.64,23.01,4.58l1.44,2.1,8.28,12.02,1.44,2.1c2.97,4.3,6.32,4.68,9.4,2.55,3.09-2.12,3.93-5.39.97-9.7l-9.74-14.13,8.28-5.7,9.74,14.13c6.31,9.16,4.13,17.58-3.93,23.12Z"/>
  <path class="cls-1" d="M642.42,332.83c-8.05,5.54-16.65,4.64-23-4.58l-1.44-2.1-8.28-12.02-1.44-2.1c-2.97-4.31-6.32-4.68-9.4-2.56-3.1,2.13-3.93,5.4-.97,9.7l9.73,14.13-8.28,5.7-9.73-14.13c-6.31-9.15-4.13-17.57,3.92-23.12,8.06-5.54,16.66-4.64,23.01,4.59l1.44,2.09,8.28,12.03,1.44,2.09c2.97,4.31,6.32,4.68,9.4,2.56,3.09-2.13,3.93-5.4.97-9.7l-9.73-14.13,8.27-5.7,9.74,14.13c6.31,9.15,4.13,17.57-3.93,23.12Z"/>
  <path class="cls-1" d="M350.11,335.42c-8.05,5.54-16.65,4.64-23-4.58l-1.44-2.1-8.28-12.02-1.44-2.1c-2.97-4.3-6.32-4.68-9.41-2.55-3.09,2.12-3.93,5.39-.96,9.69l9.73,14.13-8.28,5.7-9.73-14.13c-6.31-9.15-4.14-17.57,3.92-23.11,8.06-5.55,16.66-4.64,23.01,4.58l1.44,2.1,8.28,12.02,1.44,2.1c2.96,4.3,6.32,4.67,9.4,2.55,3.09-2.13,3.93-5.39.96-9.7l-9.73-14.13,8.28-5.7,9.73,14.13c6.32,9.16,4.14,17.58-3.92,23.12Z"/>
  <path class="cls-1" d="M207.76,335.53c-8.06,5.55-16.66,4.64-23.01-4.58l-1.44-2.1-8.28-12.02-1.44-2.1c-2.97-4.3-6.32-4.68-9.4-2.55-3.09,2.12-3.93,5.39-.96,9.69l9.73,14.13-8.28,5.71-9.74-14.13c-6.31-9.16-4.13-17.58,3.93-23.12,8.05-5.55,16.65-4.64,23,4.58l1.44,2.1,8.28,12.02,1.44,2.1c2.97,4.3,6.32,4.68,9.4,2.55,3.1-2.13,3.94-5.39.97-9.7l-9.73-14.13,8.28-5.7,9.73,14.13c6.31,9.16,4.13,17.58-3.92,23.12Z"/>
  <path class="cls-1" d="M12.02,422.01c-8.06,5.54-16.66,4.64-23.01-4.58l-1.44-2.1-8.28-12.02-1.44-2.1c-2.96-4.31-6.32-4.68-9.4-2.55-3.09,2.12-3.93,5.39-.96,9.69l9.73,14.13-8.28,5.7-9.73-14.13c-6.32-9.15-4.14-17.57,3.92-23.12,8.05-5.54,16.65-4.64,23,4.59l1.44,2.1,8.28,12.02,1.44,2.1c2.97,4.3,6.32,4.67,9.41,2.55,3.09-2.13,3.93-5.4.96-9.7l-9.73-14.13,8.28-5.7,9.73,14.13c6.31,9.16,4.14,17.57-3.92,23.12Z"/>
  <path class="cls-1" d="M37.75,378.5c-8.05,5.55-16.65,4.64-23-4.58l-1.44-2.1-8.28-12.02-1.44-2.1c-2.97-4.3-6.32-4.68-9.4-2.55-3.1,2.12-3.94,5.39-.97,9.69l9.73,14.13-8.28,5.71-9.73-14.13c-6.31-9.16-4.13-17.58,3.92-23.12,8.06-5.55,16.66-4.64,23.01,4.58l1.44,2.1,8.28,12.02,1.44,2.1c2.96,4.3,6.32,4.68,9.4,2.55,3.09-2.12,3.93-5.39.97-9.7l-9.74-14.13,8.28-5.7,9.73,14.13c6.32,9.16,4.14,17.58-3.92,23.12Z"/>
  <path class="cls-1" d="M59.04,466.65c-8.06,5.54-16.66,4.64-23.01-4.59l-1.43-2.09-8.29-12.03-1.44-2.09c-2.96-4.31-6.32-4.68-9.4-2.56-3.09,2.13-3.93,5.4-.96,9.7l9.73,14.13-8.28,5.7-9.73-14.13c-6.31-9.15-4.14-17.57,3.92-23.12,8.06-5.54,16.66-4.64,23,4.58l1.44,2.1,8.29,12.02,1.44,2.1c2.96,4.31,6.31,4.68,9.4,2.55,3.09-2.12,3.93-5.39.96-9.69l-9.73-14.13,8.28-5.7,9.73,14.13c6.31,9.15,4.14,17.57-3.92,23.12Z"/>
  <path class="cls-1" d="M34.11,510.33c-8.06,5.54-16.66,4.63-23.01-4.59l-1.44-2.1-8.28-12.02-1.44-2.1c-2.97-4.3-6.32-4.67-9.4-2.55-3.09,2.13-3.93,5.39-.97,9.7l9.73,14.13-8.28,5.7-9.73-14.13c-6.31-9.16-4.13-17.57,3.92-23.12,8.06-5.54,16.66-4.64,23.01,4.58l1.44,2.1,8.28,12.02,1.44,2.1c2.97,4.3,6.32,4.68,9.4,2.55,3.09-2.12,3.93-5.39.97-9.69l-9.73-14.13,8.28-5.7,9.73,14.13c6.31,9.15,4.13,17.57-3.92,23.12Z"/>
  <path class="cls-1" d="M85.26,355.06l8.28,12.04h0s-8.29-12.04-8.29-12.04Z"/>
  <path class="cls-1" d="M109.72,379.46c-8.06,5.54-16.66,4.64-23.01-4.58l-9.73-14.13-1.44-2.1c-2.96-4.3-6.32-4.68-9.4-2.55-3.09,2.12-3.93,5.39-.96,9.69l9.73,14.13-8.28,5.7-9.73-14.13c-6.32-9.15-4.14-17.57,3.92-23.11,8.06-5.55,16.66-4.64,23,4.58l1.44,2.1,8.28,12.04,1.44,2.09c2.97,4.3,6.32,4.67,9.41,2.55,3.09-2.13,3.93-5.39.96-9.7l-9.73-14.13,8.28-5.7,9.73,14.13c6.31,9.16,4.14,17.58-3.92,23.12Z"/>
  <path class="cls-1" d="M84.78,423.14c-8.05,5.54-16.65,4.64-23-4.58l-1.44-2.1-8.28-12.02-1.44-2.1c-2.97-4.31-6.32-4.68-9.4-2.55-3.1,2.12-3.93,5.39-.97,9.69l9.73,14.13-8.28,5.7-9.73-14.13c-6.31-9.15-4.13-17.57,3.92-23.12,8.06-5.54,16.66-4.64,23.01,4.59l1.44,2.1,8.28,12.02,1.44,2.1c2.97,4.3,6.32,4.67,9.4,2.55,3.09-2.13,3.93-5.4.97-9.7l-9.73-14.13,8.27-5.7,9.74,14.13c6.31,9.16,4.13,17.57-3.93,23.12Z"/>
  <path class="cls-1" d="M154.61,421.48c-8.06,5.55-16.66,4.64-23-4.58l-1.44-2.1-8.28-12.04-1.44-2.09c-2.97-4.3-6.32-4.67-9.41-2.55-3.09,2.13-3.93,5.39-.96,9.7l9.73,14.13-8.28,5.7-9.73-14.13c-6.31-9.16-4.14-17.58,3.92-23.12,8.06-5.54,16.66-4.64,23.01,4.58l9.73,14.13,1.44,2.1c2.96,4.3,6.32,4.68,9.4,2.55,3.09-2.12,3.93-5.39.96-9.69l-9.73-14.13,8.28-5.7,9.73,14.13c6.31,9.15,4.14,17.57-3.92,23.11Z"/>
  <path class="cls-1" d="M121.88,402.76h0s8.29,12.04,8.29,12.04l-8.28-12.04Z"/>
  <path class="cls-1" d="M129.67,465.16c-8.06,5.55-16.66,4.64-23.01-4.58l-1.44-2.1-8.28-12.02-1.44-2.1c-2.97-4.3-6.32-4.68-9.4-2.55-3.09,2.12-3.93,5.39-.97,9.7l9.74,14.13-8.28,5.7-9.74-14.13c-6.31-9.16-4.13-17.58,3.93-23.12,8.05-5.55,16.65-4.64,23,4.58l1.44,2.1,8.28,12.02,1.44,2.1c2.97,4.3,6.32,4.68,9.4,2.55,3.1-2.12,3.93-5.39.97-9.69l-9.73-14.13,8.28-5.71,9.73,14.13c6.31,9.16,4.13,17.58-3.92,23.12Z"/>
  <path class="cls-1" d="M180.35,377.98c-8.06,5.54-16.66,4.64-23.01-4.58l-1.44-2.1-8.28-12.02-1.44-2.1c-2.97-4.31-6.32-4.68-9.4-2.56-3.09,2.13-3.93,5.4-.97,9.7l9.74,14.13-8.29,5.7-9.73-14.13c-6.31-9.15-4.13-17.57,3.92-23.12,8.06-5.54,16.66-4.64,23.01,4.58l1.44,2.1,8.28,12.02,1.44,2.1c2.97,4.31,6.32,4.68,9.4,2.56,3.09-2.13,3.93-5.4.97-9.7l-9.73-14.13,8.28-5.7,9.73,14.13c6.31,9.15,4.13,17.57-3.92,23.12Z"/>
  <path class="cls-1" d="M201.63,466.12c-8.05,5.55-16.65,4.64-23-4.58l-1.44-2.1-8.28-12.02-1.44-2.1c-2.97-4.3-6.32-4.68-9.41-2.55-3.09,2.12-3.93,5.39-.96,9.69l9.73,14.13-8.28,5.71-9.73-14.13c-6.31-9.16-4.14-17.58,3.92-23.12,8.06-5.55,16.66-4.64,23.01,4.58l1.44,2.1,8.28,12.02,1.44,2.1c2.96,4.3,6.32,4.67,9.4,2.55,3.09-2.13,3.93-5.39.96-9.7l-9.73-14.13,8.28-5.7,9.73,14.13c6.32,9.16,4.14,17.58-3.92,23.12Z"/>
  <path class="cls-1" d="M176.7,509.8c-8.06,5.54-16.66,4.64-23.01-4.58l-1.44-2.1-8.28-12.02-1.44-2.1c-2.96-4.3-6.32-4.68-9.4-2.55-3.09,2.12-3.93,5.39-.96,9.69l9.73,14.13-8.28,5.7-9.73-14.13c-6.32-9.15-4.14-17.57,3.92-23.11,8.05-5.55,16.65-4.64,23,4.58l1.44,2.1,8.28,12.02,1.44,2.1c2.97,4.3,6.32,4.67,9.4,2.55,3.1-2.13,3.94-5.39.97-9.7l-9.73-14.13,8.28-5.7,9.73,14.13c6.31,9.16,4.13,17.58-3.92,23.12Z"/>
  <path class="cls-1" d="M252.31,378.93c-8.05,5.54-16.65,4.63-23-4.59l-1.44-2.1-8.28-12.02-1.44-2.1c-2.97-4.3-6.32-4.67-9.41-2.55-3.09,2.13-3.93,5.39-.96,9.7l9.73,14.13-8.28,5.7-9.73-14.13c-6.31-9.16-4.14-17.57,3.92-23.12,8.06-5.54,16.66-4.64,23.01,4.58l1.44,2.1,8.28,12.02,1.44,2.1c2.96,4.3,6.32,4.68,9.4,2.55,3.09-2.12,3.93-5.39.96-9.69l-9.73-14.13,8.28-5.7,9.73,14.13c6.32,9.15,4.14,17.57-3.92,23.12Z"/>
  <path class="cls-1" d="M227.37,422.61c-8.06,5.55-16.66,4.64-23.01-4.58l-1.44-2.1-8.28-12.02-1.44-2.1c-2.97-4.3-6.32-4.67-9.4-2.55-3.09,2.13-3.93,5.39-.96,9.7l9.73,14.13-8.28,5.7-9.74-14.13c-6.31-9.16-4.13-17.58,3.93-23.12,8.05-5.54,16.65-4.64,23,4.58l1.44,2.1,8.28,12.02,1.44,2.1c2.97,4.3,6.32,4.68,9.4,2.55,3.1-2.12,3.94-5.39.97-9.69l-9.73-14.13,8.28-5.7,9.73,14.13c6.31,9.15,4.13,17.57-3.92,23.11Z"/>
  <path class="cls-1" d="M101.15,640.49c-8.06,5.54-16.66,4.64-23.01-4.59l-1.44-2.09-8.28-12.04-1.44-2.09c-2.97-4.31-6.32-4.68-9.4-2.56-3.09,2.13-3.93,5.4-.97,9.7l9.74,14.13-8.28,5.7-9.74-14.13c-6.31-9.15-4.13-17.57,3.93-23.12,8.05-5.54,16.65-4.64,23,4.58l1.44,2.1,8.28,12.02,1.44,2.1c2.97,4.31,6.32,4.68,9.4,2.55,3.1-2.12,3.94-5.39.97-9.69l-9.73-14.13,8.28-5.7,9.73,14.13c6.31,9.15,4.13,17.57-3.92,23.12Z"/>
  <path class="cls-1" d="M76.21,684.18c-8.05,5.54-16.65,4.63-23-4.59l-1.44-2.1-8.28-12.02-1.44-2.1c-2.97-4.3-6.32-4.67-9.41-2.55-3.09,2.13-3.93,5.39-.96,9.7l9.73,14.13-8.28,5.7-9.73-14.13c-6.31-9.16-4.14-17.57,3.92-23.12,8.06-5.54,16.66-4.64,23.01,4.58l1.44,2.1,8.28,12.02,1.44,2.1c2.96,4.3,6.32,4.68,9.4,2.55,3.09-2.12,3.93-5.39.96-9.69l-9.73-14.13,8.28-5.7,9.73,14.13c6.32,9.15,4.14,17.57-3.92,23.12Z"/>
  <path class="cls-1" d="M151.83,553.3c-8.06,5.55-16.66,4.64-23.01-4.58l-1.44-2.1-8.28-12.02-1.44-2.1c-2.97-4.3-6.32-4.68-9.4-2.55-3.09,2.12-3.93,5.39-.97,9.69l9.74,14.13-8.29,5.71-9.73-14.13c-6.31-9.16-4.13-17.58,3.93-23.12,8.05-5.55,16.65-4.64,23,4.58l1.44,2.1,8.28,12.02,1.44,2.1c2.97,4.3,6.32,4.67,9.4,2.55,3.1-2.13,3.93-5.39.97-9.7l-9.73-14.13,8.28-5.7,9.73,14.13c6.31,9.16,4.13,17.58-3.92,23.12Z"/>
  <path class="cls-1" d="M126.89,596.98c-8.06,5.54-16.66,4.64-23-4.58l-1.44-2.1-8.28-12.03-1.44-2.09c-2.97-4.31-6.32-4.68-9.41-2.55-3.09,2.12-3.93,5.39-.96,9.69l9.73,14.13-8.28,5.7-9.73-14.13c-6.31-9.15-4.14-17.57,3.92-23.12,8.06-5.54,16.66-4.64,23.01,4.59l1.44,2.1,8.28,12.02,1.44,2.1c2.96,4.3,6.32,4.67,9.4,2.55,3.09-2.13,3.93-5.4.96-9.7l-9.73-14.13,8.28-5.7,9.73,14.13c6.31,9.16,4.14,17.57-3.92,23.12Z"/>
  <path class="cls-1" d="M94.16,578.27h0s8.29,12.03,8.29,12.03l-8.28-12.03Z"/>
  <path class="cls-1" d="M53.04,595.08c-8.05,5.55-16.65,4.64-23-4.58l-1.44-2.1-8.28-12.02-1.44-2.1c-2.97-4.3-6.32-4.68-9.4-2.55-3.1,2.12-3.94,5.39-.97,9.69l9.73,14.13-8.28,5.71-9.73-14.13c-6.31-9.16-4.13-17.58,3.92-23.12,8.06-5.55,16.66-4.64,23.01,4.58l1.44,2.1,8.28,12.02,1.44,2.1c2.96,4.3,6.32,4.68,9.4,2.55,3.09-2.13,3.93-5.39.97-9.7l-9.74-14.13,8.28-5.7,9.73,14.13c6.32,9.16,4.14,17.58-3.92,23.12Z"/>
  <path class="cls-1" d="M28.11,638.76c-8.06,5.55-16.66,4.64-23.01-4.58l-1.44-2.1-8.28-12.02-1.44-2.1c-2.96-4.3-6.32-4.68-9.4-2.55-3.09,2.12-3.93,5.39-.96,9.69l9.73,14.13-8.28,5.71-9.73-14.13c-6.32-9.16-4.14-17.58,3.92-23.12,8.05-5.55,16.65-4.64,23,4.58l1.44,2.1,8.28,12.02,1.44,2.1c2.97,4.3,6.32,4.67,9.41,2.55,3.09-2.13,3.93-5.39.96-9.7l-9.73-14.13,8.28-5.7,9.73,14.13c6.31,9.16,4.14,17.58-3.92,23.12Z"/>
  <path class="cls-1" d="M103.72,507.89c-8.05,5.54-16.65,4.64-23-4.59l-1.44-2.1-8.28-12.02-1.44-2.1c-2.97-4.3-6.32-4.67-9.41-2.55-3.09,2.13-3.93,5.39-.96,9.7l9.73,14.13-8.28,5.7-9.73-14.13c-6.31-9.16-4.14-17.57,3.92-23.12,8.06-5.54,16.66-4.64,23.01,4.58l1.44,2.1,8.28,12.02,1.44,2.1c2.96,4.3,6.32,4.68,9.4,2.55,3.09-2.12,3.93-5.39.96-9.69l-9.73-14.13,8.28-5.7,9.73,14.13c6.32,9.15,4.14,17.57-3.92,23.12Z"/>
  <path class="cls-1" d="M78.79,551.57c-8.06,5.55-16.66,4.64-23.01-4.58l-1.44-2.1-8.28-12.02-1.44-2.1c-2.96-4.3-6.32-4.67-9.4-2.55-3.09,2.13-3.93,5.39-.96,9.7l9.73,14.13-8.28,5.7-9.73-14.13c-6.32-9.16-4.14-17.58,3.92-23.12,8.05-5.54,16.65-4.64,23,4.58l1.44,2.1,8.28,12.02,1.44,2.1c2.97,4.3,6.32,4.68,9.4,2.55,3.1-2.12,3.94-5.39.97-9.69l-9.73-14.13,8.28-5.7,9.73,14.13c6.31,9.15,4.13,17.57-3.92,23.11Z"/>
  <path class="cls-1" d="M275.19,466.04c-8.06,5.55-16.66,4.64-23.01-4.58l-9.73-14.13-1.44-2.1c-2.96-4.3-6.32-4.68-9.4-2.55-3.09,2.12-3.93,5.39-.96,9.7l9.73,14.13-8.28,5.7-9.73-14.13c-6.31-9.16-4.14-17.58,3.92-23.12,8.06-5.55,16.66-4.64,23,4.58l1.44,2.1,8.29,12.02,1.44,2.1c2.96,4.3,6.31,4.68,9.4,2.55,3.09-2.12,3.93-5.39.96-9.69l-9.73-14.13,8.28-5.71,9.73,14.13c6.31,9.16,4.14,17.58-3.92,23.12Z"/>
  <path class="cls-1" d="M250.26,509.72c-8.06,5.55-16.66,4.64-23.01-4.58l-1.44-2.1-8.28-12.02-1.44-2.1c-2.97-4.3-6.32-4.68-9.4-2.55-3.1,2.12-3.93,5.39-.97,9.69l9.73,14.13-8.28,5.71-9.73-14.13c-6.31-9.16-4.13-17.58,3.92-23.12,8.06-5.55,16.66-4.64,23.01,4.58l1.44,2.1,8.28,12.02,1.44,2.1c2.97,4.3,6.32,4.68,9.4,2.55,3.09-2.13,3.93-5.39.97-9.7l-9.73-14.13,8.27-5.7,9.74,14.13c6.31,9.16,4.13,17.58-3.92,23.12Z"/>
  <path class="cls-1" d="M301.41,354.45l8.28,12.04h0s-8.29-12.04-8.29-12.04Z"/>
  <path class="cls-1" d="M325.87,378.86c-8.06,5.54-16.66,4.64-23.01-4.58l-1.44-2.1-8.28-12.02-1.44-2.1c-2.96-4.31-6.32-4.68-9.4-2.56-3.09,2.13-3.93,5.4-.96,9.7l9.73,14.13-8.28,5.7-9.73-14.13c-6.32-9.15-4.14-17.57,3.92-23.12,8.06-5.54,16.65-4.64,23,4.58l1.44,2.1,8.28,12.04,1.44,2.09c2.97,4.31,6.32,4.68,9.41,2.56,3.09-2.13,3.93-5.4.96-9.7l-9.73-14.13,8.28-5.7,9.73,14.13c6.31,9.15,4.14,17.57-3.92,23.12Z"/>
  <path class="cls-1" d="M300.93,422.54c-8.05,5.54-16.65,4.64-23-4.59l-1.44-2.1-8.28-12.02-1.44-2.1c-2.97-4.3-6.32-4.67-9.4-2.55-3.1,2.13-3.93,5.39-.97,9.7l9.73,14.13-8.28,5.7-9.73-14.13c-6.31-9.16-4.13-17.57,3.92-23.12,8.06-5.54,16.66-4.64,23.01,4.58l1.44,2.1,8.28,12.02,1.44,2.1c2.97,4.3,6.32,4.68,9.4,2.55,3.09-2.12,3.93-5.39.97-9.69l-9.74-14.13,8.28-5.7,9.74,14.13c6.31,9.15,4.13,17.57-3.93,23.12Z"/>
  <path class="cls-1" d="M174.59,639.63c-8.06,5.54-16.66,4.64-23.01-4.58l-1.44-2.1-8.28-12.02-1.44-2.1c-2.97-4.3-6.32-4.68-9.4-2.55-3.09,2.12-3.93,5.39-.97,9.69l9.74,14.13-8.29,5.7-9.73-14.13c-6.31-9.15-4.13-17.57,3.92-23.11,8.06-5.55,16.66-4.64,23.01,4.58l1.44,2.1,8.28,12.02,1.44,2.1c2.97,4.3,6.32,4.67,9.4,2.55,3.09-2.13,3.93-5.4.97-9.7l-9.73-14.13,8.28-5.7,9.73,14.13c6.31,9.16,4.13,17.58-3.92,23.12Z"/>
  <path class="cls-1" d="M149.65,683.31c-8.06,5.54-16.66,4.64-23-4.58l-1.44-2.1-8.28-12.04-1.44-2.09c-2.97-4.31-6.32-4.68-9.41-2.55-3.09,2.12-3.93,5.39-.96,9.69l9.73,14.13-8.28,5.7-9.73-14.13c-6.31-9.15-4.14-17.57,3.92-23.12,8.06-5.54,16.66-4.64,23.01,4.59l1.43,2.09,8.29,12.03,1.44,2.09c2.96,4.31,6.31,4.68,9.4,2.56,3.09-2.13,3.93-5.4.96-9.7l-9.73-14.13,8.28-5.7,9.73,14.13c6.31,9.16,4.14,17.57-3.92,23.12Z"/>
  <path class="cls-1" d="M116.92,664.6h0s8.29,12.04,8.29,12.04l-8.28-12.04Z"/>
  <path class="cls-1" d="M225.27,552.44c-8.06,5.55-16.66,4.64-23.01-4.58l-1.44-2.1-8.28-12.02-1.44-2.1c-2.97-4.3-6.32-4.67-9.4-2.55-3.1,2.13-3.93,5.39-.97,9.7l9.73,14.13-8.28,5.7-9.73-14.13c-6.31-9.16-4.13-17.58,3.92-23.12,8.06-5.55,16.66-4.64,23.01,4.58l1.44,2.1,8.28,12.02,1.44,2.1c2.97,4.3,6.32,4.68,9.4,2.55,3.09-2.12,3.93-5.39.97-9.69l-9.73-14.13,8.27-5.7,9.74,14.13c6.31,9.15,4.13,17.57-3.92,23.11Z"/>
  <path class="cls-1" d="M200.33,596.12c-8.06,5.55-16.66,4.64-23.01-4.58l-9.73-14.13-1.44-2.1c-2.96-4.3-6.32-4.68-9.4-2.55-3.09,2.12-3.93,5.39-.96,9.7l9.73,14.13-8.28,5.7-9.73-14.13c-6.31-9.16-4.14-17.58,3.92-23.12,8.06-5.55,16.66-4.64,23,4.58l1.44,2.1,8.29,12.02,1.44,2.1c2.96,4.3,6.31,4.68,9.4,2.55,3.09-2.12,3.93-5.39.96-9.69l-9.73-14.13,8.28-5.71,9.73,14.13c6.31,9.16,4.14,17.58-3.92,23.12Z"/>
  <path class="cls-1" d="M8.42,553.14c-8.06,5.54-16.66,4.63-23.01-4.59l-1.44-2.1-8.28-12.02-1.44-2.1c-2.97-4.3-6.32-4.67-9.4-2.55-3.09,2.13-3.93,5.39-.96,9.7l9.73,14.13-8.28,5.7-9.74-14.13c-6.31-9.16-4.13-17.57,3.93-23.12,8.05-5.54,16.65-4.64,23,4.58l1.44,2.1,8.28,12.02,1.44,2.1c2.97,4.3,6.32,4.68,9.4,2.55,3.1-2.12,3.94-5.39.97-9.69l-9.73-14.13,8.28-5.7,9.73,14.13c6.31,9.15,4.13,17.57-3.92,23.12Z"/>
  <path class="cls-1" d="M373.05,421.79c-8.05,5.54-16.65,4.64-23-4.58l-1.44-2.1-8.28-12.02-1.44-2.1c-2.97-4.31-6.32-4.68-9.41-2.56-3.09,2.13-3.93,5.4-.96,9.7l9.73,14.13-8.28,5.7-9.73-14.13c-6.31-9.15-4.14-17.57,3.92-23.12,8.06-5.54,16.66-4.64,23.01,4.59l1.44,2.09,8.28,12.04,1.44,2.09c2.96,4.31,6.32,4.68,9.4,2.56,3.09-2.13,3.93-5.4.96-9.7l-9.73-14.13,8.28-5.7,9.73,14.13c6.32,9.16,4.14,17.57-3.92,23.12Z"/>
  <path class="cls-1" d="M348.11,465.47c-8.06,5.54-16.66,4.64-23.01-4.58l-1.44-2.1-8.28-12.02-1.44-2.1c-2.96-4.31-6.32-4.68-9.4-2.56-3.09,2.13-3.93,5.4-.96,9.7l9.73,14.13-8.28,5.7-9.73-14.13c-6.32-9.15-4.14-17.57,3.92-23.12,8.05-5.54,16.65-4.64,23,4.58l1.44,2.1,8.28,12.02,1.44,2.1c2.97,4.31,6.32,4.68,9.4,2.56,3.1-2.13,3.94-5.4.97-9.7l-9.73-14.13,8.28-5.7,9.73,14.13c6.31,9.15,4.14,17.57-3.92,23.12Z"/>
  <path class="cls-1" d="M398.79,378.28c-8.06,5.55-16.66,4.64-23.01-4.58l-1.44-2.1-8.28-12.02-1.44-2.1c-2.97-4.3-6.32-4.68-9.4-2.55-3.09,2.12-3.93,5.39-.96,9.69l9.73,14.13-8.28,5.71-9.74-14.13c-6.31-9.16-4.13-17.58,3.93-23.12,8.05-5.55,16.65-4.64,23,4.58l1.44,2.1,8.28,12.02,1.44,2.1c2.97,4.3,6.32,4.68,9.4,2.55,3.1-2.13,3.94-5.39.97-9.7l-9.73-14.13,8.28-5.7,9.73,14.13c6.31,9.16,4.13,17.58-3.92,23.12Z"/>
  <path class="cls-1" d="M420.07,466.43c-8.05,5.54-16.65,4.63-23-4.59l-1.44-2.1-8.28-12.02-1.44-2.1c-2.97-4.3-6.32-4.67-9.4-2.55-3.1,2.13-3.93,5.39-.97,9.7l9.73,14.13-8.28,5.7-9.73-14.13c-6.31-9.16-4.13-17.57,3.92-23.12,8.06-5.54,16.66-4.64,23.01,4.58l1.44,2.1,8.28,12.02,1.44,2.1c2.97,4.3,6.32,4.68,9.4,2.55,3.09-2.12,3.93-5.39.97-9.69l-9.74-14.13,8.28-5.7,9.74,14.13c6.31,9.15,4.13,17.57-3.93,23.12Z"/>
  <path class="cls-1" d="M370.68,485.7l8.28,12.04h0s-8.29-12.04-8.29-12.04Z"/>
  <path class="cls-1" d="M395.14,510.1c-8.06,5.55-16.66,4.64-23.01-4.58l-9.73-14.13-1.44-2.1c-2.96-4.3-6.32-4.67-9.4-2.55-3.09,2.13-3.93,5.39-.96,9.7l9.73,14.13-8.28,5.7-9.73-14.13c-6.32-9.16-4.14-17.58,3.92-23.12,8.06-5.54,16.65-4.64,23,4.58l1.44,2.1,8.28,12.04,1.44,2.09c2.97,4.3,6.32,4.68,9.41,2.55,3.09-2.12,3.93-5.39.96-9.69l-9.73-14.13,8.28-5.7,9.73,14.13c6.31,9.15,4.14,17.57-3.92,23.11Z"/>
  <path class="cls-1" d="M470.75,379.24c-8.05,5.54-16.65,4.64-23-4.58l-1.44-2.1-8.28-12.02-1.44-2.1c-2.97-4.3-6.32-4.68-9.4-2.55-3.1,2.12-3.94,5.39-.97,9.69l9.73,14.13-8.28,5.7-9.73-14.13c-6.31-9.15-4.13-17.57,3.92-23.11,8.06-5.55,16.66-4.65,23.01,4.58l1.44,2.1,8.28,12.02,1.44,2.1c2.97,4.3,6.32,4.67,9.4,2.55,3.09-2.13,3.93-5.4.97-9.7l-9.74-14.13,8.28-5.7,9.73,14.13c6.32,9.16,4.14,17.58-3.92,23.12Z"/>
  <path class="cls-1" d="M445.81,422.92c-8.06,5.54-16.66,4.64-23.01-4.58l-1.44-2.1-8.28-12.02-1.44-2.1c-2.96-4.31-6.32-4.68-9.4-2.55-3.09,2.12-3.93,5.39-.96,9.69l9.73,14.13-8.28,5.7-9.73-14.13c-6.32-9.15-4.14-17.57,3.92-23.12,8.05-5.54,16.65-4.64,23,4.59l1.44,2.09,8.28,12.04,1.44,2.09c2.97,4.31,6.32,4.68,9.41,2.56,3.09-2.13,3.93-5.4.96-9.7l-9.73-14.13,8.28-5.7,9.73,14.13c6.31,9.16,4.14,17.57-3.92,23.12Z"/>
  <path class="cls-1" d="M515.65,421.26c-8.06,5.55-16.66,4.64-23.01-4.58l-1.44-2.1-8.28-12.02-1.44-2.1c-2.97-4.3-6.32-4.68-9.4-2.55-3.1,2.13-3.93,5.39-.97,9.7l9.73,14.13-8.28,5.7-9.73-14.13c-6.31-9.16-4.13-17.58,3.92-23.12,8.06-5.55,16.66-4.64,23.01,4.58l1.44,2.1,8.28,12.02,1.44,2.1c2.97,4.3,6.32,4.68,9.4,2.55,3.09-2.12,3.93-5.39.97-9.69l-9.73-14.13,8.28-5.71,9.73,14.13c6.31,9.16,4.13,17.58-3.92,23.12Z"/>
  <path class="cls-1" d="M490.7,464.94c-8.06,5.55-16.66,4.64-23.01-4.58l-9.73-14.13-1.44-2.1c-2.96-4.3-6.32-4.68-9.4-2.55-3.09,2.12-3.93,5.39-.96,9.69l9.73,14.13-8.28,5.71-9.73-14.13c-6.31-9.16-4.14-17.58,3.92-23.12,8.06-5.55,16.66-4.64,23,4.58l1.44,2.1,8.29,12.02,1.44,2.1c2.96,4.3,6.31,4.68,9.4,2.55,3.09-2.12,3.93-5.39.96-9.69l-9.73-14.13,8.28-5.71,9.73,14.13c6.31,9.16,4.14,17.58-3.92,23.12Z"/>
  <path class="cls-1" d="M516.92,353.35l8.28,12.04h0s-8.29-12.04-8.29-12.04Z"/>
  <path class="cls-1" d="M541.38,377.76c-8.06,5.54-16.66,4.64-23.01-4.58l-9.73-14.13-1.44-2.1c-2.96-4.31-6.32-4.68-9.4-2.56-3.09,2.13-3.93,5.4-.96,9.7l9.73,14.13-8.28,5.7-9.73-14.13c-6.31-9.15-4.14-17.57,3.92-23.12,8.06-5.54,16.66-4.64,23,4.58l1.44,2.1,8.28,12.04,1.44,2.09c2.97,4.31,6.32,4.68,9.41,2.55,3.09-2.12,3.93-5.39.96-9.69l-9.73-14.13,8.28-5.7,9.73,14.13c6.31,9.15,4.14,17.57-3.92,23.12Z"/>
  <path class="cls-1" d="M562.67,465.9c-8.06,5.55-16.66,4.64-23.01-4.58l-1.44-2.1-8.28-12.02-1.44-2.1c-2.97-4.3-6.32-4.68-9.4-2.55-3.09,2.12-3.93,5.39-.97,9.69l9.74,14.13-8.28,5.71-9.74-14.13c-6.31-9.16-4.13-17.58,3.93-23.12,8.05-5.55,16.65-4.64,23,4.58l1.44,2.1,8.28,12.02,1.44,2.1c2.97,4.3,6.32,4.67,9.4,2.55,3.1-2.13,3.93-5.39.97-9.7l-9.73-14.13,8.28-5.7,9.73,14.13c6.31,9.16,4.13,17.58-3.92,23.12Z"/>
  <path class="cls-1" d="M537.73,509.58c-8.05,5.54-16.65,4.64-23-4.58l-1.44-2.1-8.28-12.04-1.44-2.09c-2.97-4.3-6.32-4.68-9.41-2.55-3.09,2.12-3.93,5.39-.96,9.69l9.73,14.13-8.28,5.7-9.73-14.13c-6.31-9.15-4.14-17.57,3.92-23.11,8.06-5.55,16.66-4.65,23.01,4.58l1.44,2.1,8.28,12.02,1.44,2.1c2.96,4.3,6.32,4.67,9.4,2.55,3.09-2.13,3.93-5.4.96-9.7l-9.73-14.13,8.28-5.7,9.73,14.13c6.32,9.16,4.14,17.58-3.92,23.12Z"/>
  <path class="cls-1" d="M505,490.87h0s8.29,12.04,8.29,12.04l-8.28-12.04Z"/>
  <path class="cls-1" d="M613.35,378.71c-8.06,5.55-16.66,4.64-23.01-4.58l-1.44-2.1-8.28-12.02-1.44-2.1c-2.97-4.3-6.32-4.67-9.4-2.55-3.09,2.13-3.93,5.39-.97,9.7l9.74,14.13-8.29,5.7-9.73-14.13c-6.31-9.16-4.13-17.58,3.93-23.12,8.05-5.54,16.65-4.64,23,4.58l1.44,2.1,8.28,12.02,1.44,2.1c2.97,4.3,6.32,4.68,9.4,2.55,3.09-2.12,3.93-5.39.97-9.69l-9.73-14.13,8.28-5.7,9.73,14.13c6.31,9.15,4.13,17.57-3.92,23.11Z"/>
  <path class="cls-1" d="M588.4,422.39c-8.06,5.55-16.66,4.64-23-4.58l-1.44-2.1-8.28-12.04-1.44-2.09c-2.97-4.3-6.32-4.67-9.41-2.55-3.09,2.13-3.93,5.39-.96,9.7l9.73,14.13-8.28,5.7-9.73-14.13c-6.31-9.16-4.14-17.58,3.92-23.12,8.06-5.55,16.66-4.64,23.01,4.58l1.44,2.1,8.28,12.02,1.44,2.1c2.96,4.3,6.32,4.68,9.4,2.55,3.09-2.12,3.93-5.39.96-9.69l-9.73-14.13,8.28-5.7,9.73,14.13c6.31,9.15,4.14,17.57-3.92,23.11Z"/>
  <path class="cls-1" d="M555.68,403.68h0s8.29,12.04,8.29,12.04l-8.28-12.04Z"/>
  <path class="cls-1" d="M462.18,640.27c-8.06,5.54-16.66,4.64-23-4.59l-1.44-2.1-8.28-12.04-1.44-2.09c-2.97-4.3-6.32-4.67-9.41-2.55-3.09,2.13-3.93,5.39-.96,9.7l9.73,14.13-8.28,5.7-9.73-14.13c-6.31-9.16-4.14-17.57,3.92-23.12,8.06-5.54,16.66-4.64,23.01,4.58l9.73,14.13,1.44,2.1c2.96,4.3,6.32,4.68,9.4,2.55,3.09-2.12,3.93-5.39.96-9.69l-9.73-14.13,8.28-5.7,9.73,14.13c6.31,9.15,4.14,17.57-3.92,23.12Z"/>
  <path class="cls-1" d="M429.46,621.55h0s8.29,12.04,8.29,12.04l-8.28-12.04Z"/>
  <path class="cls-1" d="M437.25,683.95c-8.06,5.55-16.66,4.64-23.01-4.58l-1.44-2.1-8.28-12.02-1.44-2.1c-2.97-4.3-6.32-4.67-9.4-2.55-3.09,2.13-3.93,5.39-.97,9.7l9.74,14.13-8.29,5.7-9.73-14.13c-6.31-9.16-4.13-17.58,3.93-23.12,8.05-5.54,16.65-4.64,23,4.58l1.44,2.1,8.28,12.02,1.44,2.1c2.97,4.3,6.32,4.68,9.4,2.55,3.09-2.12,3.93-5.39.97-9.69l-9.73-14.13,8.28-5.7,9.73,14.13c6.31,9.15,4.13,17.57-3.92,23.11Z"/>
  <path class="cls-1" d="M512.86,553.08c-8.06,5.54-16.66,4.64-23.01-4.58l-9.73-14.13-1.44-2.1c-2.96-4.3-6.32-4.68-9.4-2.55-3.09,2.12-3.93,5.39-.96,9.69l9.73,14.13-8.28,5.7-9.73-14.13c-6.31-9.15-4.14-17.57,3.92-23.11,8.06-5.55,16.66-4.64,23,4.58l1.44,2.1,8.29,12.02,1.44,2.1c2.96,4.3,6.31,4.67,9.4,2.55,3.09-2.13,3.93-5.39.96-9.7l-9.73-14.13,8.28-5.7,9.73,14.13c6.31,9.16,4.14,17.58-3.92,23.12Z"/>
  <path class="cls-1" d="M487.93,596.77c-8.06,5.54-16.66,4.64-23.01-4.58l-1.44-2.1-8.28-12.02-1.44-2.1c-2.97-4.31-6.32-4.68-9.4-2.55-3.09,2.12-3.93,5.39-.97,9.69l9.73,14.13-8.28,5.7-9.73-14.13c-6.31-9.15-4.13-17.57,3.92-23.12,8.06-5.54,16.66-4.64,23.01,4.59l1.44,2.1,8.28,12.02,1.44,2.1c2.97,4.3,6.32,4.67,9.4,2.55,3.09-2.13,3.93-5.4.97-9.7l-9.73-14.13,8.28-5.7,9.73,14.13c6.31,9.16,4.13,17.57-3.92,23.12Z"/>
  <path class="cls-1" d="M414.08,594.86c-8.06,5.55-16.66,4.64-23.01-4.58l-1.44-2.1-8.28-12.02-1.44-2.1c-2.97-4.3-6.32-4.68-9.4-2.55-3.09,2.12-3.93,5.39-.96,9.69l9.73,14.13-8.28,5.71-9.74-14.13c-6.31-9.16-4.13-17.58,3.93-23.12,8.05-5.55,16.65-4.64,23,4.58l1.44,2.1,8.28,12.02,1.44,2.1c2.97,4.3,6.32,4.67,9.4,2.55,3.1-2.13,3.94-5.39.97-9.7l-9.73-14.13,8.28-5.7,9.73,14.13c6.31,9.16,4.13,17.58-3.92,23.12Z"/>
  <path class="cls-1" d="M389.14,638.54c-8.05,5.54-16.65,4.64-23-4.58l-1.44-2.1-8.28-12.02-1.44-2.1c-2.97-4.3-6.32-4.68-9.41-2.55-3.09,2.12-3.93,5.39-.96,9.69l9.73,14.13-8.28,5.7-9.73-14.13c-6.31-9.15-4.14-17.57,3.92-23.11,8.06-5.55,16.66-4.64,23.01,4.58l1.44,2.1,8.28,12.02,1.44,2.1c2.96,4.3,6.32,4.67,9.4,2.55,3.09-2.13,3.93-5.39.96-9.7l-9.73-14.13,8.28-5.7,9.73,14.13c6.32,9.16,4.14,17.58-3.92,23.12Z"/>
  <path class="cls-1" d="M464.76,507.68c-8.06,5.54-16.66,4.63-23.01-4.59l-1.44-2.1-8.28-12.02-1.44-2.1c-2.97-4.3-6.32-4.67-9.4-2.55-3.09,2.13-3.93,5.39-.97,9.7l9.74,14.13-8.28,5.7-9.74-14.13c-6.31-9.16-4.13-17.57,3.93-23.12,8.05-5.54,16.65-4.64,23,4.58l1.44,2.1,8.28,12.02,1.44,2.1c2.97,4.3,6.32,4.68,9.4,2.55,3.1-2.12,3.93-5.39.97-9.69l-9.73-14.13,8.28-5.7,9.73,14.13c6.31,9.15,4.13,17.57-3.92,23.12Z"/>
  <path class="cls-1" d="M439.82,551.35c-8.05,5.55-16.65,4.64-23-4.58l-1.44-2.1-8.28-12.02-1.44-2.1c-2.97-4.3-6.32-4.67-9.41-2.55-3.09,2.13-3.93,5.39-.96,9.7l9.73,14.13-8.28,5.7-9.73-14.13c-6.31-9.16-4.14-17.58,3.92-23.12,8.06-5.55,16.66-4.64,23.01,4.58l1.44,2.1,8.28,12.02,1.44,2.1c2.96,4.3,6.32,4.68,9.4,2.55,3.09-2.12,3.93-5.39.96-9.69l-9.73-14.13,8.28-5.7,9.73,14.13c6.32,9.15,4.14,17.57-3.92,23.11Z"/>
  <path class="cls-1" d="M636.22,465.82c-8.05,5.55-16.65,4.64-23-4.58l-1.44-2.1-8.28-12.02-1.44-2.1c-2.97-4.3-6.32-4.68-9.4-2.55-3.1,2.12-3.93,5.39-.97,9.69l9.73,14.13-8.28,5.71-9.73-14.13c-6.31-9.16-4.13-17.58,3.92-23.12,8.06-5.55,16.66-4.64,23.01,4.58l1.44,2.1,8.28,12.02,1.44,2.1c2.97,4.3,6.32,4.68,9.4,2.55,3.09-2.13,3.93-5.39.97-9.7l-9.74-14.13,8.28-5.7,9.74,14.13c6.31,9.16,4.13,17.58-3.93,23.12Z"/>
  <path class="cls-1" d="M586.83,485.1l8.28,12.03h0s-8.29-12.03-8.29-12.03Z"/>
  <path class="cls-1" d="M611.29,509.5c-8.06,5.55-16.66,4.64-23.01-4.58l-1.44-2.1-8.28-12.02-1.44-2.1c-2.96-4.3-6.32-4.68-9.4-2.55-3.09,2.12-3.93,5.39-.96,9.69l9.73,14.13-8.28,5.71-9.73-14.13c-6.32-9.16-4.14-17.58,3.92-23.12,8.05-5.55,16.65-4.64,23,4.58l1.44,2.1,8.28,12.03,1.44,2.09c2.97,4.3,6.32,4.67,9.41,2.55,3.09-2.13,3.93-5.39.96-9.7l-9.73-14.13,8.28-5.7,9.73,14.13c6.31,9.16,4.14,17.58-3.92,23.12Z"/>
  <path class="cls-1" d="M511.16,615.01l8.28,12.04h0s-8.29-12.04-8.29-12.04Z"/>
  <path class="cls-1" d="M535.62,639.41c-8.06,5.54-16.66,4.64-23.01-4.58l-9.73-14.13-1.44-2.1c-2.96-4.31-6.32-4.68-9.4-2.55-3.09,2.12-3.93,5.39-.96,9.69l9.73,14.13-8.28,5.7-9.73-14.13c-6.32-9.15-4.14-17.57,3.92-23.12,8.06-5.54,16.66-4.64,23,4.59l1.44,2.1,8.28,12.04,1.44,2.09c2.97,4.3,6.32,4.67,9.41,2.55,3.09-2.13,3.93-5.4.96-9.7l-9.73-14.13,8.28-5.7,9.73,14.13c6.31,9.16,4.14,17.57-3.92,23.12Z"/>
  <path class="cls-1" d="M510.68,683.09c-8.05,5.54-16.65,4.64-23-4.58l-1.44-2.1-8.28-12.02-1.44-2.1c-2.97-4.31-6.32-4.68-9.4-2.56-3.1,2.13-3.93,5.4-.97,9.7l9.73,14.13-8.28,5.7-9.73-14.13c-6.31-9.15-4.13-17.57,3.92-23.12,8.06-5.54,16.66-4.64,23.01,4.59l1.44,2.09,8.28,12.03,1.44,2.09c2.97,4.31,6.32,4.68,9.4,2.56,3.09-2.13,3.93-5.4.97-9.7l-9.73-14.13,8.27-5.7,9.74,14.13c6.31,9.15,4.13,17.57-3.93,23.12Z"/>
  <path class="cls-1" d="M586.3,552.22c-8.06,5.55-16.66,4.64-23.01-4.58l-1.44-2.1-8.28-12.02-1.44-2.1c-2.96-4.3-6.32-4.68-9.4-2.55-3.09,2.12-3.93,5.39-.96,9.7l9.73,14.13-8.28,5.7-9.73-14.13c-6.32-9.16-4.14-17.58,3.92-23.12,8.05-5.55,16.65-4.64,23,4.58l1.44,2.1,8.28,12.02,1.44,2.1c2.97,4.3,6.32,4.68,9.41,2.55,3.09-2.12,3.93-5.39.96-9.69l-9.73-14.13,8.28-5.71,9.73,14.13c6.31,9.16,4.14,17.58-3.92,23.12Z"/>
  <path class="cls-1" d="M561.35,595.9c-8.05,5.55-16.65,4.64-23-4.58l-1.44-2.1-8.28-12.02-1.44-2.1c-2.97-4.3-6.32-4.68-9.4-2.55-3.1,2.12-3.93,5.39-.97,9.69l9.73,14.13-8.28,5.71-9.73-14.13c-6.31-9.16-4.13-17.58,3.92-23.12,8.06-5.55,16.66-4.64,23.01,4.58l1.44,2.1,8.28,12.02,1.44,2.1c2.97,4.3,6.32,4.68,9.4,2.55,3.09-2.12,3.93-5.39.97-9.7l-9.74-14.13,8.28-5.7,9.74,14.13c6.31,9.16,4.13,17.58-3.93,23.12Z"/>
  <path class="cls-1" d="M318.77,640.1c-8.06,5.55-16.66,4.64-23-4.58l-1.44-2.1-8.28-12.04-1.44-2.09c-2.97-4.3-6.32-4.68-9.41-2.55-3.09,2.12-3.93,5.39-.96,9.69l9.73,14.13-8.28,5.7-9.73-14.13c-6.31-9.15-4.14-17.57,3.92-23.11,8.06-5.55,16.66-4.64,23.01,4.58l1.44,2.1,8.28,12.02,1.44,2.1c2.96,4.3,6.32,4.67,9.4,2.55,3.09-2.13,3.93-5.39.96-9.7l-9.73-14.13,8.28-5.7,9.73,14.13c6.32,9.16,4.14,17.58-3.92,23.12Z"/>
  <path class="cls-1" d="M286.04,621.39h0s8.29,12.04,8.29,12.04l-8.28-12.04Z"/>
  <path class="cls-1" d="M293.84,683.79c-8.06,5.54-16.66,4.64-23.01-4.58l-1.44-2.1-8.28-12.02-1.44-2.1c-2.97-4.31-6.32-4.68-9.4-2.55-3.09,2.12-3.93,5.39-.97,9.69l9.74,14.13-8.28,5.7-9.74-14.13c-6.31-9.15-4.13-17.57,3.93-23.12,8.05-5.54,16.65-4.64,23,4.59l1.44,2.1,8.28,12.02,1.44,2.1c2.97,4.3,6.32,4.67,9.4,2.55,3.1-2.13,3.94-5.4.97-9.7l-9.73-14.13,8.28-5.7,9.73,14.13c6.31,9.16,4.13,17.57-3.92,23.12Z"/>
  <path class="cls-1" d="M369.45,552.91c-8.06,5.55-16.66,4.64-23-4.58l-1.44-2.1-8.28-12.04-1.44-2.09c-2.97-4.3-6.32-4.67-9.41-2.55-3.09,2.13-3.93,5.39-.96,9.7l9.73,14.13-8.28,5.7-9.73-14.13c-6.31-9.16-4.14-17.58,3.92-23.12,8.06-5.54,16.66-4.64,23.01,4.58l9.73,14.13,1.44,2.1c2.96,4.3,6.32,4.68,9.4,2.55,3.09-2.12,3.93-5.39.96-9.69l-9.73-14.13,8.28-5.7,9.73,14.13c6.31,9.15,4.14,17.57-3.92,23.11Z"/>
  <path class="cls-1" d="M336.72,534.2h0s8.29,12.04,8.29,12.04l-8.28-12.04Z"/>
  <path class="cls-1" d="M344.51,596.59c-8.06,5.55-16.66,4.64-23.01-4.58l-1.44-2.1-8.28-12.02-1.44-2.1c-2.97-4.3-6.32-4.68-9.4-2.55s-3.93,5.39-.97,9.7l9.74,14.13-8.29,5.7-9.73-14.13c-6.31-9.16-4.13-17.58,3.93-23.12,8.05-5.55,16.65-4.64,23,4.58l1.44,2.1,8.28,12.02,1.44,2.1c2.97,4.3,6.32,4.68,9.4,2.55,3.1-2.12,3.93-5.39.97-9.69l-9.73-14.13,8.28-5.71,9.73,14.13c6.31,9.16,4.13,17.58-3.92,23.12Z"/>
  <path class="cls-1" d="M272.15,595.14c-8.05,5.55-16.65,4.64-23-4.58l-1.44-2.1-8.28-12.02-1.44-2.1c-2.97-4.3-6.32-4.68-9.41-2.55-3.09,2.12-3.93,5.39-.96,9.7l9.73,14.13-8.28,5.7-9.73-14.13c-6.31-9.16-4.14-17.58,3.92-23.12,8.06-5.55,16.66-4.64,23.01,4.58l1.44,2.1,8.28,12.02,1.44,2.1c2.96,4.3,6.32,4.68,9.4,2.55,3.09-2.12,3.93-5.39.96-9.69l-9.73-14.13,8.28-5.71,9.73,14.13c6.32,9.16,4.14,17.58-3.92,23.12Z"/>
  <path class="cls-1" d="M247.22,638.82c-8.06,5.55-16.66,4.64-23.01-4.58l-1.44-2.1-8.28-12.02-1.44-2.1c-2.97-4.3-6.32-4.68-9.4-2.55-3.09,2.12-3.93,5.39-.96,9.69l9.73,14.13-8.28,5.71-9.74-14.13c-6.31-9.16-4.13-17.58,3.93-23.12,8.05-5.55,16.65-4.64,23,4.58l1.44,2.1,8.28,12.02,1.44,2.1c2.97,4.3,6.32,4.68,9.4,2.55,3.1-2.13,3.94-5.39.97-9.7l-9.73-14.13,8.28-5.7,9.73,14.13c6.31,9.16,4.13,17.58-3.92,23.12Z"/>
  <path class="cls-1" d="M322.83,507.95c-8.06,5.54-16.66,4.64-23-4.58l-1.44-2.1-8.28-12.04-1.44-2.09c-2.97-4.31-6.32-4.68-9.41-2.56-3.09,2.13-3.93,5.4-.96,9.7l9.73,14.13-8.28,5.7-9.73-14.13c-6.31-9.15-4.14-17.57,3.92-23.12,8.06-5.54,16.66-4.64,23.01,4.58l1.44,2.1,8.28,12.02,1.44,2.1c2.96,4.31,6.32,4.68,9.4,2.56,3.09-2.13,3.93-5.4.96-9.7l-9.73-14.13,8.28-5.7,9.73,14.13c6.32,9.15,4.14,17.57-3.92,23.12Z"/>
  <path class="cls-1" d="M290.1,489.24h0s8.29,12.04,8.29,12.04l-8.28-12.04Z"/>
  <path class="cls-1" d="M297.9,551.64c-8.06,5.54-16.66,4.64-23.01-4.59l-1.44-2.1-8.28-12.02-1.44-2.1c-2.97-4.3-6.32-4.67-9.4-2.55-3.09,2.13-3.93,5.39-.97,9.7l9.74,14.13-8.28,5.7-9.74-14.13c-6.31-9.16-4.13-17.57,3.93-23.12,8.05-5.54,16.65-4.64,23,4.58l1.44,2.1,8.28,12.02,1.44,2.1c2.97,4.3,6.32,4.68,9.4,2.55,3.1-2.12,3.94-5.39.97-9.69l-9.73-14.13,8.28-5.7,9.73,14.13c6.31,9.15,4.13,17.57-3.92,23.12Z"/>
  <path class="cls-1" d="M607.9,637.95c-8.06,5.54-16.66,4.64-23.01-4.58l-9.73-14.13-1.44-2.1c-2.96-4.31-6.32-4.68-9.4-2.55-3.09,2.12-3.93,5.39-.96,9.69l9.73,14.13-8.28,5.7-9.73-14.13c-6.32-9.15-4.14-17.57,3.92-23.12,8.06-5.54,16.66-4.64,23,4.59l1.44,2.1,8.28,12.04,1.44,2.09c2.97,4.3,6.32,4.67,9.41,2.55,3.09-2.13,3.93-5.4.96-9.7l-9.73-14.13,8.28-5.7,9.73,14.13c6.31,9.16,4.14,17.57-3.92,23.12Z"/>
  <path class="cls-1" d="M582.96,681.63c-8.05,5.54-16.65,4.64-23-4.58l-1.44-2.1-8.28-12.02-1.44-2.1c-2.97-4.31-6.32-4.68-9.4-2.56-3.1,2.13-3.93,5.4-.97,9.7l9.73,14.13-8.28,5.7-9.73-14.13c-6.31-9.15-4.13-17.57,3.92-23.12,8.06-5.54,16.66-4.64,23.01,4.59l1.44,2.09,8.28,12.03,1.44,2.09c2.97,4.31,6.32,4.68,9.4,2.56,3.09-2.13,3.93-5.4.97-9.7l-9.73-14.13,8.27-5.7,9.74,14.13c6.31,9.15,4.13,17.57-3.93,23.12Z"/>
  <path class="cls-1" d="M633.64,594.44c-8.05,5.55-16.65,4.64-23-4.58l-1.44-2.1-8.28-12.02-1.44-2.1c-2.97-4.3-6.32-4.68-9.4-2.55-3.1,2.12-3.93,5.39-.97,9.69l9.73,14.13-8.28,5.71-9.73-14.13c-6.31-9.16-4.13-17.58,3.92-23.12,8.06-5.55,16.66-4.64,23.01,4.58l1.44,2.1,8.28,12.02,1.44,2.1c2.97,4.3,6.32,4.68,9.4,2.55,3.09-2.12,3.93-5.39.97-9.7l-9.74-14.13,8.28-5.7,9.74,14.13c6.31,9.16,4.13,17.58-3.93,23.12Z"/>
  <path class="cls-1" d="M364.64,682.73c-8.05,5.54-16.65,4.64-23-4.58l-1.44-2.1-8.28-12.02-1.44-2.1c-2.97-4.3-6.32-4.68-9.41-2.55-3.09,2.12-3.93,5.39-.96,9.69l9.73,14.13-8.28,5.7-9.73-14.13c-6.31-9.15-4.14-17.57,3.92-23.11,8.06-5.55,16.66-4.64,23.01,4.58l1.44,2.1,8.28,12.02,1.44,2.1c2.96,4.3,6.32,4.67,9.4,2.55,3.09-2.13,3.93-5.39.96-9.7l-9.73-14.13,8.28-5.7,9.73,14.13c6.32,9.16,4.14,17.58-3.92,23.12Z"/>
  <path class="cls-1" d="M222.29,682.83c-8.06,5.55-16.66,4.64-23.01-4.58l-1.44-2.1-8.28-12.02-1.44-2.1c-2.97-4.3-6.32-4.68-9.4-2.55-3.09,2.12-3.93,5.39-.96,9.69l9.73,14.13-8.28,5.71-9.74-14.13c-6.31-9.16-4.13-17.58,3.93-23.12,8.05-5.55,16.65-4.64,23,4.58l1.44,2.1,8.28,12.02,1.44,2.1c2.97,4.3,6.32,4.68,9.4,2.55,3.1-2.13,3.94-5.39.97-9.7l-9.73-14.13,8.28-5.7,9.73,14.13c6.31,9.16,4.13,17.58-3.92,23.12Z"/>
  <path class="cls-1" d="M3.48,684.44c-8.06,5.55-16.66,4.64-23.01-4.58l-1.44-2.1-8.28-12.02-1.44-2.1c-2.96-4.3-6.32-4.68-9.4-2.55-3.09,2.12-3.93,5.39-.96,9.69l9.73,14.13-8.28,5.71-9.73-14.13c-6.32-9.16-4.14-17.58,3.92-23.12,8.05-5.55,16.65-4.64,23,4.58l1.44,2.1,8.28,12.02,1.44,2.1c2.97,4.3,6.32,4.67,9.41,2.55,3.09-2.13,3.93-5.39.96-9.7l-9.73-14.13,8.28-5.7,9.73,14.13c6.31,9.16,4.14,17.58-3.92,23.12Z"/>
  <path class="cls-1" d="M100.42,773.36c-8.05,5.56-16.65,4.67-23.02-4.54l-1.45-2.09-8.31-12.02-1.45-2.09c-2.98-4.3-6.33-4.67-9.41-2.54-3.08,2.14-3.92,5.41-.95,9.7l9.77,14.11-8.26,5.72-9.77-14.11c-6.32-9.14-4.16-17.56,3.89-23.13,8.04-5.56,16.64-4.67,23.01,4.53l1.45,2.1,8.31,12.01,1.45,2.1c2.98,4.3,6.33,4.67,9.41,2.53,3.09-2.13,3.93-5.4.95-9.69l-9.76-14.11,8.26-5.72,9.76,14.11c6.32,9.14,4.16,17.56-3.88,23.13Z"/>
  <path class="cls-1" d="M75.57,817.09c-8.04,5.56-16.64,4.66-23.01-4.54l-1.45-2.1-8.31-12.01-1.45-2.1c-2.98-4.29-6.33-4.66-9.42-2.53-3.08,2.14-3.92,5.4-.94,9.7l9.76,14.11-8.26,5.72-9.76-14.11c-6.33-9.15-4.17-17.56,3.88-23.13,8.05-5.56,16.65-4.67,23.02,4.53l1.45,2.1,8.31,12.01,1.45,2.1c2.97,4.3,6.33,4.67,9.41,2.53,3.08-2.13,3.92-5.4.94-9.69l-9.76-14.11,8.26-5.72,9.76,14.11c6.33,9.14,4.17,17.56-3.88,23.13Z"/>
  <path class="cls-1" d="M126.07,729.8c-8.05,5.56-16.65,4.67-23.01-4.53l-1.45-2.1-8.31-12.02-1.45-2.09c-2.98-4.3-6.33-4.67-9.42-2.53-3.08,2.13-3.92,5.4-.94,9.69l9.76,14.11-8.26,5.72-9.76-14.11c-6.32-9.14-4.17-17.56,3.88-23.13,8.05-5.56,16.65-4.67,23.02,4.54l1.45,2.1,8.31,12.01,1.45,2.1c2.97,4.3,6.33,4.66,9.41,2.53,3.08-2.14,3.92-5.41.94-9.7l-9.76-14.11,8.26-5.72,9.76,14.11c6.33,9.15,4.17,17.56-3.88,23.13Z"/>
  <path class="cls-1" d="M52.22,728.04c-8.04,5.57-16.64,4.67-23.01-4.53l-1.45-2.1-8.31-12.01-1.45-2.1c-2.98-4.29-6.33-4.67-9.41-2.53-3.09,2.13-3.93,5.4-.95,9.69l9.76,14.11-8.26,5.73-9.76-14.11c-6.33-9.15-4.16-17.57,3.88-23.13,8.05-5.57,16.65-4.67,23.02,4.53l1.45,2.1,8.31,12.01,1.45,2.1c2.97,4.3,6.33,4.67,9.41,2.53,3.08-2.14,3.92-5.4.95-9.7l-9.77-14.11,8.26-5.72,9.76,14.11c6.34,9.15,4.17,17.57-3.88,23.13Z"/>
  <path class="cls-1" d="M27.38,771.77c-8.05,5.57-16.65,4.67-23.02-4.53l-1.45-2.1-8.31-12.01-1.45-2.1c-2.97-4.3-6.33-4.67-9.41-2.53-3.08,2.13-3.92,5.4-.94,9.69l9.76,14.11-8.26,5.73-9.76-14.11c-6.34-9.15-4.17-17.57,3.88-23.13,8.04-5.57,16.64-4.67,23.01,4.53l1.45,2.1,8.31,12.01,1.45,2.1c2.98,4.29,6.33,4.66,9.42,2.53,3.08-2.14,3.92-5.4.94-9.7l-9.76-14.11,8.26-5.72,9.76,14.11c6.33,9.15,4.17,17.57-3.88,23.13Z"/>
  <path class="cls-1" d="M173.86,772.34c-8.05,5.56-16.65,4.67-23.02-4.53l-1.45-2.1-8.31-12.01-1.45-2.1c-2.98-4.29-6.33-4.67-9.41-2.53-3.08,2.13-3.92,5.4-.95,9.69l9.77,14.11-8.27,5.72-9.76-14.11c-6.32-9.14-4.16-17.56,3.88-23.12,8.05-5.57,16.65-4.67,23.02,4.53l1.45,2.1,8.31,12.01,1.45,2.1c2.98,4.29,6.33,4.66,9.41,2.53,3.08-2.14,3.92-5.41.95-9.7l-9.76-14.11,8.26-5.72,9.76,14.11c6.33,9.15,4.16,17.57-3.88,23.13Z"/>
  <path class="cls-1" d="M149,816.08c-8.05,5.56-16.65,4.67-23.01-4.53l-1.45-2.1-8.31-12.02-1.45-2.09c-2.98-4.3-6.33-4.67-9.42-2.53-3.08,2.13-3.92,5.4-.94,9.69l9.76,14.11-8.26,5.72-9.76-14.11c-6.32-9.14-4.17-17.56,3.88-23.13,8.05-5.56,16.65-4.67,23.02,4.54l1.44,2.09,8.32,12.02,1.45,2.09c2.97,4.31,6.32,4.67,9.41,2.54,3.08-2.14,3.92-5.41.94-9.7l-9.76-14.11,8.26-5.72,9.76,14.11c6.33,9.15,4.17,17.56-3.88,23.13Z"/>
  <path class="cls-1" d="M116.24,797.43h0s8.32,12.02,8.32,12.02l-8.31-12.02Z"/>
  <path class="cls-1" d="M199.51,728.78c-8.05,5.57-16.65,4.67-23.02-4.53l-9.76-14.11-1.45-2.1c-2.97-4.3-6.33-4.67-9.41-2.53-3.08,2.13-3.92,5.4-.94,9.7l9.76,14.11-8.26,5.72-9.76-14.11c-6.33-9.15-4.17-17.57,3.88-23.13,8.05-5.57,16.65-4.67,23.01,4.53l1.45,2.1,8.32,12.01,1.45,2.1c2.97,4.3,6.32,4.67,9.41,2.53,3.08-2.13,3.92-5.4.94-9.69l-9.76-14.11,8.26-5.73,9.76,14.11c6.33,9.15,4.17,17.57-3.88,23.13Z"/>
  <path class="cls-1" d="M461.45,772.41c-8.05,5.56-16.65,4.67-23.01-4.54l-1.45-2.1-8.31-12.02-1.45-2.09c-2.98-4.29-6.33-4.66-9.42-2.53-3.08,2.14-3.92,5.4-.94,9.7l9.76,14.11-8.26,5.72-9.76-14.11c-6.33-9.15-4.17-17.56,3.88-23.13,8.05-5.56,16.65-4.67,23.02,4.53l9.76,14.11,1.45,2.1c2.97,4.3,6.33,4.67,9.41,2.53,3.08-2.13,3.92-5.4.94-9.69l-9.76-14.11,8.26-5.72,9.76,14.11c6.32,9.14,4.17,17.56-3.88,23.13Z"/>
  <path class="cls-1" d="M428.69,753.75h0s8.32,12.02,8.32,12.02l-8.31-12.02Z"/>
  <path class="cls-1" d="M436.61,816.13c-8.05,5.57-16.65,4.67-23.02-4.53l-1.45-2.1-8.31-12.01-1.45-2.1c-2.98-4.29-6.33-4.66-9.41-2.53-3.08,2.14-3.92,5.4-.95,9.7l9.77,14.11-8.27,5.72-9.76-14.11c-6.33-9.15-4.16-17.57,3.89-23.13,8.04-5.56,16.64-4.67,23.01,4.53l1.45,2.1,8.31,12.01,1.45,2.1c2.98,4.29,6.33,4.67,9.41,2.53,3.08-2.13,3.92-5.4.95-9.69l-9.76-14.11,8.26-5.72,9.76,14.11c6.32,9.14,4.16,17.56-3.88,23.12Z"/>
  <path class="cls-1" d="M487.11,728.85c-8.05,5.56-16.65,4.67-23.02-4.53l-1.45-2.1-8.31-12.01-1.45-2.1c-2.98-4.3-6.33-4.67-9.41-2.53-3.08,2.13-3.92,5.4-.95,9.69l9.76,14.11-8.26,5.72-9.76-14.11c-6.32-9.14-4.16-17.56,3.88-23.13,8.05-5.56,16.65-4.67,23.02,4.54l1.45,2.1,8.31,12.01,1.45,2.1c2.98,4.29,6.33,4.66,9.41,2.53,3.08-2.14,3.92-5.41.95-9.7l-9.76-14.11,8.26-5.72,9.76,14.11c6.33,9.15,4.16,17.56-3.88,23.13Z"/>
  <path class="cls-1" d="M413.26,727.09c-8.05,5.57-16.65,4.67-23.02-4.53l-1.45-2.1-8.31-12.01-1.45-2.1c-2.98-4.29-6.33-4.67-9.41-2.53-3.08,2.13-3.92,5.4-.94,9.69l9.76,14.11-8.26,5.73-9.77-14.11c-6.33-9.15-4.16-17.57,3.89-23.13,8.04-5.57,16.64-4.67,23.01,4.53l1.45,2.1,8.31,12.01,1.45,2.1c2.98,4.29,6.33,4.66,9.41,2.53,3.09-2.14,3.93-5.4.95-9.7l-9.76-14.11,8.26-5.72,9.76,14.11c6.33,9.15,4.16,17.57-3.88,23.13Z"/>
  <path class="cls-1" d="M388.41,770.82c-8.04,5.56-16.64,4.67-23.01-4.53l-1.45-2.1-8.31-12.01-1.45-2.1c-2.98-4.29-6.33-4.67-9.42-2.53-3.08,2.13-3.92,5.4-.94,9.69l9.76,14.11-8.26,5.72-9.76-14.11c-6.32-9.14-4.17-17.56,3.88-23.12,8.05-5.57,16.65-4.67,23.02,4.53l1.45,2.1,8.31,12.01,1.45,2.1c2.97,4.3,6.33,4.66,9.41,2.53,3.08-2.14,3.92-5.4.94-9.7l-9.76-14.11,8.26-5.72,9.76,14.11c6.34,9.15,4.17,17.57-3.88,23.13Z"/>
  <path class="cls-1" d="M510.38,747.04l8.31,12.02h0s-8.32-12.02-8.32-12.02Z"/>
  <path class="cls-1" d="M534.89,771.39c-8.05,5.56-16.65,4.67-23.02-4.53l-9.76-14.11-1.45-2.1c-2.97-4.31-6.33-4.67-9.41-2.53-3.08,2.13-3.92,5.4-.94,9.69l9.76,14.11-8.26,5.72-9.76-14.11c-6.33-9.14-4.17-17.56,3.88-23.13,8.05-5.56,16.65-4.67,23.01,4.54l1.45,2.1,8.31,12.02,1.45,2.09c2.98,4.29,6.33,4.66,9.42,2.53,3.08-2.14,3.92-5.41.94-9.7l-9.76-14.11,8.26-5.72,9.76,14.11c6.33,9.15,4.17,17.56-3.88,23.13Z"/>
  <path class="cls-1" d="M510.03,815.13c-8.04,5.56-16.64,4.67-23.01-4.53l-1.45-2.1-8.31-12.01-1.45-2.1c-2.98-4.3-6.33-4.67-9.41-2.54-3.09,2.14-3.92,5.41-.95,9.7l9.76,14.11-8.26,5.72-9.76-14.11c-6.32-9.14-4.16-17.56,3.88-23.13,8.05-5.56,16.65-4.67,23.02,4.54l1.45,2.09,8.31,12.02,1.45,2.09c2.98,4.3,6.33,4.67,9.41,2.54,3.08-2.14,3.92-5.41.95-9.7l-9.76-14.11,8.25-5.71,9.77,14.11c6.32,9.14,4.16,17.56-3.89,23.13Z"/>
  <path class="cls-1" d="M560.53,727.83c-8.04,5.57-16.64,4.67-23.01-4.53l-1.45-2.1-8.31-12.01-1.45-2.1c-2.98-4.29-6.33-4.67-9.41-2.53-3.09,2.13-3.92,5.4-.95,9.69l9.76,14.11-8.26,5.73-9.76-14.11c-6.33-9.15-4.16-17.57,3.88-23.13,8.05-5.57,16.65-4.67,23.02,4.53l1.45,2.1,8.31,12.01,1.45,2.1c2.98,4.29,6.33,4.67,9.41,2.53,3.08-2.13,3.92-5.4.95-9.7l-9.77-14.11,8.26-5.72,9.77,14.11c6.33,9.15,4.16,17.57-3.89,23.13Z"/>
  <path class="cls-1" d="M318.04,772.53c-8.05,5.57-16.65,4.67-23.01-4.53l-1.45-2.1-8.31-12.02-1.45-2.09c-2.98-4.29-6.33-4.67-9.42-2.53-3.08,2.13-3.92,5.4-.94,9.69l9.76,14.11-8.26,5.72-9.76-14.11c-6.32-9.14-4.17-17.56,3.88-23.12,8.05-5.57,16.65-4.67,23.02,4.53l1.45,2.1,8.31,12.01,1.45,2.1c2.97,4.3,6.33,4.66,9.41,2.53,3.08-2.14,3.92-5.4.94-9.7l-9.76-14.11,8.26-5.72,9.76,14.11c6.34,9.15,4.17,17.57-3.88,23.13Z"/>
  <path class="cls-1" d="M285.27,753.88h0s8.32,12.02,8.32,12.02l-8.31-12.02Z"/>
  <path class="cls-1" d="M293.19,816.26c-8.05,5.56-16.65,4.67-23.02-4.53l-1.45-2.1-8.31-12.01-1.45-2.1c-2.98-4.3-6.33-4.67-9.41-2.53-3.08,2.13-3.92,5.4-.95,9.69l9.77,14.11-8.26,5.72-9.77-14.11c-6.32-9.14-4.16-17.56,3.89-23.13,8.04-5.56,16.64-4.67,23.01,4.54l1.45,2.1,8.31,12.01,1.45,2.1c2.98,4.29,6.33,4.66,9.41,2.53,3.09-2.14,3.93-5.41.95-9.7l-9.76-14.11,8.26-5.72,9.76,14.11c6.33,9.15,4.16,17.56-3.88,23.13Z"/>
  <path class="cls-1" d="M343.7,728.97c-8.05,5.57-16.65,4.67-23.02-4.53l-1.45-2.1-8.31-12.01-1.45-2.1c-2.98-4.29-6.33-4.67-9.41-2.53s-3.92,5.4-.95,9.7l9.77,14.11-8.27,5.72-9.76-14.11c-6.33-9.15-4.16-17.57,3.89-23.13,8.04-5.57,16.64-4.67,23.01,4.53l1.45,2.1,8.31,12.01,1.45,2.1c2.98,4.29,6.33,4.67,9.41,2.53,3.09-2.13,3.92-5.4.95-9.69l-9.76-14.11,8.26-5.73,9.76,14.11c6.33,9.15,4.16,17.57-3.88,23.13Z"/>
  <path class="cls-1" d="M271.33,727.65c-8.04,5.57-16.64,4.67-23.01-4.53l-1.45-2.1-8.31-12.01-1.45-2.1c-2.98-4.29-6.33-4.67-9.42-2.53-3.08,2.13-3.92,5.4-.94,9.7l9.76,14.11-8.26,5.72-9.76-14.11c-6.33-9.15-4.17-17.57,3.88-23.13,8.05-5.57,16.65-4.67,23.02,4.53l1.45,2.1,8.31,12.01,1.45,2.1c2.97,4.3,6.33,4.67,9.41,2.53,3.08-2.13,3.92-5.4.94-9.69l-9.76-14.11,8.26-5.73,9.76,14.11c6.34,9.15,4.17,17.57-3.88,23.13Z"/>
  <path class="cls-1" d="M246.48,771.39c-8.05,5.57-16.65,4.67-23.02-4.53l-1.45-2.1-8.31-12.01-1.45-2.1c-2.98-4.29-6.33-4.67-9.41-2.53-3.08,2.13-3.92,5.4-.94,9.69l9.76,14.11-8.26,5.73-9.77-14.11c-6.33-9.15-4.16-17.57,3.89-23.13,8.04-5.57,16.64-4.67,23.01,4.53l1.45,2.1,8.31,12.01,1.45,2.1c2.98,4.29,6.33,4.67,9.41,2.53,3.09-2.14,3.93-5.4.95-9.7l-9.76-14.11,8.26-5.72,9.76,14.11c6.33,9.15,4.16,17.57-3.88,23.13Z"/>
  <path class="cls-1" d="M607.16,769.79c-8.05,5.56-16.65,4.67-23.02-4.53l-9.76-14.11-1.45-2.1c-2.97-4.31-6.33-4.67-9.41-2.53-3.08,2.13-3.92,5.4-.94,9.69l9.76,14.11-8.26,5.72-9.76-14.11c-6.33-9.14-4.17-17.56,3.88-23.13,8.05-5.56,16.65-4.67,23.01,4.54l1.45,2.1,8.31,12.02,1.45,2.09c2.98,4.29,6.33,4.66,9.42,2.53,3.08-2.14,3.92-5.41.94-9.7l-9.76-14.11,8.26-5.72,9.76,14.11c6.33,9.15,4.17,17.56-3.88,23.13Z"/>
  <path class="cls-1" d="M582.31,813.52c-8.04,5.56-16.64,4.67-23.01-4.53l-1.45-2.1-8.31-12.01-1.45-2.1c-2.98-4.3-6.33-4.67-9.41-2.54-3.09,2.14-3.92,5.41-.95,9.7l9.76,14.11-8.26,5.72-9.76-14.11c-6.32-9.14-4.16-17.56,3.88-23.13,8.05-5.56,16.65-4.67,23.02,4.54l1.45,2.09,8.31,12.02,1.45,2.09c2.98,4.3,6.33,4.67,9.41,2.54,3.08-2.14,3.92-5.41.95-9.7l-9.76-14.11,8.25-5.71,9.77,14.11c6.32,9.14,4.16,17.56-3.89,23.13Z"/>
  <path class="cls-1" d="M632.81,726.23c-8.04,5.57-16.64,4.67-23.01-4.53l-1.45-2.1-8.31-12.01-1.45-2.1c-2.98-4.29-6.33-4.67-9.41-2.53-3.09,2.13-3.92,5.4-.95,9.69l9.76,14.11-8.26,5.73-9.76-14.11c-6.33-9.15-4.16-17.57,3.88-23.13,8.05-5.57,16.65-4.67,23.02,4.53l1.45,2.1,8.31,12.01,1.45,2.1c2.98,4.29,6.33,4.67,9.41,2.53,3.08-2.13,3.92-5.4.95-9.7l-9.77-14.11,8.26-5.72,9.77,14.11c6.33,9.15,4.16,17.57-3.89,23.13Z"/>
  <path class="cls-1" d="M364,815.06c-8.04,5.56-16.64,4.67-23.01-4.53l-1.45-2.1-8.31-12.01-1.45-2.1c-2.98-4.29-6.33-4.67-9.42-2.53-3.08,2.13-3.92,5.4-.94,9.69l9.76,14.11-8.26,5.72-9.76-14.11c-6.32-9.14-4.17-17.56,3.88-23.12,8.05-5.57,16.65-4.67,23.02,4.53l1.45,2.1,8.31,12.01,1.45,2.1c2.97,4.3,6.33,4.66,9.41,2.53,3.08-2.14,3.92-5.4.94-9.7l-9.76-14.11,8.26-5.72,9.76,14.11c6.34,9.15,4.17,17.57-3.88,23.13Z"/>
  <path class="cls-1" d="M221.65,815.45c-8.05,5.57-16.65,4.67-23.02-4.53l-1.45-2.1-8.31-12.01-1.45-2.1c-2.98-4.29-6.33-4.67-9.41-2.53-3.08,2.13-3.92,5.4-.94,9.69l9.76,14.11-8.26,5.73-9.77-14.11c-6.33-9.15-4.16-17.57,3.89-23.13,8.04-5.57,16.64-4.67,23.01,4.53l1.45,2.1,8.31,12.01,1.45,2.1c2.98,4.29,6.33,4.67,9.41,2.53,3.09-2.14,3.93-5.4.95-9.7l-9.76-14.11,8.26-5.72,9.76,14.11c6.33,9.15,4.16,17.57-3.88,23.13Z"/>
  <path class="cls-1" d="M2.84,817.51c-8.05,5.57-16.65,4.67-23.02-4.53l-1.45-2.1-8.31-12.01-1.45-2.1c-2.97-4.3-6.33-4.67-9.41-2.53-3.08,2.13-3.92,5.4-.94,9.69l9.76,14.11-8.26,5.73-9.76-14.11c-6.34-9.15-4.17-17.57,3.88-23.13,8.04-5.57,16.64-4.67,23.01,4.53l1.45,2.1,8.31,12.01,1.45,2.1c2.98,4.29,6.33,4.66,9.42,2.53,3.08-2.14,3.92-5.4.94-9.7l-9.76-14.11,8.26-5.72,9.76,14.11c6.33,9.15,4.17,17.57-3.88,23.13Z"/>
  <path class="cls-1" d="M50.95,862.49c-8.04,5.56-16.64,4.66-23.01-4.54l-1.45-2.1-8.31-12.01-1.45-2.1c-2.98-4.29-6.33-4.66-9.42-2.53-3.08,2.14-3.92,5.4-.94,9.7l9.76,14.11-8.26,5.72-9.76-14.11c-6.33-9.15-4.17-17.56,3.88-23.13,8.05-5.56,16.65-4.67,23.02,4.53l1.45,2.1,8.31,12.01,1.45,2.1c2.97,4.3,6.33,4.67,9.41,2.53,3.08-2.13,3.92-5.4.94-9.69l-9.76-14.11,8.26-5.72,9.76,14.11c6.33,9.14,4.17,17.56-3.88,23.13Z"/>
  <path class="cls-1" d="M124.39,861.47c-8.05,5.56-16.65,4.67-23.01-4.53l-1.45-2.1-8.31-12.02-1.45-2.09c-2.98-4.3-6.33-4.67-9.42-2.53-3.08,2.13-3.92,5.4-.94,9.69l9.76,14.11-8.26,5.72-9.76-14.11c-6.32-9.14-4.17-17.56,3.88-23.13,8.05-5.56,16.65-4.67,23.02,4.54l1.44,2.09,8.32,12.02,1.45,2.09c2.97,4.31,6.32,4.67,9.41,2.54,3.08-2.14,3.92-5.41.94-9.7l-9.76-14.11,8.26-5.72,9.76,14.11c6.33,9.15,4.17,17.56-3.88,23.13Z"/>
  <path class="cls-1" d="M411.99,861.53c-8.05,5.57-16.65,4.67-23.02-4.53l-1.45-2.1-8.31-12.01-1.45-2.1c-2.98-4.29-6.33-4.66-9.41-2.53-3.08,2.14-3.92,5.4-.95,9.7l9.77,14.11-8.27,5.72-9.76-14.11c-6.33-9.15-4.16-17.57,3.89-23.13,8.04-5.56,16.64-4.67,23.01,4.53l1.45,2.1,8.31,12.01,1.45,2.1c2.98,4.29,6.33,4.67,9.41,2.53,3.08-2.13,3.92-5.4.95-9.69l-9.76-14.11,8.26-5.72,9.76,14.11c6.32,9.14,4.16,17.56-3.88,23.12Z"/>
  <path class="cls-1" d="M485.42,860.52c-8.04,5.56-16.64,4.67-23.01-4.53l-1.45-2.1-8.31-12.01-1.45-2.1c-2.98-4.3-6.33-4.67-9.41-2.54-3.09,2.14-3.92,5.41-.95,9.7l9.76,14.11-8.26,5.72-9.76-14.11c-6.32-9.14-4.16-17.56,3.88-23.13,8.05-5.56,16.65-4.67,23.02,4.54l1.45,2.09,8.31,12.02,1.45,2.09c2.98,4.3,6.33,4.67,9.41,2.54,3.08-2.14,3.92-5.41.95-9.7l-9.76-14.11,8.25-5.71,9.77,14.11c6.32,9.14,4.16,17.56-3.89,23.13Z"/>
  <path class="cls-1" d="M268.58,861.66c-8.05,5.56-16.65,4.67-23.02-4.53l-1.45-2.1-8.31-12.01-1.45-2.1c-2.98-4.3-6.33-4.67-9.41-2.53-3.08,2.13-3.92,5.4-.95,9.69l9.77,14.11-8.26,5.72-9.77-14.11c-6.32-9.14-4.16-17.56,3.89-23.13,8.04-5.56,16.64-4.67,23.01,4.54l1.45,2.1,8.31,12.01,1.45,2.1c2.98,4.29,6.33,4.66,9.41,2.53,3.09-2.14,3.93-5.41.95-9.7l-9.76-14.11,8.26-5.72,9.76,14.11c6.33,9.15,4.16,17.56-3.88,23.13Z"/>
  <path class="cls-1" d="M557.69,858.92c-8.04,5.56-16.64,4.67-23.01-4.53l-1.45-2.1-8.31-12.01-1.45-2.1c-2.98-4.3-6.33-4.67-9.41-2.54-3.09,2.14-3.92,5.41-.95,9.7l9.76,14.11-8.26,5.72-9.76-14.11c-6.32-9.14-4.16-17.56,3.88-23.13,8.05-5.56,16.65-4.67,23.02,4.54l1.45,2.09,8.31,12.02,1.45,2.09c2.98,4.3,6.33,4.67,9.41,2.54,3.08-2.14,3.92-5.41.95-9.7l-9.76-14.11,8.25-5.71,9.77,14.11c6.32,9.14,4.16,17.56-3.89,23.13Z"/>
  <path class="cls-1" d="M631.68,857.27c-8.04,5.56-16.64,4.67-23.01-4.53l-1.45-2.1-8.31-12.01-1.45-2.1c-2.98-4.3-6.33-4.67-9.41-2.54-3.09,2.14-3.92,5.41-.95,9.7l9.76,14.11-8.26,5.72-9.76-14.11c-6.32-9.14-4.16-17.56,3.88-23.13,8.05-5.56,16.65-4.67,23.02,4.54l1.45,2.09,8.31,12.02,1.45,2.09c2.98,4.3,6.33,4.67,9.41,2.54,3.08-2.14,3.92-5.41.95-9.7l-9.76-14.11,8.25-5.71,9.77,14.11c6.32,9.14,4.16,17.56-3.89,23.13Z"/>
  <path class="cls-1" d="M339.38,860.45c-8.04,5.56-16.64,4.67-23.01-4.53l-1.45-2.1-8.31-12.01-1.45-2.1c-2.98-4.29-6.33-4.67-9.42-2.53-3.08,2.13-3.92,5.4-.94,9.69l9.76,14.11-8.26,5.72-9.76-14.11c-6.32-9.14-4.17-17.56,3.88-23.12,8.05-5.57,16.65-4.67,23.02,4.53l1.45,2.1,8.31,12.01,1.45,2.1c2.97,4.3,6.33,4.66,9.41,2.53,3.08-2.14,3.92-5.4.94-9.7l-9.76-14.11,8.26-5.72,9.76,14.11c6.34,9.15,4.17,17.57-3.88,23.13Z"/>
  <path class="cls-1" d="M197.03,860.85c-8.05,5.57-16.65,4.67-23.02-4.53l-1.45-2.1-8.31-12.01-1.45-2.1c-2.98-4.29-6.33-4.67-9.41-2.53-3.08,2.13-3.92,5.4-.94,9.69l9.76,14.11-8.26,5.73-9.77-14.11c-6.33-9.15-4.16-17.57,3.89-23.13,8.04-5.57,16.64-4.67,23.01,4.53l1.45,2.1,8.31,12.01,1.45,2.1c2.98,4.29,6.33,4.67,9.41,2.53,3.09-2.14,3.93-5.4.95-9.7l-9.76-14.11,8.26-5.72,9.76,14.11c6.33,9.15,4.16,17.57-3.88,23.13Z"/>
</svg>