<?xml version="1.0" encoding="UTF-8"?>
<svg id="Livello_1" data-name="Livello 1" xmlns="http://www.w3.org/2000/svg" viewBox="0 0 841.89 595.28">
  <defs>
    <style>
      .cls-1 {
        fill: #fafbfb;
      }
    </style>
  </defs>
  <path class="cls-1" d="M766.01-1.66c-5.54-8.06-4.64-16.66,4.58-23.01l2.1-1.44,12.02-8.28,2.1-1.44c4.31-2.96,4.68-6.32,2.55-9.4-2.12-3.09-5.39-3.93-9.69-.96l-14.13,9.73-5.7-8.28,14.13-9.73c9.15-6.32,17.57-4.14,23.12,3.92,5.54,8.05,4.64,16.65-4.59,23l-2.1,1.44-12.02,8.28-2.1,1.44c-4.3,2.97-4.67,6.32-2.55,9.41,2.13,3.09,5.4,3.93,9.7.96l14.13-9.73,5.7,8.28-14.13,9.73c-9.16,6.31-17.57,4.14-23.12-3.92Z"/>
  <path class="cls-1" d="M809.52,24.08c-5.55-8.05-4.64-16.65,4.58-23l2.1-1.44,12.02-8.28,2.1-1.44c4.3-2.97,4.68-6.32,2.55-9.4-2.12-3.1-5.39-3.94-9.69-.97l-14.13,9.73-5.71-8.28,14.13-9.73c9.16-6.31,17.58-4.13,23.12,3.92,5.55,8.06,4.64,16.66-4.58,23.01l-2.1,1.44-12.02,8.28-2.1,1.44c-4.3,2.96-4.68,6.32-2.55,9.4,2.12,3.09,5.39,3.93,9.7.97l14.13-9.74,5.7,8.28-14.13,9.73c-9.16,6.32-17.58,4.14-23.12-3.92Z"/>
  <path class="cls-1" d="M721.37,45.36c-5.54-8.06-4.64-16.66,4.59-23.01l2.09-1.43,12.03-8.29,2.09-1.44c4.31-2.96,4.68-6.32,2.56-9.4-2.13-3.09-5.4-3.93-9.7-.96l-14.13,9.73-5.7-8.28,14.13-9.73c9.15-6.31,17.57-4.14,23.12,3.92,5.54,8.06,4.64,16.66-4.58,23l-2.1,1.44-12.02,8.29-2.1,1.44c-4.31,2.96-4.68,6.31-2.55,9.4,2.12,3.09,5.39,3.93,9.69.96l14.13-9.73,5.7,8.28-14.13,9.73c-9.15,6.31-17.57,4.14-23.12-3.92Z"/>
  <path class="cls-1" d="M677.68,20.43c-5.54-8.06-4.63-16.66,4.59-23.01l2.1-1.44,12.02-8.28,2.1-1.44c4.3-2.97,4.67-6.32,2.55-9.4-2.13-3.09-5.39-3.93-9.7-.97l-14.13,9.73-5.7-8.28,14.13-9.73c9.16-6.31,17.57-4.13,23.12,3.92,5.54,8.06,4.64,16.66-4.58,23.01l-2.1,1.44-12.02,8.28-2.1,1.44c-4.3,2.97-4.68,6.32-2.55,9.4,2.12,3.09,5.39,3.93,9.69.97l14.13-9.73,5.7,8.28-14.13,9.73c-9.15,6.31-17.57,4.13-23.12-3.92Z"/>
  <path class="cls-1" d="M832.96,71.58l-12.04,8.28h.01s12.02-8.28,12.02-8.28Z"/>
  <path class="cls-1" d="M808.56,96.04c-5.54-8.06-4.64-16.66,4.58-23.01l14.13-9.73,2.1-1.44c4.3-2.96,4.68-6.32,2.55-9.4-2.12-3.09-5.39-3.93-9.69-.96l-14.13,9.73-5.7-8.28,14.13-9.73c9.15-6.32,17.57-4.14,23.11,3.92,5.55,8.06,4.64,16.66-4.58,23l-2.1,1.44-12.04,8.28-2.09,1.44c-4.3,2.97-4.67,6.32-2.55,9.41,2.13,3.09,5.39,3.93,9.7.96l14.13-9.73,5.7,8.28-14.13,9.73c-9.16,6.31-17.58,4.14-23.12-3.92Z"/>
  <path class="cls-1" d="M764.88,71.1c-5.54-8.05-4.64-16.65,4.58-23l2.1-1.44,12.02-8.28,2.1-1.44c4.31-2.97,4.68-6.32,2.55-9.4-2.12-3.1-5.39-3.93-9.69-.97l-14.13,9.73-5.7-8.28,14.13-9.73c9.15-6.31,17.57-4.13,23.12,3.92,5.54,8.06,4.64,16.66-4.59,23.01l-2.1,1.44-12.02,8.28-2.1,1.44c-4.3,2.97-4.67,6.32-2.55,9.4,2.13,3.09,5.4,3.93,9.7.97l14.13-9.73,5.7,8.27-14.13,9.74c-9.16,6.31-17.57,4.13-23.12-3.93Z"/>
  <path class="cls-1" d="M766.54,140.93c-5.55-8.06-4.64-16.66,4.58-23l2.1-1.44,12.04-8.28,2.09-1.44c4.3-2.97,4.67-6.32,2.55-9.41-2.13-3.09-5.39-3.93-9.7-.96l-14.13,9.73-5.7-8.28,14.13-9.73c9.16-6.31,17.58-4.14,23.12,3.92,5.54,8.06,4.64,16.66-4.58,23.01l-14.13,9.73-2.1,1.44c-4.3,2.96-4.68,6.32-2.55,9.4,2.12,3.09,5.39,3.93,9.69.96l14.13-9.73,5.7,8.28-14.13,9.73c-9.15,6.31-17.57,4.14-23.11-3.92Z"/>
  <path class="cls-1" d="M785.25,108.21h-.01s-12.02,8.28-12.02,8.28l12.04-8.28Z"/>
  <path class="cls-1" d="M722.86,116c-5.55-8.06-4.64-16.66,4.58-23.01l2.1-1.44,12.02-8.28,2.1-1.44c4.3-2.97,4.68-6.32,2.55-9.4-2.12-3.09-5.39-3.93-9.7-.97l-14.13,9.74-5.7-8.28,14.13-9.74c9.16-6.31,17.58-4.13,23.12,3.93,5.55,8.05,4.64,16.65-4.58,23l-2.1,1.44-12.02,8.28-2.1,1.44c-4.3,2.97-4.68,6.32-2.55,9.4,2.12,3.1,5.39,3.93,9.69.97l14.13-9.73,5.71,8.28-14.13,9.73c-9.16,6.31-17.58,4.13-23.12-3.92Z"/>
  <path class="cls-1" d="M810.04,166.68c-5.54-8.06-4.64-16.66,4.58-23.01l2.1-1.44,12.02-8.28,2.1-1.44c4.31-2.97,4.68-6.32,2.56-9.4-2.13-3.09-5.4-3.93-9.7-.97l-14.13,9.74-5.7-8.29,14.13-9.73c9.15-6.31,17.57-4.13,23.12,3.92,5.54,8.06,4.64,16.66-4.58,23.01l-2.1,1.44-12.02,8.28-2.1,1.44c-4.31,2.97-4.68,6.32-2.56,9.4,2.13,3.09,5.4,3.93,9.7.97l14.13-9.73,5.7,8.28-14.13,9.73c-9.15,6.31-17.57,4.13-23.12-3.92Z"/>
  <path class="cls-1" d="M721.9,187.95c-5.55-8.05-4.64-16.65,4.58-23l2.1-1.44,12.02-8.28,2.1-1.44c4.3-2.97,4.68-6.32,2.55-9.41-2.12-3.09-5.39-3.93-9.69-.96l-14.13,9.73-5.71-8.28,14.13-9.73c9.16-6.31,17.58-4.14,23.12,3.92,5.55,8.06,4.64,16.66-4.58,23.01l-2.1,1.44-12.02,8.28-2.1,1.44c-4.3,2.96-4.67,6.32-2.55,9.4,2.13,3.09,5.39,3.93,9.7.96l14.13-9.73,5.7,8.28-14.13,9.73c-9.16,6.32-17.58,4.14-23.12-3.92Z"/>
  <path class="cls-1" d="M678.22,163.02c-5.54-8.06-4.64-16.66,4.58-23.01l2.1-1.44,12.02-8.28,2.1-1.44c4.3-2.96,4.68-6.32,2.55-9.4-2.12-3.09-5.39-3.93-9.69-.96l-14.13,9.73-5.7-8.28,14.13-9.73c9.15-6.32,17.57-4.14,23.11,3.92,5.55,8.05,4.64,16.65-4.58,23l-2.1,1.44-12.02,8.28-2.1,1.44c-4.3,2.97-4.67,6.32-2.55,9.4,2.13,3.1,5.39,3.94,9.7.97l14.13-9.73,5.7,8.28-14.13,9.73c-9.16,6.31-17.58,4.13-23.12-3.92Z"/>
  <path class="cls-1" d="M809.08,238.63c-5.54-8.05-4.63-16.65,4.59-23l2.1-1.44,12.02-8.28,2.1-1.44c4.3-2.97,4.67-6.32,2.55-9.41-2.13-3.09-5.39-3.93-9.7-.96l-14.13,9.73-5.7-8.28,14.13-9.73c9.16-6.31,17.57-4.14,23.12,3.92,5.54,8.06,4.64,16.66-4.58,23.01l-2.1,1.44-12.02,8.28-2.1,1.44c-4.3,2.96-4.68,6.32-2.55,9.4,2.12,3.09,5.39,3.93,9.69.96l14.13-9.73,5.7,8.28-14.13,9.73c-9.15,6.32-17.57,4.14-23.12-3.92Z"/>
  <path class="cls-1" d="M765.41,213.7c-5.55-8.06-4.64-16.66,4.58-23.01l2.1-1.44,12.02-8.28,2.1-1.44c4.3-2.97,4.67-6.32,2.55-9.4-2.13-3.09-5.39-3.93-9.7-.96l-14.13,9.73-5.7-8.28,14.13-9.74c9.16-6.31,17.58-4.13,23.12,3.93,5.54,8.05,4.64,16.65-4.58,23l-2.1,1.44-12.02,8.28-2.1,1.44c-4.3,2.97-4.68,6.32-2.55,9.4,2.12,3.1,5.39,3.94,9.69.97l14.13-9.73,5.7,8.28-14.13,9.73c-9.15,6.31-17.57,4.13-23.11-3.92Z"/>
  <path class="cls-1" d="M547.52,87.48c-5.54-8.06-4.64-16.66,4.59-23.01l2.09-1.44,12.04-8.28,2.09-1.44c4.31-2.97,4.68-6.32,2.56-9.4-2.13-3.09-5.4-3.93-9.7-.97l-14.13,9.74-5.7-8.28,14.13-9.74c9.15-6.31,17.57-4.13,23.12,3.93,5.54,8.05,4.64,16.65-4.58,23l-2.1,1.44-12.02,8.28-2.1,1.44c-4.31,2.97-4.68,6.32-2.55,9.4,2.12,3.1,5.39,3.94,9.69.97l14.13-9.73,5.7,8.28-14.13,9.73c-9.15,6.31-17.57,4.13-23.12-3.92Z"/>
  <path class="cls-1" d="M503.84,62.53c-5.54-8.05-4.63-16.65,4.59-23l2.1-1.44,12.02-8.28,2.1-1.44c4.3-2.97,4.67-6.32,2.55-9.41-2.13-3.09-5.39-3.93-9.7-.96l-14.13,9.73-5.7-8.28,14.13-9.73c9.16-6.31,17.57-4.14,23.12,3.92,5.54,8.06,4.64,16.66-4.58,23.01l-2.1,1.44-12.02,8.28-2.1,1.44c-4.3,2.96-4.68,6.32-2.55,9.4,2.12,3.09,5.39,3.93,9.69.96l14.13-9.73,5.7,8.28-14.13,9.73c-9.15,6.32-17.57,4.14-23.12-3.92Z"/>
  <path class="cls-1" d="M634.72,138.15c-5.55-8.06-4.64-16.66,4.58-23.01l2.1-1.44,12.02-8.28,2.1-1.44c4.3-2.97,4.68-6.32,2.55-9.4-2.12-3.09-5.39-3.93-9.69-.97l-14.13,9.74-5.71-8.29,14.13-9.73c9.16-6.31,17.58-4.13,23.12,3.93,5.55,8.05,4.64,16.65-4.58,23l-2.1,1.44-12.02,8.28-2.1,1.44c-4.3,2.97-4.67,6.32-2.55,9.4,2.13,3.1,5.39,3.93,9.7.97l14.13-9.73,5.7,8.28-14.13,9.73c-9.16,6.31-17.58,4.13-23.12-3.92Z"/>
  <path class="cls-1" d="M591.03,113.21c-5.54-8.06-4.64-16.66,4.58-23l2.1-1.44,12.03-8.28,2.09-1.44c4.31-2.97,4.68-6.32,2.55-9.41-2.12-3.09-5.39-3.93-9.69-.96l-14.13,9.73-5.7-8.28,14.13-9.73c9.15-6.31,17.57-4.14,23.12,3.92,5.54,8.06,4.64,16.66-4.59,23.01l-2.1,1.44-12.02,8.28-2.1,1.44c-4.3,2.96-4.67,6.32-2.55,9.4,2.13,3.09,5.4,3.93,9.7.96l14.13-9.73,5.7,8.28-14.13,9.73c-9.16,6.31-17.57,4.14-23.12-3.92Z"/>
  <path class="cls-1" d="M609.74,80.49h-.01s-12.02,8.28-12.02,8.28l12.03-8.28Z"/>
  <path class="cls-1" d="M592.94,39.37c-5.55-8.05-4.64-16.65,4.58-23l2.1-1.44,12.02-8.28,2.1-1.44c4.3-2.97,4.68-6.32,2.55-9.4-2.12-3.1-5.39-3.94-9.69-.97l-14.13,9.73-5.71-8.28,14.13-9.73c9.16-6.31,17.58-4.13,23.12,3.92,5.55,8.06,4.64,16.66-4.58,23.01l-2.1,1.44-12.02,8.28-2.1,1.44c-4.3,2.96-4.68,6.32-2.55,9.4,2.13,3.09,5.39,3.93,9.7.97l14.13-9.74,5.7,8.28-14.13,9.73c-9.16,6.32-17.58,4.14-23.12-3.92Z"/>
  <path class="cls-1" d="M549.26,14.44c-5.55-8.06-4.64-16.66,4.58-23.01l2.1-1.44,12.02-8.28,2.1-1.44c4.3-2.96,4.68-6.32,2.55-9.4-2.12-3.09-5.39-3.93-9.69-.96l-14.13,9.73-5.71-8.28,14.13-9.73c9.16-6.32,17.58-4.14,23.12,3.92,5.55,8.05,4.64,16.65-4.58,23l-2.1,1.44-12.02,8.28-2.1,1.44c-4.3,2.97-4.67,6.32-2.55,9.41,2.13,3.09,5.39,3.93,9.7.96l14.13-9.73,5.7,8.28-14.13,9.73c-9.16,6.31-17.58,4.14-23.12-3.92Z"/>
  <path class="cls-1" d="M680.12,90.05c-5.54-8.05-4.64-16.65,4.59-23l2.1-1.44,12.02-8.28,2.1-1.44c4.3-2.97,4.67-6.32,2.55-9.41-2.13-3.09-5.39-3.93-9.7-.96l-14.13,9.73-5.7-8.28,14.13-9.73c9.16-6.31,17.57-4.14,23.12,3.92,5.54,8.06,4.64,16.66-4.58,23.01l-2.1,1.44-12.02,8.28-2.1,1.44c-4.3,2.96-4.68,6.32-2.55,9.4,2.12,3.09,5.39,3.93,9.69.96l14.13-9.73,5.7,8.28-14.13,9.73c-9.15,6.32-17.57,4.14-23.12-3.92Z"/>
  <path class="cls-1" d="M636.45,65.11c-5.55-8.06-4.64-16.66,4.58-23.01l2.1-1.44,12.02-8.28,2.1-1.44c4.3-2.96,4.67-6.32,2.55-9.4-2.13-3.09-5.39-3.93-9.7-.96l-14.13,9.73-5.7-8.28,14.13-9.73c9.16-6.32,17.58-4.14,23.12,3.92,5.54,8.05,4.64,16.65-4.58,23l-2.1,1.44-12.02,8.28-2.1,1.44c-4.3,2.97-4.68,6.32-2.55,9.4,2.12,3.1,5.39,3.94,9.69.97l14.13-9.73,5.7,8.28-14.13,9.73c-9.15,6.31-17.57,4.13-23.11-3.92Z"/>
  <path class="cls-1" d="M721.98,261.52c-5.55-8.06-4.64-16.66,4.58-23.01l14.13-9.73,2.1-1.44c4.3-2.96,4.68-6.32,2.55-9.4-2.12-3.09-5.39-3.93-9.7-.96l-14.13,9.73-5.7-8.28,14.13-9.73c9.16-6.31,17.58-4.14,23.12,3.92,5.55,8.06,4.64,16.66-4.58,23l-2.1,1.44-12.02,8.29-2.1,1.44c-4.3,2.96-4.68,6.31-2.55,9.4,2.12,3.09,5.39,3.93,9.69.96l14.13-9.73,5.71,8.28-14.13,9.73c-9.16,6.31-17.58,4.14-23.12-3.92Z"/>
  <path class="cls-1" d="M678.29,236.58c-5.55-8.06-4.64-16.66,4.58-23.01l2.1-1.44,12.02-8.28,2.1-1.44c4.3-2.97,4.68-6.32,2.55-9.4-2.12-3.1-5.39-3.93-9.69-.97l-14.13,9.73-5.71-8.28,14.13-9.73c9.16-6.31,17.58-4.13,23.12,3.92,5.55,8.06,4.64,16.66-4.58,23.01l-2.1,1.44-12.02,8.28-2.1,1.44c-4.3,2.97-4.68,6.32-2.55,9.4,2.13,3.09,5.39,3.93,9.7.97l14.13-9.73,5.7,8.27-14.13,9.74c-9.16,6.31-17.58,4.13-23.12-3.92Z"/>
  <path class="cls-1" d="M833.57,287.74l-12.04,8.28h.01s12.02-8.28,12.02-8.28Z"/>
  <path class="cls-1" d="M809.16,312.19c-5.54-8.06-4.64-16.66,4.58-23.01l2.1-1.44,12.02-8.28,2.1-1.44c4.31-2.96,4.68-6.32,2.56-9.4-2.13-3.09-5.4-3.93-9.7-.96l-14.13,9.73-5.7-8.28,14.13-9.73c9.15-6.32,17.57-4.14,23.12,3.92,5.54,8.06,4.64,16.65-4.58,23l-2.1,1.44-12.04,8.28-2.09,1.44c-4.31,2.97-4.68,6.32-2.56,9.41,2.13,3.09,5.4,3.93,9.7.96l14.13-9.73,5.7,8.28-14.13,9.73c-9.15,6.31-17.57,4.14-23.12-3.92Z"/>
  <path class="cls-1" d="M765.48,287.25c-5.54-8.05-4.64-16.65,4.59-23l2.1-1.44,12.02-8.28,2.1-1.44c4.3-2.97,4.67-6.32,2.55-9.4-2.13-3.1-5.39-3.93-9.7-.97l-14.13,9.73-5.7-8.28,14.13-9.73c9.16-6.31,17.57-4.13,23.12,3.92,5.54,8.06,4.64,16.66-4.58,23.01l-2.1,1.44-12.02,8.28-2.1,1.44c-4.3,2.97-4.68,6.32-2.55,9.4,2.12,3.09,5.39,3.93,9.69.97l14.13-9.74,5.7,8.28-14.13,9.74c-9.15,6.31-17.57,4.13-23.12-3.93Z"/>
  <path class="cls-1" d="M548.39,160.91c-5.54-8.06-4.64-16.66,4.58-23.01l2.1-1.44,12.02-8.28,2.1-1.44c4.3-2.97,4.68-6.32,2.55-9.4-2.12-3.09-5.39-3.93-9.69-.97l-14.13,9.74-5.7-8.29,14.13-9.73c9.15-6.31,17.57-4.13,23.11,3.92,5.55,8.06,4.64,16.66-4.58,23.01l-2.1,1.44-12.02,8.28-2.1,1.44c-4.3,2.97-4.67,6.32-2.55,9.4,2.13,3.09,5.4,3.93,9.7.97l14.13-9.73,5.7,8.28-14.13,9.73c-9.16,6.31-17.58,4.13-23.12-3.92Z"/>
  <path class="cls-1" d="M504.7,135.97c-5.54-8.06-4.64-16.66,4.58-23l2.1-1.44,12.04-8.28,2.09-1.44c4.31-2.97,4.68-6.32,2.55-9.41-2.12-3.09-5.39-3.93-9.69-.96l-14.13,9.73-5.7-8.28,14.13-9.73c9.15-6.31,17.57-4.14,23.12,3.92,5.54,8.06,4.64,16.66-4.59,23.01l-2.09,1.43-12.03,8.29-2.09,1.44c-4.31,2.96-4.68,6.31-2.56,9.4,2.13,3.09,5.4,3.93,9.7.96l14.13-9.73,5.7,8.28-14.13,9.73c-9.16,6.31-17.57,4.14-23.12-3.92Z"/>
  <path class="cls-1" d="M523.42,103.25h-.01s-12.02,8.28-12.02,8.28l12.04-8.28Z"/>
  <path class="cls-1" d="M635.58,211.59c-5.55-8.06-4.64-16.66,4.58-23.01l2.1-1.44,12.02-8.28,2.1-1.44c4.3-2.97,4.67-6.32,2.55-9.4-2.13-3.1-5.39-3.93-9.7-.97l-14.13,9.73-5.7-8.28,14.13-9.73c9.16-6.31,17.58-4.13,23.12,3.92,5.55,8.06,4.64,16.66-4.58,23.01l-2.1,1.44-12.02,8.28-2.1,1.44c-4.3,2.97-4.68,6.32-2.55,9.4,2.12,3.09,5.39,3.93,9.69.97l14.13-9.73,5.7,8.27-14.13,9.74c-9.15,6.31-17.57,4.13-23.11-3.92Z"/>
  <path class="cls-1" d="M591.9,186.65c-5.55-8.06-4.64-16.66,4.58-23.01l14.13-9.73,2.1-1.44c4.3-2.96,4.68-6.32,2.55-9.4-2.12-3.09-5.39-3.93-9.7-.96l-14.13,9.73-5.7-8.28,14.13-9.73c9.16-6.31,17.58-4.14,23.12,3.92,5.55,8.06,4.64,16.66-4.58,23l-2.1,1.44-12.02,8.29-2.1,1.44c-4.3,2.96-4.68,6.31-2.55,9.4,2.12,3.09,5.39,3.93,9.69.96l14.13-9.73,5.71,8.28-14.13,9.73c-9.16,6.31-17.58,4.14-23.12-3.92Z"/>
  <path class="cls-1" d="M634.88-5.26c-5.54-8.06-4.63-16.66,4.59-23.01l2.1-1.44,12.02-8.28,2.1-1.44c4.3-2.97,4.67-6.32,2.55-9.4-2.13-3.09-5.39-3.93-9.7-.96l-14.13,9.73-5.7-8.28,14.13-9.74c9.16-6.31,17.57-4.13,23.12,3.93,5.54,8.05,4.64,16.65-4.58,23l-2.1,1.44-12.02,8.28-2.1,1.44c-4.3,2.97-4.68,6.32-2.55,9.4,2.12,3.1,5.39,3.94,9.69.97l14.13-9.73,5.7,8.28-14.13,9.73c-9.15,6.31-17.57,4.13-23.12-3.92Z"/>
  <path class="cls-1" d="M766.22,359.37c-5.54-8.05-4.64-16.65,4.58-23l2.1-1.44,12.02-8.28,2.1-1.44c4.31-2.97,4.68-6.32,2.56-9.41-2.13-3.09-5.4-3.93-9.7-.96l-14.13,9.73-5.7-8.28,14.13-9.73c9.15-6.31,17.57-4.14,23.12,3.92,5.54,8.06,4.64,16.66-4.59,23.01l-2.09,1.44-12.04,8.28-2.09,1.44c-4.31,2.96-4.68,6.32-2.56,9.4,2.13,3.09,5.4,3.93,9.7.96l14.13-9.73,5.7,8.28-14.13,9.73c-9.16,6.32-17.57,4.14-23.12-3.92Z"/>
  <path class="cls-1" d="M722.54,334.44c-5.54-8.06-4.64-16.66,4.58-23.01l2.1-1.44,12.02-8.28,2.1-1.44c4.31-2.96,4.68-6.32,2.56-9.4-2.13-3.09-5.4-3.93-9.7-.96l-14.13,9.73-5.7-8.28,14.13-9.73c9.15-6.32,17.57-4.14,23.12,3.92,5.54,8.05,4.64,16.65-4.58,23l-2.1,1.44-12.02,8.28-2.1,1.44c-4.31,2.97-4.68,6.32-2.56,9.4,2.13,3.1,5.4,3.94,9.7.97l14.13-9.73,5.7,8.28-14.13,9.73c-9.15,6.31-17.57,4.14-23.12-3.92Z"/>
  <path class="cls-1" d="M809.73,385.12c-5.55-8.06-4.64-16.66,4.58-23.01l2.1-1.44,12.02-8.28,2.1-1.44c4.3-2.97,4.68-6.32,2.55-9.4-2.12-3.09-5.39-3.93-9.69-.96l-14.13,9.73-5.71-8.28,14.13-9.74c9.16-6.31,17.58-4.13,23.12,3.93,5.55,8.05,4.64,16.65-4.58,23l-2.1,1.44-12.02,8.28-2.1,1.44c-4.3,2.97-4.68,6.32-2.55,9.4,2.13,3.1,5.39,3.94,9.7.97l14.13-9.73,5.7,8.28-14.13,9.73c-9.16,6.31-17.58,4.13-23.12-3.92Z"/>
  <path class="cls-1" d="M721.59,406.39c-5.54-8.05-4.63-16.65,4.59-23l2.1-1.44,12.02-8.28,2.1-1.44c4.3-2.97,4.67-6.32,2.55-9.4-2.13-3.1-5.39-3.93-9.7-.97l-14.13,9.73-5.7-8.28,14.13-9.73c9.16-6.31,17.57-4.13,23.12,3.92,5.54,8.06,4.64,16.66-4.58,23.01l-2.1,1.44-12.02,8.28-2.1,1.44c-4.3,2.97-4.68,6.32-2.55,9.4,2.12,3.09,5.39,3.93,9.69.97l14.13-9.74,5.7,8.28-14.13,9.74c-9.15,6.31-17.57,4.13-23.12-3.93Z"/>
  <path class="cls-1" d="M702.31,357l-12.04,8.28h.01s12.02-8.28,12.02-8.28Z"/>
  <path class="cls-1" d="M677.91,381.46c-5.55-8.06-4.64-16.66,4.58-23.01l14.13-9.73,2.1-1.44c4.3-2.96,4.67-6.32,2.55-9.4-2.13-3.09-5.39-3.93-9.7-.96l-14.13,9.73-5.7-8.28,14.13-9.73c9.16-6.32,17.58-4.14,23.12,3.92,5.54,8.06,4.64,16.65-4.58,23l-2.1,1.44-12.04,8.28-2.09,1.44c-4.3,2.97-4.68,6.32-2.55,9.41,2.12,3.09,5.39,3.93,9.69.96l14.13-9.73,5.7,8.28-14.13,9.73c-9.15,6.31-17.57,4.14-23.11-3.92Z"/>
  <path class="cls-1" d="M808.78,457.07c-5.54-8.05-4.64-16.65,4.58-23l2.1-1.44,12.02-8.28,2.1-1.44c4.3-2.97,4.68-6.32,2.55-9.4-2.12-3.1-5.39-3.94-9.69-.97l-14.13,9.73-5.7-8.28,14.13-9.73c9.15-6.31,17.57-4.13,23.11,3.92,5.55,8.06,4.65,16.66-4.58,23.01l-2.1,1.44-12.02,8.28-2.1,1.44c-4.3,2.97-4.67,6.32-2.55,9.4,2.13,3.09,5.4,3.93,9.7.97l14.13-9.74,5.7,8.28-14.13,9.73c-9.16,6.32-17.58,4.14-23.12-3.92Z"/>
  <path class="cls-1" d="M765.09,432.14c-5.54-8.06-4.64-16.66,4.58-23.01l2.1-1.44,12.02-8.28,2.1-1.44c4.31-2.96,4.68-6.32,2.55-9.4-2.12-3.09-5.39-3.93-9.69-.96l-14.13,9.73-5.7-8.28,14.13-9.73c9.15-6.32,17.57-4.14,23.12,3.92,5.54,8.05,4.64,16.65-4.59,23l-2.09,1.44-12.04,8.28-2.09,1.44c-4.31,2.97-4.68,6.32-2.56,9.41,2.13,3.09,5.4,3.93,9.7.96l14.13-9.73,5.7,8.28-14.13,9.73c-9.16,6.31-17.57,4.14-23.12-3.92Z"/>
  <path class="cls-1" d="M766.76,501.97c-5.55-8.06-4.64-16.66,4.58-23.01l2.1-1.44,12.02-8.28,2.1-1.44c4.3-2.97,4.68-6.32,2.55-9.4-2.13-3.1-5.39-3.93-9.7-.97l-14.13,9.73-5.7-8.28,14.13-9.73c9.16-6.31,17.58-4.13,23.12,3.92,5.55,8.06,4.64,16.66-4.58,23.01l-2.1,1.44-12.02,8.28-2.1,1.44c-4.3,2.97-4.68,6.32-2.55,9.4,2.12,3.09,5.39,3.93,9.69.97l14.13-9.73,5.71,8.28-14.13,9.73c-9.16,6.31-17.58,4.13-23.12-3.92Z"/>
  <path class="cls-1" d="M723.07,477.03c-5.55-8.06-4.64-16.66,4.58-23.01l14.13-9.73,2.1-1.44c4.3-2.96,4.68-6.32,2.55-9.4-2.12-3.09-5.39-3.93-9.69-.96l-14.13,9.73-5.71-8.28,14.13-9.73c9.16-6.31,17.58-4.14,23.12,3.92,5.55,8.06,4.64,16.66-4.58,23l-2.1,1.44-12.02,8.29-2.1,1.44c-4.3,2.96-4.68,6.31-2.55,9.4,2.12,3.09,5.39,3.93,9.69.96l14.13-9.73,5.71,8.28-14.13,9.73c-9.16,6.31-17.58,4.14-23.12-3.92Z"/>
  <path class="cls-1" d="M834.67,503.25l-12.04,8.28h.01s12.02-8.28,12.02-8.28Z"/>
  <path class="cls-1" d="M810.26,527.71c-5.54-8.06-4.64-16.66,4.58-23.01l14.13-9.73,2.1-1.44c4.31-2.96,4.68-6.32,2.56-9.4-2.13-3.09-5.4-3.93-9.7-.96l-14.13,9.73-5.7-8.28,14.13-9.73c9.15-6.31,17.57-4.14,23.12,3.92,5.54,8.06,4.64,16.66-4.58,23l-2.1,1.44-12.04,8.28-2.09,1.44c-4.31,2.97-4.68,6.32-2.55,9.41,2.12,3.09,5.39,3.93,9.69.96l14.13-9.73,5.7,8.28-14.13,9.73c-9.15,6.31-17.57,4.14-23.12-3.92Z"/>
  <path class="cls-1" d="M722.12,548.99c-5.55-8.06-4.64-16.66,4.58-23.01l2.1-1.44,12.02-8.28,2.1-1.44c4.3-2.97,4.68-6.32,2.55-9.4-2.12-3.09-5.39-3.93-9.69-.97l-14.13,9.74-5.71-8.28,14.13-9.74c9.16-6.31,17.58-4.13,23.12,3.93,5.55,8.05,4.64,16.65-4.58,23l-2.1,1.44-12.02,8.28-2.1,1.44c-4.3,2.97-4.67,6.32-2.55,9.4,2.13,3.1,5.39,3.93,9.7.97l14.13-9.73,5.7,8.28-14.13,9.73c-9.16,6.31-17.58,4.13-23.12-3.92Z"/>
  <path class="cls-1" d="M678.43,524.05c-5.54-8.05-4.64-16.65,4.58-23l2.1-1.44,12.04-8.28,2.09-1.44c4.3-2.97,4.68-6.32,2.55-9.41-2.12-3.09-5.39-3.93-9.69-.96l-14.13,9.73-5.7-8.28,14.13-9.73c9.15-6.31,17.57-4.14,23.11,3.92,5.55,8.06,4.65,16.66-4.58,23.01l-2.1,1.44-12.02,8.28-2.1,1.44c-4.3,2.96-4.67,6.32-2.55,9.4,2.13,3.09,5.4,3.93,9.7.96l14.13-9.73,5.7,8.28-14.13,9.73c-9.16,6.32-17.58,4.14-23.12-3.92Z"/>
  <path class="cls-1" d="M697.15,491.33h-.01s-12.02,8.28-12.02,8.28l12.04-8.28Z"/>
  <path class="cls-1" d="M809.31,599.67c-5.55-8.06-4.64-16.66,4.58-23.01l2.1-1.44,12.02-8.28,2.1-1.44c4.3-2.97,4.67-6.32,2.55-9.4-2.13-3.09-5.39-3.93-9.7-.97l-14.13,9.74-5.7-8.29,14.13-9.73c9.16-6.31,17.58-4.13,23.12,3.93,5.54,8.05,4.64,16.65-4.58,23l-2.1,1.44-12.02,8.28-2.1,1.44c-4.3,2.97-4.68,6.32-2.55,9.4,2.12,3.09,5.39,3.93,9.69.97l14.13-9.73,5.7,8.28-14.13,9.73c-9.15,6.31-17.57,4.13-23.11-3.92Z"/>
  <path class="cls-1" d="M765.63,574.73c-5.55-8.06-4.64-16.66,4.58-23l2.1-1.44,12.04-8.28,2.09-1.44c4.3-2.97,4.67-6.32,2.55-9.41-2.13-3.09-5.39-3.93-9.7-.96l-14.13,9.73-5.7-8.28,14.13-9.73c9.16-6.31,17.58-4.14,23.12,3.92,5.55,8.06,4.64,16.66-4.58,23.01l-2.1,1.44-12.02,8.28-2.1,1.44c-4.3,2.96-4.68,6.32-2.55,9.4,2.12,3.09,5.39,3.93,9.69.96l14.13-9.73,5.7,8.28-14.13,9.73c-9.15,6.31-17.57,4.14-23.11-3.92Z"/>
  <path class="cls-1" d="M784.34,542h-.01s-12.02,8.28-12.02,8.28l12.04-8.28Z"/>
  <path class="cls-1" d="M547.74,448.51c-5.54-8.06-4.64-16.66,4.59-23l2.1-1.44,12.04-8.28,2.09-1.44c4.3-2.97,4.67-6.32,2.55-9.41-2.13-3.09-5.39-3.93-9.7-.96l-14.13,9.73-5.7-8.28,14.13-9.73c9.16-6.31,17.57-4.14,23.12,3.92,5.54,8.06,4.64,16.66-4.58,23.01l-14.13,9.73-2.1,1.44c-4.3,2.96-4.68,6.32-2.55,9.4,2.12,3.09,5.39,3.93,9.69.96l14.13-9.73,5.7,8.28-14.13,9.73c-9.15,6.31-17.57,4.14-23.12-3.92Z"/>
  <path class="cls-1" d="M566.46,415.78h-.01s-12.02,8.28-12.02,8.28l12.04-8.28Z"/>
  <path class="cls-1" d="M504.07,423.57c-5.55-8.06-4.64-16.66,4.58-23.01l2.1-1.44,12.02-8.28,2.1-1.44c4.3-2.97,4.67-6.32,2.55-9.4-2.13-3.09-5.39-3.93-9.7-.97l-14.13,9.74-5.7-8.29,14.13-9.73c9.16-6.31,17.58-4.13,23.12,3.93,5.54,8.05,4.64,16.65-4.58,23l-2.1,1.44-12.02,8.28-2.1,1.44c-4.3,2.97-4.68,6.32-2.55,9.4,2.12,3.09,5.39,3.93,9.69.97l14.13-9.73,5.7,8.28-14.13,9.73c-9.15,6.31-17.57,4.13-23.11-3.92Z"/>
  <path class="cls-1" d="M634.93,499.18c-5.54-8.06-4.64-16.66,4.58-23.01l14.13-9.73,2.1-1.44c4.3-2.96,4.68-6.32,2.55-9.4-2.12-3.09-5.39-3.93-9.69-.96l-14.13,9.73-5.7-8.28,14.13-9.73c9.15-6.31,17.57-4.14,23.11,3.92,5.55,8.06,4.64,16.66-4.58,23l-2.1,1.44-12.02,8.29-2.1,1.44c-4.3,2.96-4.67,6.31-2.55,9.4,2.13,3.09,5.39,3.93,9.7.96l14.13-9.73,5.7,8.28-14.13,9.73c-9.16,6.31-17.58,4.14-23.12-3.92Z"/>
  <path class="cls-1" d="M591.25,474.25c-5.54-8.06-4.64-16.66,4.58-23.01l2.1-1.44,12.02-8.28,2.1-1.44c4.31-2.97,4.68-6.32,2.55-9.4-2.12-3.09-5.39-3.93-9.69-.97l-14.13,9.73-5.7-8.28,14.13-9.73c9.15-6.31,17.57-4.13,23.12,3.92,5.54,8.06,4.64,16.66-4.59,23.01l-2.1,1.44-12.02,8.28-2.1,1.44c-4.3,2.97-4.67,6.32-2.55,9.4,2.13,3.09,5.4,3.93,9.7.97l14.13-9.73,5.7,8.28-14.13,9.73c-9.16,6.31-17.57,4.13-23.12-3.92Z"/>
  <path class="cls-1" d="M593.16,400.41c-5.55-8.06-4.64-16.66,4.58-23.01l2.1-1.44,12.02-8.28,2.1-1.44c4.3-2.97,4.68-6.32,2.55-9.4-2.12-3.09-5.39-3.93-9.69-.96l-14.13,9.73-5.71-8.28,14.13-9.74c9.16-6.31,17.58-4.13,23.12,3.93,5.55,8.05,4.64,16.65-4.58,23l-2.1,1.44-12.02,8.28-2.1,1.44c-4.3,2.97-4.67,6.32-2.55,9.4,2.13,3.1,5.39,3.94,9.7.97l14.13-9.73,5.7,8.28-14.13,9.73c-9.16,6.31-17.58,4.13-23.12-3.92Z"/>
  <path class="cls-1" d="M549.47,375.47c-5.54-8.05-4.64-16.65,4.58-23l2.1-1.44,12.02-8.28,2.1-1.44c4.3-2.97,4.68-6.32,2.55-9.41-2.12-3.09-5.39-3.93-9.69-.96l-14.13,9.73-5.7-8.28,14.13-9.73c9.15-6.31,17.57-4.14,23.11,3.92,5.55,8.06,4.64,16.66-4.58,23.01l-2.1,1.44-12.02,8.28-2.1,1.44c-4.3,2.96-4.67,6.32-2.55,9.4,2.13,3.09,5.39,3.93,9.7.96l14.13-9.73,5.7,8.28-14.13,9.73c-9.16,6.32-17.58,4.14-23.12-3.92Z"/>
  <path class="cls-1" d="M680.34,451.09c-5.54-8.06-4.63-16.66,4.59-23.01l2.1-1.44,12.02-8.28,2.1-1.44c4.3-2.97,4.67-6.32,2.55-9.4-2.13-3.09-5.39-3.93-9.7-.97l-14.13,9.74-5.7-8.28,14.13-9.74c9.16-6.31,17.57-4.13,23.12,3.93,5.54,8.05,4.64,16.65-4.58,23l-2.1,1.44-12.02,8.28-2.1,1.44c-4.3,2.97-4.68,6.32-2.55,9.4,2.12,3.1,5.39,3.93,9.69.97l14.13-9.73,5.7,8.28-14.13,9.73c-9.15,6.31-17.57,4.13-23.12-3.92Z"/>
  <path class="cls-1" d="M636.67,426.14c-5.55-8.05-4.64-16.65,4.58-23l2.1-1.44,12.02-8.28,2.1-1.44c4.3-2.97,4.67-6.32,2.55-9.41-2.13-3.09-5.39-3.93-9.7-.96l-14.13,9.73-5.7-8.28,14.13-9.73c9.16-6.31,17.58-4.14,23.12,3.92,5.55,8.06,4.64,16.66-4.58,23.01l-2.1,1.44-12.02,8.28-2.1,1.44c-4.3,2.96-4.68,6.32-2.55,9.4,2.12,3.09,5.39,3.93,9.69.96l14.13-9.73,5.7,8.28-14.13,9.73c-9.15,6.32-17.57,4.14-23.11-3.92Z"/>
  <path class="cls-1" d="M722.19,622.55c-5.55-8.05-4.64-16.65,4.58-23l2.1-1.44,12.02-8.28,2.1-1.44c4.3-2.97,4.68-6.32,2.55-9.4-2.12-3.1-5.39-3.93-9.69-.97l-14.13,9.73-5.71-8.28,14.13-9.73c9.16-6.31,17.58-4.13,23.12,3.92,5.55,8.06,4.64,16.66-4.58,23.01l-2.1,1.44-12.02,8.28-2.1,1.44c-4.3,2.97-4.68,6.32-2.55,9.4,2.13,3.09,5.39,3.93,9.7.97l14.13-9.74,5.7,8.28-14.13,9.74c-9.16,6.31-17.58,4.13-23.12-3.93Z"/>
  <path class="cls-1" d="M702.91,573.16l-12.03,8.28h.01s12.02-8.28,12.02-8.28Z"/>
  <path class="cls-1" d="M678.51,597.61c-5.55-8.06-4.64-16.66,4.58-23.01l2.1-1.44,12.02-8.28,2.1-1.44c4.3-2.96,4.68-6.32,2.55-9.4-2.12-3.09-5.39-3.93-9.69-.96l-14.13,9.73-5.71-8.28,14.13-9.73c9.16-6.32,17.58-4.14,23.12,3.92,5.55,8.05,4.64,16.65-4.58,23l-2.1,1.44-12.03,8.28-2.09,1.44c-4.3,2.97-4.67,6.32-2.55,9.41,2.13,3.09,5.39,3.93,9.7.96l14.13-9.73,5.7,8.28-14.13,9.73c-9.16,6.31-17.58,4.14-23.12-3.92Z"/>
  <path class="cls-1" d="M765.69,648.29c-5.54-8.06-4.63-16.66,4.59-23.01l2.1-1.44,12.02-8.28,2.1-1.44c4.3-2.96,4.67-6.32,2.55-9.4-2.13-3.09-5.39-3.93-9.7-.96l-14.13,9.73-5.7-8.28,14.13-9.73c9.16-6.32,17.57-4.14,23.12,3.92,5.54,8.05,4.64,16.65-4.58,23l-2.1,1.44-12.02,8.28-2.1,1.44c-4.3,2.97-4.68,6.32-2.55,9.4,2.12,3.1,5.39,3.94,9.69.97l14.13-9.73,5.7,8.28-14.13,9.73c-9.15,6.31-17.57,4.14-23.12-3.92Z"/>
  <path class="cls-1" d="M573.01,497.49l-12.04,8.28h.01s12.02-8.28,12.02-8.28Z"/>
  <path class="cls-1" d="M548.61,521.94c-5.54-8.06-4.64-16.66,4.58-23.01l14.13-9.73,2.1-1.44c4.31-2.96,4.68-6.32,2.55-9.4-2.12-3.09-5.39-3.93-9.69-.96l-14.13,9.73-5.7-8.28,14.13-9.73c9.15-6.32,17.57-4.14,23.12,3.92,5.54,8.06,4.64,16.66-4.59,23l-2.1,1.44-12.04,8.28-2.09,1.44c-4.3,2.97-4.67,6.32-2.55,9.41,2.13,3.09,5.4,3.93,9.7.96l14.13-9.73,5.7,8.28-14.13,9.73c-9.16,6.31-17.57,4.14-23.12-3.92Z"/>
  <path class="cls-1" d="M504.92,497c-5.54-8.05-4.64-16.65,4.58-23l2.1-1.44,12.02-8.28,2.1-1.44c4.31-2.97,4.68-6.32,2.56-9.4-2.13-3.1-5.4-3.93-9.7-.97l-14.13,9.73-5.7-8.28,14.13-9.73c9.15-6.31,17.57-4.13,23.12,3.92,5.54,8.06,4.64,16.66-4.59,23.01l-2.09,1.44-12.03,8.28-2.09,1.44c-4.31,2.97-4.68,6.32-2.56,9.4,2.13,3.09,5.4,3.93,9.7.97l14.13-9.73,5.7,8.27-14.13,9.74c-9.15,6.31-17.57,4.13-23.12-3.93Z"/>
  <path class="cls-1" d="M635.8,572.62c-5.55-8.06-4.64-16.66,4.58-23.01l2.1-1.44,12.02-8.28,2.1-1.44c4.3-2.96,4.68-6.32,2.55-9.4-2.12-3.09-5.39-3.93-9.7-.96l-14.13,9.73-5.7-8.28,14.13-9.73c9.16-6.32,17.58-4.14,23.12,3.92,5.55,8.05,4.64,16.65-4.58,23l-2.1,1.44-12.02,8.28-2.1,1.44c-4.3,2.97-4.68,6.32-2.55,9.41,2.12,3.09,5.39,3.93,9.69.96l14.13-9.73,5.71,8.28-14.13,9.73c-9.16,6.31-17.58,4.14-23.12-3.92Z"/>
  <path class="cls-1" d="M592.11,547.68c-5.55-8.05-4.64-16.65,4.58-23l2.1-1.44,12.02-8.28,2.1-1.44c4.3-2.97,4.68-6.32,2.55-9.4-2.12-3.1-5.39-3.93-9.69-.97l-14.13,9.73-5.71-8.28,14.13-9.73c9.16-6.31,17.58-4.13,23.12,3.92,5.55,8.06,4.64,16.66-4.58,23.01l-2.1,1.44-12.02,8.28-2.1,1.44c-4.3,2.97-4.68,6.32-2.55,9.4,2.12,3.09,5.39,3.93,9.7.97l14.13-9.74,5.7,8.28-14.13,9.74c-9.16,6.31-17.58,4.13-23.12-3.93Z"/>
  <path class="cls-1" d="M547.91,305.09c-5.55-8.06-4.64-16.66,4.58-23l2.1-1.44,12.04-8.28,2.09-1.44c4.3-2.97,4.68-6.32,2.55-9.41-2.12-3.09-5.39-3.93-9.69-.96l-14.13,9.73-5.7-8.28,14.13-9.73c9.15-6.31,17.57-4.14,23.11,3.92,5.55,8.06,4.64,16.66-4.58,23.01l-2.1,1.44-12.02,8.28-2.1,1.44c-4.3,2.96-4.67,6.32-2.55,9.4,2.13,3.09,5.39,3.93,9.7.96l14.13-9.73,5.7,8.28-14.13,9.73c-9.16,6.32-17.58,4.14-23.12-3.92Z"/>
  <path class="cls-1" d="M566.62,272.37h-.01s-12.02,8.28-12.02,8.28l12.04-8.28Z"/>
  <path class="cls-1" d="M504.23,280.16c-5.54-8.06-4.64-16.66,4.58-23.01l2.1-1.44,12.02-8.28,2.1-1.44c4.31-2.97,4.68-6.32,2.55-9.4-2.12-3.09-5.39-3.93-9.69-.97l-14.13,9.74-5.7-8.28,14.13-9.74c9.15-6.31,17.57-4.13,23.12,3.93,5.54,8.05,4.64,16.65-4.59,23l-2.1,1.44-12.02,8.28-2.1,1.44c-4.3,2.97-4.67,6.32-2.55,9.4,2.13,3.1,5.4,3.94,9.7.97l14.13-9.73,5.7,8.28-14.13,9.73c-9.16,6.31-17.57,4.13-23.12-3.92Z"/>
  <path class="cls-1" d="M635.1,355.77c-5.55-8.06-4.64-16.66,4.58-23l2.1-1.44,12.04-8.28,2.09-1.44c4.3-2.97,4.67-6.32,2.55-9.41-2.13-3.09-5.39-3.93-9.7-.96l-14.13,9.73-5.7-8.28,14.13-9.73c9.16-6.31,17.58-4.14,23.12,3.92,5.54,8.06,4.64,16.66-4.58,23.01l-14.13,9.73-2.1,1.44c-4.3,2.96-4.68,6.32-2.55,9.4,2.12,3.09,5.39,3.93,9.69.96l14.13-9.73,5.7,8.28-14.13,9.73c-9.15,6.31-17.57,4.14-23.11-3.92Z"/>
  <path class="cls-1" d="M653.82,323.05h-.01s-12.02,8.28-12.02,8.28l12.04-8.28Z"/>
  <path class="cls-1" d="M591.42,330.84c-5.55-8.06-4.64-16.66,4.58-23.01l2.1-1.44,12.02-8.28,2.1-1.44c4.3-2.97,4.68-6.32,2.55-9.4-2.13-3.09-5.39-3.93-9.7-.97l-14.13,9.74-5.7-8.29,14.13-9.73c9.16-6.31,17.58-4.13,23.12,3.93,5.55,8.05,4.64,16.65-4.58,23l-2.1,1.44-12.02,8.28-2.1,1.44c-4.3,2.97-4.68,6.32-2.55,9.4,2.12,3.1,5.39,3.93,9.69.97l14.13-9.73,5.71,8.28-14.13,9.73c-9.16,6.31-17.58,4.13-23.12-3.92Z"/>
  <path class="cls-1" d="M592.88,258.48c-5.55-8.05-4.64-16.65,4.58-23l2.1-1.44,12.02-8.28,2.1-1.44c4.3-2.97,4.68-6.32,2.55-9.41-2.12-3.09-5.39-3.93-9.7-.96l-14.13,9.73-5.7-8.28,14.13-9.73c9.16-6.31,17.58-4.14,23.12,3.92,5.55,8.06,4.64,16.66-4.58,23.01l-2.1,1.44-12.02,8.28-2.1,1.44c-4.3,2.96-4.68,6.32-2.55,9.4,2.12,3.09,5.39,3.93,9.69.96l14.13-9.73,5.71,8.28-14.13,9.73c-9.16,6.32-17.58,4.14-23.12-3.92Z"/>
  <path class="cls-1" d="M549.2,233.54c-5.55-8.06-4.64-16.66,4.58-23.01l2.1-1.44,12.02-8.28,2.1-1.44c4.3-2.97,4.68-6.32,2.55-9.4-2.12-3.09-5.39-3.93-9.69-.96l-14.13,9.73-5.71-8.28,14.13-9.74c9.16-6.31,17.58-4.13,23.12,3.93,5.55,8.05,4.64,16.65-4.58,23l-2.1,1.44-12.02,8.28-2.1,1.44c-4.3,2.97-4.68,6.32-2.55,9.4,2.13,3.1,5.39,3.94,9.7.97l14.13-9.73,5.7,8.28-14.13,9.73c-9.16,6.31-17.58,4.13-23.12-3.92Z"/>
  <path class="cls-1" d="M680.06,309.15c-5.54-8.06-4.64-16.66,4.58-23l2.1-1.44,12.04-8.28,2.09-1.44c4.31-2.97,4.68-6.32,2.56-9.41-2.13-3.09-5.4-3.93-9.7-.96l-14.13,9.73-5.7-8.28,14.13-9.73c9.15-6.31,17.57-4.14,23.12,3.92,5.54,8.06,4.64,16.66-4.58,23.01l-2.1,1.44-12.02,8.28-2.1,1.44c-4.31,2.96-4.68,6.32-2.56,9.4,2.13,3.09,5.4,3.93,9.7.96l14.13-9.73,5.7,8.28-14.13,9.73c-9.15,6.32-17.57,4.14-23.12-3.92Z"/>
  <path class="cls-1" d="M698.77,276.43h-.01s-12.02,8.28-12.02,8.28l12.04-8.28Z"/>
  <path class="cls-1" d="M636.38,284.22c-5.54-8.06-4.64-16.66,4.59-23.01l2.1-1.44,12.02-8.28,2.1-1.44c4.3-2.97,4.67-6.32,2.55-9.4-2.13-3.09-5.39-3.93-9.7-.97l-14.13,9.74-5.7-8.28,14.13-9.74c9.16-6.31,17.57-4.13,23.12,3.93,5.54,8.05,4.64,16.65-4.58,23l-2.1,1.44-12.02,8.28-2.1,1.44c-4.3,2.97-4.68,6.32-2.55,9.4,2.12,3.1,5.39,3.94,9.69.97l14.13-9.73,5.7,8.28-14.13,9.73c-9.15,6.31-17.57,4.13-23.12-3.92Z"/>
  <path class="cls-1" d="M550.07,594.22c-5.54-8.06-4.64-16.66,4.58-23.01l14.13-9.73,2.1-1.44c4.31-2.96,4.68-6.32,2.55-9.4-2.12-3.09-5.39-3.93-9.69-.96l-14.13,9.73-5.7-8.28,14.13-9.73c9.15-6.32,17.57-4.14,23.12,3.92,5.54,8.06,4.64,16.66-4.59,23l-2.1,1.44-12.04,8.28-2.09,1.44c-4.3,2.97-4.67,6.32-2.55,9.41,2.13,3.09,5.4,3.93,9.7.96l14.13-9.73,5.7,8.28-14.13,9.73c-9.16,6.31-17.57,4.14-23.12-3.92Z"/>
  <path class="cls-1" d="M506.61,568.52c-5.54-8.05-4.64-16.65,4.58-23l2.1-1.44,12.02-8.28,2.1-1.44c4.31-2.97,4.68-6.32,2.56-9.4-2.13-3.1-5.4-3.93-9.7-.97l-14.13,9.73-5.7-8.28,14.13-9.73c9.15-6.31,17.57-4.13,23.12,3.92,5.54,8.06,4.64,16.66-4.59,23.01l-2.09,1.44-12.03,8.28-2.09,1.44c-4.31,2.97-4.68,6.32-2.56,9.4,2.13,3.09,5.4,3.93,9.7.97l14.13-9.73,5.7,8.27-14.13,9.74c-9.15,6.31-17.57,4.13-23.12-3.93Z"/>
  <path class="cls-1" d="M637.26,644.9c-5.55-8.06-4.64-16.66,4.58-23.01l2.1-1.44,12.02-8.28,2.1-1.44c4.3-2.96,4.68-6.32,2.55-9.4-2.12-3.09-5.39-3.93-9.7-.96l-14.13,9.73-5.7-8.28,14.13-9.73c9.16-6.32,17.58-4.14,23.12,3.92,5.55,8.05,4.64,16.65-4.58,23l-2.1,1.44-12.02,8.28-2.1,1.44c-4.3,2.97-4.68,6.32-2.55,9.41,2.12,3.09,5.39,3.93,9.69.96l14.13-9.73,5.71,8.28-14.13,9.73c-9.16,6.31-17.58,4.14-23.12-3.92Z"/>
  <path class="cls-1" d="M593.58,619.96c-5.55-8.05-4.64-16.65,4.58-23l2.1-1.44,12.02-8.28,2.1-1.44c4.3-2.97,4.68-6.32,2.55-9.4-2.12-3.1-5.39-3.93-9.69-.97l-14.13,9.73-5.71-8.28,14.13-9.73c9.16-6.31,17.58-4.13,23.12,3.92,5.55,8.06,4.64,16.66-4.58,23.01l-2.1,1.44-12.02,8.28-2.1,1.44c-4.3,2.97-4.68,6.32-2.55,9.4,2.12,3.09,5.39,3.93,9.7.97l14.13-9.74,5.7,8.28-14.13,9.74c-9.16,6.31-17.58,4.13-23.12-3.93Z"/>
  <path class="cls-1" d="M507.88,643.28c-5.54-8.05-4.64-16.65,4.58-23l2.1-1.44,12.02-8.28,2.1-1.44c4.31-2.97,4.68-6.32,2.56-9.4-2.13-3.1-5.4-3.93-9.7-.97l-14.13,9.73-5.7-8.28,14.13-9.73c9.15-6.31,17.57-4.13,23.12,3.92,5.54,8.06,4.64,16.66-4.59,23.01l-2.09,1.44-12.03,8.28-2.09,1.44c-4.31,2.97-4.68,6.32-2.56,9.4,2.13,3.09,5.4,3.93,9.7.97l14.13-9.73,5.7,8.27-14.13,9.74c-9.15,6.31-17.57,4.13-23.12-3.93Z"/>
  <path class="cls-1" d="M505.29,350.97c-5.54-8.05-4.64-16.65,4.58-23l2.1-1.44,12.02-8.28,2.1-1.44c4.3-2.97,4.68-6.32,2.55-9.41-2.12-3.09-5.39-3.93-9.69-.96l-14.13,9.73-5.7-8.28,14.13-9.73c9.15-6.31,17.57-4.14,23.11,3.92,5.55,8.06,4.64,16.66-4.58,23.01l-2.1,1.44-12.02,8.28-2.1,1.44c-4.3,2.96-4.67,6.32-2.55,9.4,2.13,3.09,5.39,3.93,9.7.96l14.13-9.73,5.7,8.28-14.13,9.73c-9.16,6.32-17.58,4.14-23.12-3.92Z"/>
  <path class="cls-1" d="M505.18,208.62c-5.55-8.06-4.64-16.66,4.58-23.01l2.1-1.44,12.02-8.28,2.1-1.44c4.3-2.97,4.68-6.32,2.55-9.4-2.12-3.09-5.39-3.93-9.69-.96l-14.13,9.73-5.71-8.28,14.13-9.74c9.16-6.31,17.58-4.13,23.12,3.93,5.55,8.05,4.64,16.65-4.58,23l-2.1,1.44-12.02,8.28-2.1,1.44c-4.3,2.97-4.68,6.32-2.55,9.4,2.13,3.1,5.39,3.94,9.7.97l14.13-9.73,5.7,8.28-14.13,9.73c-9.16,6.31-17.58,4.13-23.12-3.92Z"/>
  <path class="cls-1" d="M418.7,12.87c-5.54-8.06-4.64-16.66,4.58-23.01l2.1-1.44,12.02-8.28,2.1-1.44c4.31-2.96,4.68-6.32,2.55-9.4-2.12-3.09-5.39-3.93-9.69-.96l-14.13,9.73-5.7-8.28,14.13-9.73c9.15-6.32,17.57-4.14,23.12,3.92,5.54,8.05,4.64,16.65-4.59,23l-2.1,1.44-12.02,8.28-2.1,1.44c-4.3,2.97-4.67,6.32-2.55,9.41,2.13,3.09,5.4,3.93,9.7.96l14.13-9.73,5.7,8.28-14.13,9.73c-9.16,6.31-17.57,4.14-23.12-3.92Z"/>
  <path class="cls-1" d="M462.21,38.61c-5.55-8.05-4.64-16.65,4.58-23l2.1-1.44,12.02-8.28,2.1-1.44c4.3-2.97,4.68-6.32,2.55-9.4-2.12-3.1-5.39-3.94-9.69-.97l-14.13,9.73-5.71-8.28,14.13-9.73c9.16-6.31,17.58-4.13,23.12,3.92,5.55,8.06,4.64,16.66-4.58,23.01l-2.1,1.44-12.02,8.28-2.1,1.44c-4.3,2.96-4.68,6.32-2.55,9.4,2.12,3.09,5.39,3.93,9.7.97l14.13-9.74,5.7,8.28-14.13,9.73c-9.16,6.32-17.58,4.14-23.12-3.92Z"/>
  <path class="cls-1" d="M374.06,59.9c-5.54-8.06-4.64-16.66,4.59-23.01l2.09-1.43,12.03-8.29,2.09-1.44c4.31-2.96,4.68-6.32,2.56-9.4-2.13-3.09-5.4-3.93-9.7-.96l-14.13,9.73-5.7-8.28,14.13-9.73c9.15-6.31,17.57-4.14,23.12,3.92,5.54,8.06,4.64,16.66-4.58,23l-2.1,1.44-12.02,8.29-2.1,1.44c-4.31,2.96-4.68,6.31-2.55,9.4,2.12,3.09,5.39,3.93,9.69.96l14.13-9.73,5.7,8.28-14.13,9.73c-9.15,6.31-17.57,4.14-23.12-3.92Z"/>
  <path class="cls-1" d="M330.38,34.96c-5.54-8.06-4.63-16.66,4.59-23.01l2.1-1.44,12.02-8.28,2.1-1.44c4.3-2.97,4.67-6.32,2.55-9.4-2.13-3.09-5.39-3.93-9.7-.97L329.92.14l-5.7-8.28,14.13-9.73c9.16-6.31,17.57-4.13,23.12,3.92,5.54,8.06,4.64,16.66-4.58,23.01l-2.1,1.44-12.02,8.28-2.1,1.44c-4.3,2.97-4.68,6.32-2.55,9.4,2.12,3.09,5.39,3.93,9.69.97l14.13-9.73,5.7,8.28-14.13,9.73c-9.15,6.31-17.57,4.13-23.12-3.92Z"/>
  <path class="cls-1" d="M485.66,86.12l-12.04,8.28h.01s12.02-8.28,12.02-8.28Z"/>
  <path class="cls-1" d="M461.26,110.57c-5.54-8.06-4.64-16.66,4.58-23.01l14.13-9.73,2.1-1.44c4.3-2.96,4.68-6.32,2.55-9.4-2.12-3.09-5.39-3.93-9.69-.96l-14.13,9.73-5.7-8.28,14.13-9.73c9.15-6.32,17.57-4.14,23.11,3.92,5.55,8.06,4.64,16.66-4.58,23l-2.1,1.44-12.04,8.28-2.09,1.44c-4.3,2.97-4.67,6.32-2.55,9.41,2.13,3.09,5.39,3.93,9.7.96l14.13-9.73,5.7,8.28-14.13,9.73c-9.16,6.31-17.58,4.14-23.12-3.92Z"/>
  <path class="cls-1" d="M417.57,85.63c-5.54-8.05-4.64-16.65,4.58-23l2.1-1.44,12.02-8.28,2.1-1.44c4.31-2.97,4.68-6.32,2.55-9.4-2.12-3.1-5.39-3.93-9.69-.97l-14.13,9.73-5.7-8.28,14.13-9.73c9.15-6.31,17.57-4.13,23.12,3.92,5.54,8.06,4.64,16.66-4.59,23.01l-2.1,1.44-12.02,8.28-2.1,1.44c-4.3,2.97-4.67,6.32-2.55,9.4,2.13,3.09,5.4,3.93,9.7.97l14.13-9.73,5.7,8.27-14.13,9.74c-9.16,6.31-17.57,4.13-23.12-3.93Z"/>
  <path class="cls-1" d="M419.23,155.46c-5.55-8.06-4.64-16.66,4.58-23l2.1-1.44,12.04-8.28,2.09-1.44c4.3-2.97,4.67-6.32,2.55-9.41-2.13-3.09-5.39-3.93-9.7-.96l-14.13,9.73-5.7-8.28,14.13-9.73c9.16-6.31,17.58-4.14,23.12,3.92,5.54,8.06,4.64,16.66-4.58,23.01l-14.13,9.73-2.1,1.44c-4.3,2.96-4.68,6.32-2.55,9.4,2.12,3.09,5.39,3.93,9.69.96l14.13-9.73,5.7,8.28-14.13,9.73c-9.15,6.31-17.57,4.14-23.11-3.92Z"/>
  <path class="cls-1" d="M437.95,122.74h-.01s-12.02,8.28-12.02,8.28l12.04-8.28Z"/>
  <path class="cls-1" d="M375.55,130.53c-5.55-8.06-4.64-16.66,4.58-23.01l2.1-1.44,12.02-8.28,2.1-1.44c4.3-2.97,4.68-6.32,2.55-9.4-2.12-3.09-5.39-3.93-9.7-.97l-14.13,9.74-5.7-8.28,14.13-9.74c9.16-6.31,17.58-4.13,23.12,3.93,5.55,8.05,4.64,16.65-4.58,23l-2.1,1.44-12.02,8.28-2.1,1.44c-4.3,2.97-4.68,6.32-2.55,9.4,2.12,3.1,5.39,3.93,9.69.97l14.13-9.73,5.71,8.28-14.13,9.73c-9.16,6.31-17.58,4.13-23.12-3.92Z"/>
  <path class="cls-1" d="M462.73,181.21c-5.54-8.06-4.64-16.66,4.58-23.01l2.1-1.44,12.02-8.28,2.1-1.44c4.31-2.97,4.68-6.32,2.56-9.4-2.13-3.09-5.4-3.93-9.7-.97l-14.13,9.74-5.7-8.29,14.13-9.73c9.15-6.31,17.57-4.13,23.12,3.92,5.54,8.06,4.64,16.66-4.58,23.01l-2.1,1.44-12.02,8.28-2.1,1.44c-4.31,2.97-4.68,6.32-2.56,9.4,2.13,3.09,5.4,3.93,9.7.97l14.13-9.73,5.7,8.28-14.13,9.73c-9.15,6.31-17.57,4.13-23.12-3.92Z"/>
  <path class="cls-1" d="M374.6,202.48c-5.55-8.05-4.64-16.65,4.58-23l2.1-1.44,12.02-8.28,2.1-1.44c4.3-2.97,4.68-6.32,2.55-9.41-2.12-3.09-5.39-3.93-9.69-.96l-14.13,9.73-5.71-8.28,14.13-9.73c9.16-6.31,17.58-4.14,23.12,3.92,5.55,8.06,4.64,16.66-4.58,23.01l-2.1,1.44-12.02,8.28-2.1,1.44c-4.3,2.96-4.67,6.32-2.55,9.4,2.13,3.09,5.39,3.93,9.7.96l14.13-9.73,5.7,8.28-14.13,9.73c-9.16,6.32-17.58,4.14-23.12-3.92Z"/>
  <path class="cls-1" d="M330.91,177.55c-5.54-8.06-4.64-16.66,4.58-23.01l2.1-1.44,12.02-8.28,2.1-1.44c4.3-2.96,4.68-6.32,2.55-9.4-2.12-3.09-5.39-3.93-9.69-.96l-14.13,9.73-5.7-8.28,14.13-9.73c9.15-6.32,17.57-4.14,23.11,3.92,5.55,8.05,4.64,16.65-4.58,23l-2.1,1.44-12.02,8.28-2.1,1.44c-4.3,2.97-4.67,6.32-2.55,9.4,2.13,3.1,5.39,3.94,9.7.97l14.13-9.73,5.7,8.28-14.13,9.73c-9.16,6.31-17.58,4.13-23.12-3.92Z"/>
  <path class="cls-1" d="M461.78,253.16c-5.54-8.05-4.63-16.65,4.59-23l2.1-1.44,12.02-8.28,2.1-1.44c4.3-2.97,4.67-6.32,2.55-9.41-2.13-3.09-5.39-3.93-9.7-.96l-14.13,9.73-5.7-8.28,14.13-9.73c9.16-6.31,17.57-4.14,23.12,3.92,5.54,8.06,4.64,16.66-4.58,23.01l-2.1,1.44-12.02,8.28-2.1,1.44c-4.3,2.96-4.68,6.32-2.55,9.4,2.12,3.09,5.39,3.93,9.69.96l14.13-9.73,5.7,8.28-14.13,9.73c-9.15,6.32-17.57,4.14-23.12-3.92Z"/>
  <path class="cls-1" d="M418.1,228.23c-5.55-8.06-4.64-16.66,4.58-23.01l2.1-1.44,12.02-8.28,2.1-1.44c4.3-2.97,4.67-6.32,2.55-9.4-2.13-3.09-5.39-3.93-9.7-.96l-14.13,9.73-5.7-8.28,14.13-9.74c9.16-6.31,17.58-4.13,23.12,3.93,5.54,8.05,4.64,16.65-4.58,23l-2.1,1.44-12.02,8.28-2.1,1.44c-4.3,2.97-4.68,6.32-2.55,9.4,2.12,3.1,5.39,3.94,9.69.97l14.13-9.73,5.7,8.28-14.13,9.73c-9.15,6.31-17.57,4.13-23.11-3.92Z"/>
  <path class="cls-1" d="M200.22,102.01c-5.54-8.06-4.64-16.66,4.59-23.01l2.09-1.44,12.04-8.28,2.09-1.44c4.31-2.97,4.68-6.32,2.56-9.4-2.13-3.09-5.4-3.93-9.7-.97l-14.13,9.74-5.7-8.28,14.13-9.74c9.15-6.31,17.57-4.13,23.12,3.93,5.54,8.05,4.64,16.65-4.58,23l-2.1,1.44-12.02,8.28-2.1,1.44c-4.31,2.97-4.68,6.32-2.55,9.4,2.12,3.1,5.39,3.94,9.69.97l14.13-9.73,5.7,8.28-14.13,9.73c-9.15,6.31-17.57,4.13-23.12-3.92Z"/>
  <path class="cls-1" d="M156.54,77.07c-5.54-8.05-4.63-16.65,4.59-23l2.1-1.44,12.02-8.28,2.1-1.44c4.3-2.97,4.67-6.32,2.55-9.41-2.13-3.09-5.39-3.93-9.7-.96l-14.13,9.73-5.7-8.28,14.13-9.73c9.16-6.31,17.57-4.14,23.12,3.92,5.54,8.06,4.64,16.66-4.58,23.01l-2.1,1.44-12.02,8.28-2.1,1.44c-4.3,2.96-4.68,6.32-2.55,9.4,2.12,3.09,5.39,3.93,9.69.96l14.13-9.73,5.7,8.28-14.13,9.73c-9.15,6.32-17.57,4.14-23.12-3.92Z"/>
  <path class="cls-1" d="M287.41,152.69c-5.55-8.06-4.64-16.66,4.58-23.01l2.1-1.44,12.02-8.28,2.1-1.44c4.3-2.97,4.68-6.32,2.55-9.4-2.12-3.09-5.39-3.93-9.69-.97l-14.13,9.74-5.71-8.29,14.13-9.73c9.16-6.31,17.58-4.13,23.12,3.93,5.55,8.05,4.64,16.65-4.58,23l-2.1,1.44-12.02,8.28-2.1,1.44c-4.3,2.97-4.67,6.32-2.55,9.4,2.13,3.1,5.39,3.93,9.7.97l14.13-9.73,5.7,8.28-14.13,9.73c-9.16,6.31-17.58,4.13-23.12-3.92Z"/>
  <path class="cls-1" d="M243.73,127.74c-5.54-8.06-4.64-16.66,4.58-23l2.1-1.44,12.03-8.28,2.09-1.44c4.31-2.97,4.68-6.32,2.55-9.41-2.12-3.09-5.39-3.93-9.69-.96l-14.13,9.73-5.7-8.28,14.13-9.73c9.15-6.31,17.57-4.14,23.12,3.92,5.54,8.06,4.64,16.66-4.59,23.01l-2.1,1.44-12.02,8.28-2.1,1.44c-4.3,2.96-4.67,6.32-2.55,9.4,2.13,3.09,5.4,3.93,9.7.96l14.13-9.73,5.7,8.28-14.13,9.73c-9.16,6.31-17.57,4.14-23.12-3.92Z"/>
  <path class="cls-1" d="M262.44,95.02h-.01s-12.02,8.28-12.02,8.28l12.03-8.28Z"/>
  <path class="cls-1" d="M245.64,53.9c-5.55-8.05-4.64-16.65,4.58-23l2.1-1.44,12.02-8.28,2.1-1.44c4.3-2.97,4.68-6.32,2.55-9.4-2.12-3.1-5.39-3.94-9.69-.97l-14.13,9.73-5.71-8.28,14.13-9.73c9.16-6.31,17.58-4.13,23.12,3.92,5.55,8.06,4.64,16.66-4.58,23.01l-2.1,1.44-12.02,8.28-2.1,1.44c-4.3,2.96-4.68,6.32-2.55,9.4,2.13,3.09,5.39,3.93,9.7.97l14.13-9.74,5.7,8.28-14.13,9.73c-9.16,6.32-17.58,4.14-23.12-3.92Z"/>
  <path class="cls-1" d="M201.95,28.97c-5.55-8.06-4.64-16.66,4.58-23.01l2.1-1.44,12.02-8.28,2.1-1.44c4.3-2.96,4.68-6.32,2.55-9.4-2.12-3.09-5.39-3.93-9.69-.96l-14.13,9.73-5.71-8.28,14.13-9.73c9.16-6.32,17.58-4.14,23.12,3.92,5.55,8.05,4.64,16.65-4.58,23l-2.1,1.44-12.02,8.28-2.1,1.44c-4.3,2.97-4.67,6.32-2.55,9.41,2.13,3.09,5.39,3.93,9.7.96l14.13-9.73,5.7,8.28-14.13,9.73c-9.16,6.31-17.58,4.14-23.12-3.92Z"/>
  <path class="cls-1" d="M332.82,104.58c-5.54-8.05-4.64-16.65,4.59-23l2.1-1.44,12.02-8.28,2.1-1.44c4.3-2.97,4.67-6.32,2.55-9.41-2.13-3.09-5.39-3.93-9.7-.96l-14.13,9.73-5.7-8.28,14.13-9.73c9.16-6.31,17.57-4.14,23.12,3.92,5.54,8.06,4.64,16.66-4.58,23.01l-2.1,1.44-12.02,8.28-2.1,1.44c-4.3,2.96-4.68,6.32-2.55,9.4,2.12,3.09,5.39,3.93,9.69.96l14.13-9.73,5.7,8.28-14.13,9.73c-9.15,6.32-17.57,4.14-23.12-3.92Z"/>
  <path class="cls-1" d="M289.15,79.65c-5.55-8.06-4.64-16.66,4.58-23.01l2.1-1.44,12.02-8.28,2.1-1.44c4.3-2.96,4.67-6.32,2.55-9.4-2.13-3.09-5.39-3.93-9.7-.96l-14.13,9.73-5.7-8.28,14.13-9.73c9.16-6.32,17.58-4.14,23.12,3.92,5.54,8.05,4.64,16.65-4.58,23l-2.1,1.44-12.02,8.28-2.1,1.44c-4.3,2.97-4.68,6.32-2.55,9.4,2.12,3.1,5.39,3.94,9.69.97l14.13-9.73,5.7,8.28-14.13,9.73c-9.15,6.31-17.57,4.13-23.11-3.92Z"/>
  <path class="cls-1" d="M374.67,276.05c-5.55-8.06-4.64-16.66,4.58-23.01l14.13-9.73,2.1-1.44c4.3-2.96,4.68-6.32,2.55-9.4-2.12-3.09-5.39-3.93-9.7-.96l-14.13,9.73-5.7-8.28,14.13-9.73c9.16-6.31,17.58-4.14,23.12,3.92,5.55,8.06,4.64,16.66-4.58,23l-2.1,1.44-12.02,8.29-2.1,1.44c-4.3,2.96-4.68,6.31-2.55,9.4,2.12,3.09,5.39,3.93,9.69.96l14.13-9.73,5.71,8.28-14.13,9.73c-9.16,6.31-17.58,4.14-23.12-3.92Z"/>
  <path class="cls-1" d="M330.99,251.12c-5.55-8.06-4.64-16.66,4.58-23.01l2.1-1.44,12.02-8.28,2.1-1.44c4.3-2.97,4.68-6.32,2.55-9.4-2.12-3.1-5.39-3.93-9.69-.97l-14.13,9.73-5.71-8.28,14.13-9.73c9.16-6.31,17.58-4.13,23.12,3.92,5.55,8.06,4.64,16.66-4.58,23.01l-2.1,1.44-12.02,8.28-2.1,1.44c-4.3,2.97-4.68,6.32-2.55,9.4,2.13,3.09,5.39,3.93,9.7.97l14.13-9.73,5.7,8.27-14.13,9.74c-9.16,6.31-17.58,4.13-23.12-3.92Z"/>
  <path class="cls-1" d="M486.27,302.27l-12.04,8.28h.01s12.02-8.28,12.02-8.28Z"/>
  <path class="cls-1" d="M461.85,326.73c-5.54-8.06-4.64-16.66,4.58-23.01l2.1-1.44,12.02-8.28,2.1-1.44c4.31-2.96,4.68-6.32,2.56-9.4-2.13-3.09-5.4-3.93-9.7-.96l-14.13,9.73-5.7-8.28,14.13-9.73c9.15-6.32,17.57-4.14,23.12,3.92,5.54,8.06,4.64,16.65-4.58,23l-2.1,1.44-12.04,8.28-2.09,1.44c-4.31,2.97-4.68,6.32-2.56,9.41,2.13,3.09,5.4,3.93,9.7.96l14.13-9.73,5.7,8.28-14.13,9.73c-9.15,6.31-17.57,4.14-23.12-3.92Z"/>
  <path class="cls-1" d="M418.17,301.78c-5.54-8.05-4.64-16.65,4.59-23l2.1-1.44,12.02-8.28,2.1-1.44c4.3-2.97,4.67-6.32,2.55-9.4-2.13-3.1-5.39-3.93-9.7-.97l-14.13,9.73-5.7-8.28,14.13-9.73c9.16-6.31,17.57-4.13,23.12,3.92,5.54,8.06,4.64,16.66-4.58,23.01l-2.1,1.44-12.02,8.28-2.1,1.44c-4.3,2.97-4.68,6.32-2.55,9.4,2.12,3.09,5.39,3.93,9.69.97l14.13-9.74,5.7,8.28-14.13,9.74c-9.15,6.31-17.57,4.13-23.12-3.93Z"/>
  <path class="cls-1" d="M201.08,175.45c-5.54-8.06-4.64-16.66,4.58-23.01l2.1-1.44,12.02-8.28,2.1-1.44c4.3-2.97,4.68-6.32,2.55-9.4-2.12-3.09-5.39-3.93-9.69-.97l-14.13,9.74-5.7-8.29,14.13-9.73c9.15-6.31,17.57-4.13,23.11,3.92,5.55,8.06,4.64,16.66-4.58,23.01l-2.1,1.44-12.02,8.28-2.1,1.44c-4.3,2.97-4.67,6.32-2.55,9.4,2.13,3.09,5.4,3.93,9.7.97l14.13-9.73,5.7,8.28-14.13,9.73c-9.16,6.31-17.58,4.13-23.12-3.92Z"/>
  <path class="cls-1" d="M157.4,150.5c-5.54-8.06-4.64-16.66,4.58-23l2.1-1.44,12.04-8.28,2.09-1.44c4.31-2.97,4.68-6.32,2.55-9.41-2.12-3.09-5.39-3.93-9.69-.96l-14.13,9.73-5.7-8.28,14.13-9.73c9.15-6.31,17.57-4.14,23.12,3.92,5.54,8.06,4.64,16.66-4.59,23.01l-2.09,1.43-12.03,8.29-2.09,1.44c-4.31,2.96-4.68,6.31-2.56,9.4,2.13,3.09,5.4,3.93,9.7.96l14.13-9.73,5.7,8.28-14.13,9.73c-9.16,6.31-17.57,4.14-23.12-3.92Z"/>
  <path class="cls-1" d="M176.11,117.78h-.01s-12.02,8.28-12.02,8.28l12.04-8.28Z"/>
  <path class="cls-1" d="M288.28,226.12c-5.55-8.06-4.64-16.66,4.58-23.01l2.1-1.44,12.02-8.28,2.1-1.44c4.3-2.97,4.67-6.32,2.55-9.4-2.13-3.1-5.39-3.93-9.7-.97l-14.13,9.73-5.7-8.28,14.13-9.73c9.16-6.31,17.58-4.13,23.12,3.92,5.55,8.06,4.64,16.66-4.58,23.01l-2.1,1.44-12.02,8.28-2.1,1.44c-4.3,2.97-4.68,6.32-2.55,9.4,2.12,3.09,5.39,3.93,9.69.97l14.13-9.73,5.7,8.27-14.13,9.74c-9.15,6.31-17.57,4.13-23.11-3.92Z"/>
  <path class="cls-1" d="M244.59,201.18c-5.55-8.06-4.64-16.66,4.58-23.01l14.13-9.73,2.1-1.44c4.3-2.96,4.68-6.32,2.55-9.4-2.12-3.09-5.39-3.93-9.7-.96l-14.13,9.73-5.7-8.28,14.13-9.73c9.16-6.31,17.58-4.14,23.12,3.92,5.55,8.06,4.64,16.66-4.58,23l-2.1,1.44-12.02,8.29-2.1,1.44c-4.3,2.96-4.68,6.31-2.55,9.4,2.12,3.09,5.39,3.93,9.69.96l14.13-9.73,5.71,8.28-14.13,9.73c-9.16,6.31-17.58,4.14-23.12-3.92Z"/>
  <path class="cls-1" d="M287.57,9.27c-5.54-8.06-4.63-16.66,4.59-23.01l2.1-1.44,12.02-8.28,2.1-1.44c4.3-2.97,4.67-6.32,2.55-9.4-2.13-3.09-5.39-3.93-9.7-.96l-14.13,9.73-5.7-8.28,14.13-9.74c9.16-6.31,17.57-4.13,23.12,3.93,5.54,8.05,4.64,16.65-4.58,23l-2.1,1.44-12.02,8.28-2.1,1.44c-4.3,2.97-4.68,6.32-2.55,9.4,2.12,3.1,5.39,3.94,9.69.97l14.13-9.73,5.7,8.28-14.13,9.73c-9.15,6.31-17.57,4.13-23.12-3.92Z"/>
  <path class="cls-1" d="M418.92,373.9c-5.54-8.05-4.64-16.65,4.58-23l2.1-1.44,12.02-8.28,2.1-1.44c4.31-2.97,4.68-6.32,2.56-9.41-2.13-3.09-5.4-3.93-9.7-.96l-14.13,9.73-5.7-8.28,14.13-9.73c9.15-6.31,17.57-4.14,23.12,3.92,5.54,8.06,4.64,16.66-4.59,23.01l-2.09,1.44-12.04,8.28-2.09,1.44c-4.31,2.96-4.68,6.32-2.56,9.4,2.13,3.09,5.4,3.93,9.7.96l14.13-9.73,5.7,8.28-14.13,9.73c-9.16,6.32-17.57,4.14-23.12-3.92Z"/>
  <path class="cls-1" d="M375.24,348.97c-5.54-8.06-4.64-16.66,4.58-23.01l2.1-1.44,12.02-8.28,2.1-1.44c4.31-2.96,4.68-6.32,2.56-9.4-2.13-3.09-5.4-3.93-9.7-.96l-14.13,9.73-5.7-8.28,14.13-9.73c9.15-6.32,17.57-4.14,23.12,3.92,5.54,8.05,4.64,16.65-4.58,23l-2.1,1.44-12.02,8.28-2.1,1.44c-4.31,2.97-4.68,6.32-2.56,9.4,2.13,3.1,5.4,3.94,9.7.97l14.13-9.73,5.7,8.28-14.13,9.73c-9.15,6.31-17.57,4.14-23.12-3.92Z"/>
  <path class="cls-1" d="M462.43,399.65c-5.55-8.06-4.64-16.66,4.58-23.01l2.1-1.44,12.02-8.28,2.1-1.44c4.3-2.97,4.68-6.32,2.55-9.4-2.12-3.09-5.39-3.93-9.69-.96l-14.13,9.73-5.71-8.28,14.13-9.74c9.16-6.31,17.58-4.13,23.12,3.93,5.55,8.05,4.64,16.65-4.58,23l-2.1,1.44-12.02,8.28-2.1,1.44c-4.3,2.97-4.68,6.32-2.55,9.4,2.13,3.1,5.39,3.94,9.7.97l14.13-9.73,5.7,8.28-14.13,9.73c-9.16,6.31-17.58,4.13-23.12-3.92Z"/>
  <path class="cls-1" d="M374.28,420.92c-5.54-8.05-4.63-16.65,4.59-23l2.1-1.44,12.02-8.28,2.1-1.44c4.3-2.97,4.67-6.32,2.55-9.4-2.13-3.1-5.39-3.93-9.7-.97l-14.13,9.73-5.7-8.28,14.13-9.73c9.16-6.31,17.57-4.13,23.12,3.92,5.54,8.06,4.64,16.66-4.58,23.01l-2.1,1.44-12.02,8.28-2.1,1.44c-4.3,2.97-4.68,6.32-2.55,9.4,2.12,3.09,5.39,3.93,9.69.97l14.13-9.74,5.7,8.28-14.13,9.74c-9.15,6.31-17.57,4.13-23.12-3.93Z"/>
  <path class="cls-1" d="M355.01,371.53l-12.04,8.28h.01s12.02-8.28,12.02-8.28Z"/>
  <path class="cls-1" d="M330.61,395.99c-5.55-8.06-4.64-16.66,4.58-23.01l14.13-9.73,2.1-1.44c4.3-2.96,4.67-6.32,2.55-9.4-2.13-3.09-5.39-3.93-9.7-.96l-14.13,9.73-5.7-8.28,14.13-9.73c9.16-6.32,17.58-4.14,23.12,3.92,5.54,8.06,4.64,16.65-4.58,23l-2.1,1.44-12.04,8.28-2.09,1.44c-4.3,2.97-4.68,6.32-2.55,9.41,2.12,3.09,5.39,3.93,9.69.96l14.13-9.73,5.7,8.28-14.13,9.73c-9.15,6.31-17.57,4.14-23.11-3.92Z"/>
  <path class="cls-1" d="M461.47,471.6c-5.54-8.05-4.64-16.65,4.58-23l2.1-1.44,12.02-8.28,2.1-1.44c4.3-2.97,4.68-6.32,2.55-9.4-2.12-3.1-5.39-3.94-9.69-.97l-14.13,9.73-5.7-8.28,14.13-9.73c9.15-6.31,17.57-4.13,23.11,3.92,5.55,8.06,4.65,16.66-4.58,23.01l-2.1,1.44-12.02,8.28-2.1,1.44c-4.3,2.97-4.67,6.32-2.55,9.4,2.13,3.09,5.4,3.93,9.7.97l14.13-9.74,5.7,8.28-14.13,9.73c-9.16,6.32-17.58,4.14-23.12-3.92Z"/>
  <path class="cls-1" d="M417.79,446.67c-5.54-8.06-4.64-16.66,4.58-23.01l2.1-1.44,12.02-8.28,2.1-1.44c4.31-2.96,4.68-6.32,2.55-9.4-2.12-3.09-5.39-3.93-9.69-.96l-14.13,9.73-5.7-8.28,14.13-9.73c9.15-6.32,17.57-4.14,23.12,3.92,5.54,8.05,4.64,16.65-4.59,23l-2.09,1.44-12.04,8.28-2.09,1.44c-4.31,2.97-4.68,6.32-2.56,9.41,2.13,3.09,5.4,3.93,9.7.96l14.13-9.73,5.7,8.28-14.13,9.73c-9.16,6.31-17.57,4.14-23.12-3.92Z"/>
  <path class="cls-1" d="M419.45,516.5c-5.55-8.06-4.64-16.66,4.58-23.01l2.1-1.44,12.02-8.28,2.1-1.44c4.3-2.97,4.68-6.32,2.55-9.4-2.13-3.1-5.39-3.93-9.7-.97l-14.13,9.73-5.7-8.28,14.13-9.73c9.16-6.31,17.58-4.13,23.12,3.92,5.55,8.06,4.64,16.66-4.58,23.01l-2.1,1.44-12.02,8.28-2.1,1.44c-4.3,2.97-4.68,6.32-2.55,9.4,2.12,3.09,5.39,3.93,9.69.97l14.13-9.73,5.71,8.28-14.13,9.73c-9.16,6.31-17.58,4.13-23.12-3.92Z"/>
  <path class="cls-1" d="M375.77,491.56c-5.55-8.06-4.64-16.66,4.58-23.01l14.13-9.73,2.1-1.44c4.3-2.96,4.68-6.32,2.55-9.4-2.12-3.09-5.39-3.93-9.69-.96l-14.13,9.73-5.71-8.28,14.13-9.73c9.16-6.31,17.58-4.14,23.12,3.92,5.55,8.06,4.64,16.66-4.58,23l-2.1,1.44-12.02,8.29-2.1,1.44c-4.3,2.96-4.68,6.31-2.55,9.4,2.12,3.09,5.39,3.93,9.69.96l14.13-9.73,5.71,8.28-14.13,9.73c-9.16,6.31-17.58,4.14-23.12-3.92Z"/>
  <path class="cls-1" d="M487.36,517.78l-12.04,8.28h.01s12.02-8.28,12.02-8.28Z"/>
  <path class="cls-1" d="M462.95,542.24c-5.54-8.06-4.64-16.66,4.58-23.01l14.13-9.73,2.1-1.44c4.31-2.96,4.68-6.32,2.56-9.4-2.13-3.09-5.4-3.93-9.7-.96l-14.13,9.73-5.7-8.28,14.13-9.73c9.15-6.31,17.57-4.14,23.12,3.92,5.54,8.06,4.64,16.66-4.58,23l-2.1,1.44-12.04,8.28-2.09,1.44c-4.31,2.97-4.68,6.32-2.55,9.41,2.12,3.09,5.39,3.93,9.69.96l14.13-9.73,5.7,8.28-14.13,9.73c-9.15,6.31-17.57,4.14-23.12-3.92Z"/>
  <path class="cls-1" d="M374.81,563.52c-5.55-8.06-4.64-16.66,4.58-23.01l2.1-1.44,12.02-8.28,2.1-1.44c4.3-2.97,4.68-6.32,2.55-9.4-2.12-3.09-5.39-3.93-9.69-.97l-14.13,9.74-5.71-8.28,14.13-9.74c9.16-6.31,17.58-4.13,23.12,3.93,5.55,8.05,4.64,16.65-4.58,23l-2.1,1.44-12.02,8.28-2.1,1.44c-4.3,2.97-4.67,6.32-2.55,9.4,2.13,3.1,5.39,3.93,9.7.97l14.13-9.73,5.7,8.28-14.13,9.73c-9.16,6.31-17.58,4.13-23.12-3.92Z"/>
  <path class="cls-1" d="M331.13,538.58c-5.54-8.05-4.64-16.65,4.58-23l2.1-1.44,12.04-8.28,2.09-1.44c4.3-2.97,4.68-6.32,2.55-9.41-2.12-3.09-5.39-3.93-9.69-.96l-14.13,9.73-5.7-8.28,14.13-9.73c9.15-6.31,17.57-4.14,23.11,3.92,5.55,8.06,4.65,16.66-4.58,23.01l-2.1,1.44-12.02,8.28-2.1,1.44c-4.3,2.96-4.67,6.32-2.55,9.4,2.13,3.09,5.4,3.93,9.7.96l14.13-9.73,5.7,8.28-14.13,9.73c-9.16,6.32-17.58,4.14-23.12-3.92Z"/>
  <path class="cls-1" d="M349.84,505.86h-.01s-12.02,8.28-12.02,8.28l12.04-8.28Z"/>
  <path class="cls-1" d="M462.01,614.2c-5.55-8.06-4.64-16.66,4.58-23.01l2.1-1.44,12.02-8.28,2.1-1.44c4.3-2.97,4.67-6.32,2.55-9.4-2.13-3.09-5.39-3.93-9.7-.97l-14.13,9.74-5.7-8.29,14.13-9.73c9.16-6.31,17.58-4.13,23.12,3.93,5.54,8.05,4.64,16.65-4.58,23l-2.1,1.44-12.02,8.28-2.1,1.44c-4.3,2.97-4.68,6.32-2.55,9.4,2.12,3.09,5.39,3.93,9.69.97l14.13-9.73,5.7,8.28-14.13,9.73c-9.15,6.31-17.57,4.13-23.11-3.92Z"/>
  <path class="cls-1" d="M418.32,589.26c-5.55-8.06-4.64-16.66,4.58-23l2.1-1.44,12.04-8.28,2.09-1.44c4.3-2.97,4.67-6.32,2.55-9.41-2.13-3.09-5.39-3.93-9.7-.96l-14.13,9.73-5.7-8.28,14.13-9.73c9.16-6.31,17.58-4.14,23.12,3.92,5.55,8.06,4.64,16.66-4.58,23.01l-2.1,1.44-12.02,8.28-2.1,1.44c-4.3,2.96-4.68,6.32-2.55,9.4,2.12,3.09,5.39,3.93,9.69.96l14.13-9.73,5.7,8.28-14.13,9.73c-9.15,6.31-17.57,4.14-23.11-3.92Z"/>
  <path class="cls-1" d="M437.03,556.53h-.01s-12.02,8.28-12.02,8.28l12.04-8.28Z"/>
  <path class="cls-1" d="M200.44,463.04c-5.54-8.06-4.64-16.66,4.59-23l2.1-1.44,12.04-8.28,2.09-1.44c4.3-2.97,4.67-6.32,2.55-9.41-2.13-3.09-5.39-3.93-9.7-.96l-14.13,9.73-5.7-8.28,14.13-9.73c9.16-6.31,17.57-4.14,23.12,3.92,5.54,8.06,4.64,16.66-4.58,23.01l-14.13,9.73-2.1,1.44c-4.3,2.96-4.68,6.32-2.55,9.4,2.12,3.09,5.39,3.93,9.69.96l14.13-9.73,5.7,8.28-14.13,9.73c-9.15,6.31-17.57,4.14-23.12-3.92Z"/>
  <path class="cls-1" d="M219.16,430.31h-.01s-12.02,8.28-12.02,8.28l12.04-8.28Z"/>
  <path class="cls-1" d="M156.76,438.1c-5.55-8.06-4.64-16.66,4.58-23.01l2.1-1.44,12.02-8.28,2.1-1.44c4.3-2.97,4.67-6.32,2.55-9.4-2.13-3.09-5.39-3.93-9.7-.97l-14.13,9.74-5.7-8.29,14.13-9.73c9.16-6.31,17.58-4.13,23.12,3.93,5.54,8.05,4.64,16.65-4.58,23l-2.1,1.44-12.02,8.28-2.1,1.44c-4.3,2.97-4.68,6.32-2.55,9.4,2.12,3.09,5.39,3.93,9.69.97l14.13-9.73,5.7,8.28-14.13,9.73c-9.15,6.31-17.57,4.13-23.11-3.92Z"/>
  <path class="cls-1" d="M287.63,513.72c-5.54-8.06-4.64-16.66,4.58-23.01l14.13-9.73,2.1-1.44c4.3-2.96,4.68-6.32,2.55-9.4-2.12-3.09-5.39-3.93-9.69-.96l-14.13,9.73-5.7-8.28,14.13-9.73c9.15-6.31,17.57-4.14,23.11,3.92,5.55,8.06,4.64,16.66-4.58,23l-2.1,1.44-12.02,8.29-2.1,1.44c-4.3,2.96-4.67,6.31-2.55,9.4,2.13,3.09,5.39,3.93,9.7.96l14.13-9.73,5.7,8.28-14.13,9.73c-9.16,6.31-17.58,4.14-23.12-3.92Z"/>
  <path class="cls-1" d="M243.95,488.78c-5.54-8.06-4.64-16.66,4.58-23.01l2.1-1.44,12.02-8.28,2.1-1.44c4.31-2.97,4.68-6.32,2.55-9.4-2.12-3.09-5.39-3.93-9.69-.97l-14.13,9.73-5.7-8.28,14.13-9.73c9.15-6.31,17.57-4.13,23.12,3.92,5.54,8.06,4.64,16.66-4.59,23.01l-2.1,1.44-12.02,8.28-2.1,1.44c-4.3,2.97-4.67,6.32-2.55,9.4,2.13,3.09,5.4,3.93,9.7.97l14.13-9.73,5.7,8.28-14.13,9.73c-9.16,6.31-17.57,4.13-23.12-3.92Z"/>
  <path class="cls-1" d="M245.85,414.94c-5.55-8.06-4.64-16.66,4.58-23.01l2.1-1.44,12.02-8.28,2.1-1.44c4.3-2.97,4.68-6.32,2.55-9.4-2.12-3.09-5.39-3.93-9.69-.96l-14.13,9.73-5.71-8.28,14.13-9.74c9.16-6.31,17.58-4.13,23.12,3.93,5.55,8.05,4.64,16.65-4.58,23l-2.1,1.44-12.02,8.28-2.1,1.44c-4.3,2.97-4.67,6.32-2.55,9.4,2.13,3.1,5.39,3.94,9.7.97l14.13-9.73,5.7,8.28-14.13,9.73c-9.16,6.31-17.58,4.13-23.12-3.92Z"/>
  <path class="cls-1" d="M202.17,390c-5.54-8.05-4.64-16.65,4.58-23l2.1-1.44,12.02-8.28,2.1-1.44c4.3-2.97,4.68-6.32,2.55-9.41-2.12-3.09-5.39-3.93-9.69-.96l-14.13,9.73-5.7-8.28,14.13-9.73c9.15-6.31,17.57-4.14,23.11,3.92,5.55,8.06,4.64,16.66-4.58,23.01l-2.1,1.44-12.02,8.28-2.1,1.44c-4.3,2.96-4.67,6.32-2.55,9.4,2.13,3.09,5.39,3.93,9.7.96l14.13-9.73,5.7,8.28-14.13,9.73c-9.16,6.32-17.58,4.14-23.12-3.92Z"/>
  <path class="cls-1" d="M333.04,465.62c-5.54-8.06-4.63-16.66,4.59-23.01l2.1-1.44,12.02-8.28,2.1-1.44c4.3-2.97,4.67-6.32,2.55-9.4-2.13-3.09-5.39-3.93-9.7-.97l-14.13,9.74-5.7-8.28,14.13-9.74c9.16-6.31,17.57-4.13,23.12,3.93,5.54,8.05,4.64,16.65-4.58,23l-2.1,1.44-12.02,8.28-2.1,1.44c-4.3,2.97-4.68,6.32-2.55,9.4,2.12,3.1,5.39,3.93,9.69.97l14.13-9.73,5.7,8.28-14.13,9.73c-9.15,6.31-17.57,4.13-23.12-3.92Z"/>
  <path class="cls-1" d="M289.36,440.68c-5.55-8.05-4.64-16.65,4.58-23l2.1-1.44,12.02-8.28,2.1-1.44c4.3-2.97,4.67-6.32,2.55-9.41-2.13-3.09-5.39-3.93-9.7-.96l-14.13,9.73-5.7-8.28,14.13-9.73c9.16-6.31,17.58-4.14,23.12,3.92,5.55,8.06,4.64,16.66-4.58,23.01l-2.1,1.44-12.02,8.28-2.1,1.44c-4.3,2.96-4.68,6.32-2.55,9.4,2.12,3.09,5.39,3.93,9.69.96l14.13-9.73,5.7,8.28-14.13,9.73c-9.15,6.32-17.57,4.14-23.11-3.92Z"/>
  <path class="cls-1" d="M374.89,637.08c-5.55-8.05-4.64-16.65,4.58-23l2.1-1.44,12.02-8.28,2.1-1.44c4.3-2.97,4.68-6.32,2.55-9.4-2.12-3.1-5.39-3.93-9.69-.97l-14.13,9.73-5.71-8.28,14.13-9.73c9.16-6.31,17.58-4.13,23.12,3.92,5.55,8.06,4.64,16.66-4.58,23.01l-2.1,1.44-12.02,8.28-2.1,1.44c-4.3,2.97-4.68,6.32-2.55,9.4,2.13,3.09,5.39,3.93,9.7.97l14.13-9.74,5.7,8.28-14.13,9.74c-9.16,6.31-17.58,4.13-23.12-3.93Z"/>
  <path class="cls-1" d="M355.61,587.69l-12.03,8.28h.01s12.02-8.28,12.02-8.28Z"/>
  <path class="cls-1" d="M331.21,612.14c-5.55-8.06-4.64-16.66,4.58-23.01l2.1-1.44,12.02-8.28,2.1-1.44c4.3-2.96,4.68-6.32,2.55-9.4-2.12-3.09-5.39-3.93-9.69-.96l-14.13,9.73-5.71-8.28,14.13-9.73c9.16-6.32,17.58-4.14,23.12,3.92,5.55,8.05,4.64,16.65-4.58,23l-2.1,1.44-12.03,8.28-2.09,1.44c-4.3,2.97-4.67,6.32-2.55,9.41,2.13,3.09,5.39,3.93,9.7.96l14.13-9.73,5.7,8.28-14.13,9.73c-9.16,6.31-17.58,4.14-23.12-3.92Z"/>
  <path class="cls-1" d="M225.7,512.02l-12.04,8.28h.01s12.02-8.28,12.02-8.28Z"/>
  <path class="cls-1" d="M201.3,536.47c-5.54-8.06-4.64-16.66,4.58-23.01l14.13-9.73,2.1-1.44c4.31-2.96,4.68-6.32,2.55-9.4-2.12-3.09-5.39-3.93-9.69-.96l-14.13,9.73-5.7-8.28,14.13-9.73c9.15-6.32,17.57-4.14,23.12,3.92,5.54,8.06,4.64,16.66-4.59,23l-2.1,1.44-12.04,8.28-2.09,1.44c-4.3,2.97-4.67,6.32-2.55,9.41,2.13,3.09,5.4,3.93,9.7.96l14.13-9.73,5.7,8.28-14.13,9.73c-9.16,6.31-17.57,4.14-23.12-3.92Z"/>
  <path class="cls-1" d="M157.62,511.53c-5.54-8.05-4.64-16.65,4.58-23l2.1-1.44,12.02-8.28,2.1-1.44c4.31-2.97,4.68-6.32,2.56-9.4-2.13-3.1-5.4-3.93-9.7-.97l-14.13,9.73-5.7-8.28,14.13-9.73c9.15-6.31,17.57-4.13,23.12,3.92,5.54,8.06,4.64,16.66-4.59,23.01l-2.09,1.44-12.03,8.28-2.09,1.44c-4.31,2.97-4.68,6.32-2.56,9.4,2.13,3.09,5.4,3.93,9.7.97l14.13-9.73,5.7,8.27-14.13,9.74c-9.15,6.31-17.57,4.13-23.12-3.93Z"/>
  <path class="cls-1" d="M288.49,587.15c-5.55-8.06-4.64-16.66,4.58-23.01l2.1-1.44,12.02-8.28,2.1-1.44c4.3-2.96,4.68-6.32,2.55-9.4-2.12-3.09-5.39-3.93-9.7-.96l-14.13,9.73-5.7-8.28,14.13-9.73c9.16-6.32,17.58-4.14,23.12,3.92,5.55,8.05,4.64,16.65-4.58,23l-2.1,1.44-12.02,8.28-2.1,1.44c-4.3,2.97-4.68,6.32-2.55,9.41,2.12,3.09,5.39,3.93,9.69.96l14.13-9.73,5.71,8.28-14.13,9.73c-9.16,6.31-17.58,4.14-23.12-3.92Z"/>
  <path class="cls-1" d="M244.81,562.21c-5.55-8.05-4.64-16.65,4.58-23l2.1-1.44,12.02-8.28,2.1-1.44c4.3-2.97,4.68-6.32,2.55-9.4-2.12-3.1-5.39-3.93-9.69-.97l-14.13,9.73-5.71-8.28,14.13-9.73c9.16-6.31,17.58-4.13,23.12,3.92,5.55,8.06,4.64,16.66-4.58,23.01l-2.1,1.44-12.02,8.28-2.1,1.44c-4.3,2.97-4.68,6.32-2.55,9.4,2.12,3.09,5.39,3.93,9.7.97l14.13-9.74,5.7,8.28-14.13,9.74c-9.16,6.31-17.58,4.13-23.12-3.93Z"/>
  <path class="cls-1" d="M200.61,319.62c-5.55-8.06-4.64-16.66,4.58-23l2.1-1.44,12.04-8.28,2.09-1.44c4.3-2.97,4.68-6.32,2.55-9.41-2.12-3.09-5.39-3.93-9.69-.96l-14.13,9.73-5.7-8.28,14.13-9.73c9.15-6.31,17.57-4.14,23.11,3.92,5.55,8.06,4.64,16.66-4.58,23.01l-2.1,1.44-12.02,8.28-2.1,1.44c-4.3,2.96-4.67,6.32-2.55,9.4,2.13,3.09,5.39,3.93,9.7.96l14.13-9.73,5.7,8.28-14.13,9.73c-9.16,6.32-17.58,4.14-23.12-3.92Z"/>
  <path class="cls-1" d="M219.32,286.9h-.01s-12.02,8.28-12.02,8.28l12.04-8.28Z"/>
  <path class="cls-1" d="M156.93,294.69c-5.54-8.06-4.64-16.66,4.58-23.01l2.1-1.44,12.02-8.28,2.1-1.44c4.31-2.97,4.68-6.32,2.55-9.4-2.12-3.09-5.39-3.93-9.69-.97l-14.13,9.74-5.7-8.28,14.13-9.74c9.15-6.31,17.57-4.13,23.12,3.93,5.54,8.05,4.64,16.65-4.59,23l-2.1,1.44-12.02,8.28-2.1,1.44c-4.3,2.97-4.67,6.32-2.55,9.4,2.13,3.1,5.4,3.94,9.7.97l14.13-9.73,5.7,8.28-14.13,9.73c-9.16,6.31-17.57,4.13-23.12-3.92Z"/>
  <path class="cls-1" d="M287.8,370.3c-5.55-8.06-4.64-16.66,4.58-23l2.1-1.44,12.04-8.28,2.09-1.44c4.3-2.97,4.67-6.32,2.55-9.41-2.13-3.09-5.39-3.93-9.7-.96l-14.13,9.73-5.7-8.28,14.13-9.73c9.16-6.31,17.58-4.14,23.12,3.92,5.54,8.06,4.64,16.66-4.58,23.01l-14.13,9.73-2.1,1.44c-4.3,2.96-4.68,6.32-2.55,9.4,2.12,3.09,5.39,3.93,9.69.96l14.13-9.73,5.7,8.28-14.13,9.73c-9.15,6.31-17.57,4.14-23.11-3.92Z"/>
  <path class="cls-1" d="M306.51,337.58h-.01s-12.02,8.28-12.02,8.28l12.04-8.28Z"/>
  <path class="cls-1" d="M244.12,345.37c-5.55-8.06-4.64-16.66,4.58-23.01l2.1-1.44,12.02-8.28,2.1-1.44c4.3-2.97,4.68-6.32,2.55-9.4s-5.39-3.93-9.7-.97l-14.13,9.74-5.7-8.29,14.13-9.73c9.16-6.31,17.58-4.13,23.12,3.93,5.55,8.05,4.64,16.65-4.58,23l-2.1,1.44-12.02,8.28-2.1,1.44c-4.3,2.97-4.68,6.32-2.55,9.4,2.12,3.1,5.39,3.93,9.69.97l14.13-9.73,5.71,8.28-14.13,9.73c-9.16,6.31-17.58,4.13-23.12-3.92Z"/>
  <path class="cls-1" d="M245.57,273.01c-5.55-8.05-4.64-16.65,4.58-23l2.1-1.44,12.02-8.28,2.1-1.44c4.3-2.97,4.68-6.32,2.55-9.41-2.12-3.09-5.39-3.93-9.7-.96l-14.13,9.73-5.7-8.28,14.13-9.73c9.16-6.31,17.58-4.14,23.12,3.92,5.55,8.06,4.64,16.66-4.58,23.01l-2.1,1.44-12.02,8.28-2.1,1.44c-4.3,2.96-4.68,6.32-2.55,9.4,2.12,3.09,5.39,3.93,9.69.96l14.13-9.73,5.71,8.28-14.13,9.73c-9.16,6.32-17.58,4.14-23.12-3.92Z"/>
  <path class="cls-1" d="M201.89,248.07c-5.55-8.06-4.64-16.66,4.58-23.01l2.1-1.44,12.02-8.28,2.1-1.44c4.3-2.97,4.68-6.32,2.55-9.4-2.12-3.09-5.39-3.93-9.69-.96l-14.13,9.73-5.71-8.28,14.13-9.74c9.16-6.31,17.58-4.13,23.12,3.93,5.55,8.05,4.64,16.65-4.58,23l-2.1,1.44-12.02,8.28-2.1,1.44c-4.3,2.97-4.68,6.32-2.55,9.4,2.13,3.1,5.39,3.94,9.7.97l14.13-9.73,5.7,8.28-14.13,9.73c-9.16,6.31-17.58,4.13-23.12-3.92Z"/>
  <path class="cls-1" d="M332.76,323.68c-5.54-8.06-4.64-16.66,4.58-23l2.1-1.44,12.04-8.28,2.09-1.44c4.31-2.97,4.68-6.32,2.56-9.41-2.13-3.09-5.4-3.93-9.7-.96l-14.13,9.73-5.7-8.28,14.13-9.73c9.15-6.31,17.57-4.14,23.12,3.92,5.54,8.06,4.64,16.66-4.58,23.01l-2.1,1.44-12.02,8.28-2.1,1.44c-4.31,2.96-4.68,6.32-2.56,9.4,2.13,3.09,5.4,3.93,9.7.96l14.13-9.73,5.7,8.28-14.13,9.73c-9.15,6.32-17.57,4.14-23.12-3.92Z"/>
  <path class="cls-1" d="M351.47,290.96h-.01s-12.02,8.28-12.02,8.28l12.04-8.28Z"/>
  <path class="cls-1" d="M289.07,298.75c-5.54-8.06-4.64-16.66,4.59-23.01l2.1-1.44,12.02-8.28,2.1-1.44c4.3-2.97,4.67-6.32,2.55-9.4-2.13-3.09-5.39-3.93-9.7-.97l-14.13,9.74-5.7-8.28,14.13-9.74c9.16-6.31,17.57-4.13,23.12,3.93,5.54,8.05,4.64,16.65-4.58,23l-2.1,1.44-12.02,8.28-2.1,1.44c-4.3,2.97-4.68,6.32-2.55,9.4,2.12,3.1,5.39,3.94,9.69.97l14.13-9.73,5.7,8.28-14.13,9.73c-9.15,6.31-17.57,4.13-23.12-3.92Z"/>
  <path class="cls-1" d="M202.76,608.76c-5.54-8.06-4.64-16.66,4.58-23.01l14.13-9.73,2.1-1.44c4.31-2.96,4.68-6.32,2.55-9.4-2.12-3.09-5.39-3.93-9.69-.96l-14.13,9.73-5.7-8.28,14.13-9.73c9.15-6.32,17.57-4.14,23.12,3.92,5.54,8.06,4.64,16.66-4.59,23l-2.1,1.44-12.04,8.28-2.09,1.44c-4.3,2.97-4.67,6.32-2.55,9.41,2.13,3.09,5.4,3.93,9.7.96l14.13-9.73,5.7,8.28-14.13,9.73c-9.16,6.31-17.57,4.14-23.12-3.92Z"/>
  <path class="cls-1" d="M159.08,583.81c-5.54-8.05-4.64-16.65,4.58-23l2.1-1.44,12.02-8.28,2.1-1.44c4.31-2.97,4.68-6.32,2.56-9.4-2.13-3.1-5.4-3.93-9.7-.97l-14.13,9.73-5.7-8.28,14.13-9.73c9.15-6.31,17.57-4.13,23.12,3.92,5.54,8.06,4.64,16.66-4.59,23.01l-2.09,1.44-12.03,8.28-2.09,1.44c-4.31,2.97-4.68,6.32-2.56,9.4,2.13,3.09,5.4,3.93,9.7.97l14.13-9.73,5.7,8.27-14.13,9.74c-9.15,6.31-17.57,4.13-23.12-3.93Z"/>
  <path class="cls-1" d="M246.27,634.49c-5.55-8.05-4.64-16.65,4.58-23l2.1-1.44,12.02-8.28,2.1-1.44c4.3-2.97,4.68-6.32,2.55-9.4-2.12-3.1-5.39-3.93-9.69-.97l-14.13,9.73-5.71-8.28,14.13-9.73c9.16-6.31,17.58-4.13,23.12,3.92,5.55,8.06,4.64,16.66-4.58,23.01l-2.1,1.44-12.02,8.28-2.1,1.44c-4.3,2.97-4.68,6.32-2.55,9.4,2.12,3.09,5.39,3.93,9.7.97l14.13-9.74,5.7,8.28-14.13,9.74c-9.16,6.31-17.58,4.13-23.12-3.93Z"/>
  <path class="cls-1" d="M157.98,365.5c-5.54-8.05-4.64-16.65,4.58-23l2.1-1.44,12.02-8.28,2.1-1.44c4.3-2.97,4.68-6.32,2.55-9.41-2.12-3.09-5.39-3.93-9.69-.96l-14.13,9.73-5.7-8.28,14.13-9.73c9.15-6.31,17.57-4.14,23.11,3.92,5.55,8.06,4.64,16.66-4.58,23.01l-2.1,1.44-12.02,8.28-2.1,1.44c-4.3,2.96-4.67,6.32-2.55,9.4,2.13,3.09,5.39,3.93,9.7.96l14.13-9.73,5.7,8.28-14.13,9.73c-9.16,6.32-17.58,4.14-23.12-3.92Z"/>
  <path class="cls-1" d="M157.88,223.15c-5.55-8.06-4.64-16.66,4.58-23.01l2.1-1.44,12.02-8.28,2.1-1.44c4.3-2.97,4.68-6.32,2.55-9.4-2.12-3.09-5.39-3.93-9.69-.96l-14.13,9.73-5.71-8.28,14.13-9.74c9.16-6.31,17.58-4.13,23.12,3.93,5.55,8.05,4.64,16.65-4.58,23l-2.1,1.44-12.02,8.28-2.1,1.44c-4.3,2.97-4.68,6.32-2.55,9.4,2.13,3.1,5.39,3.94,9.7.97l14.13-9.73,5.7,8.28-14.13,9.73c-9.16,6.31-17.58,4.13-23.12-3.92Z"/>
  <path class="cls-1" d="M156.27,4.34c-5.55-8.06-4.64-16.66,4.58-23.01l2.1-1.44,12.02-8.28,2.1-1.44c4.3-2.96,4.68-6.32,2.55-9.4-2.12-3.09-5.39-3.93-9.69-.96l-14.13,9.73-5.71-8.28,14.13-9.73c9.16-6.32,17.58-4.14,23.12,3.92,5.55,8.05,4.64,16.65-4.58,23l-2.1,1.44-12.02,8.28-2.1,1.44c-4.3,2.97-4.67,6.32-2.55,9.41,2.13,3.09,5.39,3.93,9.7.96l14.13-9.73,5.7,8.28-14.13,9.73c-9.16,6.31-17.58,4.14-23.12-3.92Z"/>
  <path class="cls-1" d="M67.35,101.28c-5.56-8.05-4.67-16.65,4.54-23.02l2.09-1.45,12.02-8.31,2.09-1.45c4.3-2.98,4.67-6.33,2.54-9.41-2.14-3.08-5.41-3.92-9.7-.95l-14.11,9.77-5.72-8.26,14.11-9.77c9.14-6.32,17.56-4.16,23.13,3.89,5.56,8.04,4.67,16.64-4.53,23.01l-2.1,1.45-12.01,8.31-2.1,1.45c-4.3,2.98-4.67,6.33-2.53,9.41,2.13,3.09,5.4,3.93,9.69.95l14.11-9.76,5.72,8.26-14.11,9.76c-9.14,6.32-17.56,4.16-23.13-3.88Z"/>
  <path class="cls-1" d="M23.62,76.42c-5.56-8.04-4.66-16.64,4.54-23.01l2.1-1.45,12.01-8.31,2.1-1.45c4.29-2.98,4.66-6.33,2.53-9.42-2.14-3.08-5.4-3.92-9.7-.94l-14.11,9.76-5.72-8.26,14.11-9.76c9.15-6.33,17.56-4.17,23.13,3.88,5.56,8.05,4.67,16.65-4.53,23.02l-2.1,1.45-12.01,8.31-2.1,1.45c-4.3,2.97-4.67,6.33-2.53,9.41,2.13,3.08,5.4,3.92,9.69.94l14.11-9.76,5.72,8.26-14.11,9.76c-9.14,6.33-17.56,4.17-23.13-3.88Z"/>
  <path class="cls-1" d="M110.92,126.93c-5.56-8.05-4.67-16.65,4.53-23.01l2.1-1.45,12.02-8.31,2.09-1.45c4.3-2.98,4.67-6.33,2.53-9.42-2.13-3.08-5.4-3.92-9.69-.94l-14.11,9.76-5.72-8.26,14.11-9.76c9.14-6.32,17.56-4.17,23.13,3.88,5.56,8.05,4.67,16.65-4.54,23.02l-2.1,1.45-12.01,8.31-2.1,1.45c-4.3,2.97-4.66,6.33-2.53,9.41,2.14,3.08,5.41,3.92,9.7.94l14.11-9.76,5.72,8.26-14.11,9.76c-9.15,6.33-17.56,4.17-23.13-3.88Z"/>
  <path class="cls-1" d="M112.67,53.08c-5.57-8.04-4.67-16.64,4.53-23.01l2.1-1.45,12.01-8.31,2.1-1.45c4.29-2.98,4.67-6.33,2.53-9.41-2.13-3.09-5.4-3.93-9.69-.95l-14.11,9.76-5.73-8.26L120.52.24c9.15-6.33,17.57-4.16,23.13,3.88,5.57,8.05,4.67,16.65-4.53,23.02l-2.1,1.45-12.01,8.31-2.1,1.45c-4.3,2.97-4.67,6.33-2.53,9.41,2.14,3.08,5.4,3.92,9.7.95l14.11-9.77,5.72,8.26-14.11,9.76c-9.15,6.34-17.57,4.17-23.13-3.88Z"/>
  <path class="cls-1" d="M68.94,28.23c-5.57-8.05-4.67-16.65,4.53-23.02l2.1-1.45,12.01-8.31,2.1-1.45c4.3-2.97,4.67-6.33,2.53-9.41-2.13-3.08-5.4-3.92-9.69-.94l-14.11,9.76-5.73-8.26,14.11-9.76c9.15-6.34,17.57-4.17,23.13,3.88,5.57,8.04,4.67,16.64-4.53,23.01l-2.1,1.45-12.01,8.31-2.1,1.45c-4.29,2.98-4.66,6.33-2.53,9.42,2.14,3.08,5.4,3.92,9.7.94l14.11-9.76,5.72,8.26-14.11,9.76c-9.15,6.33-17.57,4.17-23.13-3.88Z"/>
  <path class="cls-1" d="M68.37,174.71c-5.56-8.05-4.67-16.65,4.53-23.02l2.1-1.45,12.01-8.31,2.1-1.45c4.29-2.98,4.67-6.33,2.53-9.41-2.13-3.08-5.4-3.92-9.69-.95l-14.11,9.77-5.72-8.27,14.11-9.76c9.14-6.32,17.56-4.16,23.12,3.88,5.57,8.05,4.67,16.65-4.53,23.02l-2.1,1.45-12.01,8.31-2.1,1.45c-4.29,2.98-4.66,6.33-2.53,9.41,2.14,3.08,5.41,3.92,9.7.95l14.11-9.76,5.72,8.26-14.11,9.76c-9.15,6.33-17.57,4.16-23.13-3.88Z"/>
  <path class="cls-1" d="M24.63,149.86c-5.56-8.05-4.67-16.65,4.53-23.01l2.1-1.45,12.02-8.31,2.09-1.45c4.3-2.98,4.67-6.33,2.53-9.42-2.13-3.08-5.4-3.92-9.69-.94l-14.11,9.76-5.72-8.26,14.11-9.76c9.14-6.32,17.56-4.17,23.13,3.88,5.56,8.05,4.67,16.65-4.54,23.02l-2.09,1.44-12.02,8.32-2.09,1.45c-4.31,2.97-4.67,6.32-2.54,9.41,2.14,3.08,5.41,3.92,9.7.94l14.11-9.76,5.72,8.26-14.11,9.76c-9.15,6.33-17.56,4.17-23.13-3.88Z"/>
  <path class="cls-1" d="M43.28,117.1h-.01s-12.01,8.31-12.01,8.31l12.02-8.31Z"/>
  <path class="cls-1" d="M111.93,200.36c-5.57-8.05-4.67-16.65,4.53-23.02l14.11-9.76,2.1-1.45c4.3-2.97,4.67-6.33,2.53-9.41-2.13-3.08-5.4-3.92-9.7-.94l-14.11,9.76-5.72-8.26,14.11-9.76c9.15-6.33,17.57-4.17,23.13,3.88,5.57,8.05,4.67,16.65-4.53,23.01l-2.1,1.45-12.01,8.32-2.1,1.45c-4.3,2.97-4.67,6.32-2.53,9.41,2.13,3.08,5.4,3.92,9.69.94l14.11-9.76,5.73,8.26-14.11,9.76c-9.15,6.33-17.57,4.17-23.13-3.88Z"/>
  <path class="cls-1" d="M68.3,462.31c-5.56-8.05-4.67-16.65,4.54-23.01l2.1-1.45,12.02-8.31,2.09-1.45c4.29-2.98,4.66-6.33,2.53-9.42-2.14-3.08-5.4-3.92-9.7-.94l-14.11,9.76-5.72-8.26,14.11-9.76c9.15-6.33,17.56-4.17,23.13,3.88,5.56,8.05,4.67,16.65-4.53,23.02l-14.11,9.76-2.1,1.45c-4.3,2.97-4.67,6.33-2.53,9.41,2.13,3.08,5.4,3.92,9.69.94l14.11-9.76,5.72,8.26-14.11,9.76c-9.14,6.32-17.56,4.17-23.13-3.88Z"/>
  <path class="cls-1" d="M86.96,429.54h-.01s-12.01,8.31-12.01,8.31l12.02-8.31Z"/>
  <path class="cls-1" d="M24.58,437.46c-5.57-8.05-4.67-16.65,4.53-23.02l2.1-1.45,12.01-8.31,2.1-1.45c4.29-2.98,4.66-6.33,2.53-9.41-2.14-3.08-5.4-3.92-9.7-.95l-14.11,9.77-5.72-8.27,14.11-9.76c9.15-6.33,17.57-4.16,23.13,3.89,5.56,8.04,4.67,16.64-4.53,23.01l-2.1,1.45-12.01,8.31-2.1,1.45c-4.29,2.98-4.67,6.33-2.53,9.41,2.13,3.08,5.4,3.92,9.69.95l14.11-9.76,5.72,8.26-14.11,9.76c-9.14,6.32-17.56,4.16-23.12-3.88Z"/>
  <path class="cls-1" d="M111.87,487.96c-5.56-8.05-4.67-16.65,4.53-23.02l2.1-1.45,12.01-8.31,2.1-1.45c4.3-2.98,4.67-6.33,2.53-9.41-2.13-3.08-5.4-3.92-9.69-.95l-14.11,9.76-5.72-8.26,14.11-9.76c9.14-6.32,17.56-4.16,23.13,3.88,5.56,8.05,4.67,16.65-4.54,23.02l-2.1,1.45-12.01,8.31-2.1,1.45c-4.29,2.98-4.66,6.33-2.53,9.41,2.14,3.08,5.41,3.92,9.7.95l14.11-9.76,5.72,8.26-14.11,9.76c-9.15,6.33-17.56,4.16-23.13-3.88Z"/>
  <path class="cls-1" d="M113.62,414.12c-5.57-8.05-4.67-16.65,4.53-23.02l2.1-1.45,12.01-8.31,2.1-1.45c4.29-2.98,4.67-6.33,2.53-9.41-2.13-3.08-5.4-3.92-9.69-.94l-14.11,9.76-5.73-8.26,14.11-9.77c9.15-6.33,17.57-4.16,23.13,3.89,5.57,8.04,4.67,16.64-4.53,23.01l-2.1,1.45-12.01,8.31-2.1,1.45c-4.29,2.98-4.66,6.33-2.53,9.41,2.14,3.09,5.4,3.93,9.7.95l14.11-9.76,5.72,8.26-14.11,9.76c-9.15,6.33-17.57,4.16-23.13-3.88Z"/>
  <path class="cls-1" d="M69.89,389.26c-5.56-8.04-4.67-16.64,4.53-23.01l2.1-1.45,12.01-8.31,2.1-1.45c4.29-2.98,4.67-6.33,2.53-9.42-2.13-3.08-5.4-3.92-9.69-.94l-14.11,9.76-5.72-8.26,14.11-9.76c9.14-6.32,17.56-4.17,23.12,3.88,5.57,8.05,4.67,16.65-4.53,23.02l-2.1,1.45-12.01,8.31-2.1,1.45c-4.3,2.97-4.66,6.33-2.53,9.41,2.14,3.08,5.4,3.92,9.7.94l14.11-9.76,5.72,8.26-14.11,9.76c-9.15,6.34-17.57,4.17-23.13-3.88Z"/>
  <path class="cls-1" d="M93.67,511.23l-12.02,8.31h.01s12.01-8.31,12.01-8.31Z"/>
  <path class="cls-1" d="M69.32,535.74c-5.56-8.05-4.67-16.65,4.53-23.02l14.11-9.76,2.1-1.45c4.31-2.97,4.67-6.33,2.53-9.41-2.13-3.08-5.4-3.92-9.69-.94l-14.11,9.76-5.72-8.26,14.11-9.76c9.14-6.33,17.56-4.17,23.13,3.88,5.56,8.05,4.67,16.65-4.54,23.01l-2.1,1.45-12.02,8.31-2.09,1.45c-4.29,2.98-4.66,6.33-2.53,9.42,2.14,3.08,5.41,3.92,9.7.94l14.11-9.76,5.72,8.26-14.11,9.76c-9.15,6.33-17.56,4.17-23.13-3.88Z"/>
  <path class="cls-1" d="M25.58,510.89c-5.56-8.04-4.67-16.64,4.53-23.01l2.1-1.45,12.01-8.31,2.1-1.45c4.3-2.98,4.67-6.33,2.54-9.41-2.14-3.09-5.41-3.92-9.7-.95l-14.11,9.76-5.72-8.26,14.11-9.76c9.14-6.32,17.56-4.16,23.13,3.88,5.56,8.05,4.67,16.65-4.54,23.02l-2.09,1.45-12.02,8.31-2.09,1.45c-4.3,2.98-4.67,6.33-2.54,9.41,2.14,3.08,5.41,3.92,9.7.95l14.11-9.76,5.71,8.25-14.11,9.77c-9.14,6.32-17.56,4.16-23.13-3.89Z"/>
  <path class="cls-1" d="M112.88,561.39c-5.57-8.04-4.67-16.64,4.53-23.01l2.1-1.45,12.01-8.31,2.1-1.45c4.29-2.98,4.67-6.33,2.53-9.41-2.13-3.09-5.4-3.92-9.69-.95l-14.11,9.76-5.73-8.26,14.11-9.76c9.15-6.33,17.57-4.16,23.13,3.88,5.57,8.05,4.67,16.65-4.53,23.02l-2.1,1.45-12.01,8.31-2.1,1.45c-4.29,2.98-4.67,6.33-2.53,9.41,2.13,3.08,5.4,3.92,9.7.95l14.11-9.77,5.72,8.26-14.11,9.77c-9.15,6.33-17.57,4.16-23.13-3.89Z"/>
  <path class="cls-1" d="M68.18,318.89c-5.57-8.05-4.67-16.65,4.53-23.01l2.1-1.45,12.02-8.31,2.09-1.45c4.29-2.98,4.67-6.33,2.53-9.42-2.13-3.08-5.4-3.92-9.69-.94l-14.11,9.76-5.72-8.26,14.11-9.76c9.14-6.32,17.56-4.17,23.12,3.88,5.57,8.05,4.67,16.65-4.53,23.02l-2.1,1.45-12.01,8.31-2.1,1.45c-4.3,2.97-4.66,6.33-2.53,9.41,2.14,3.08,5.4,3.92,9.7.94l14.11-9.76,5.72,8.26-14.11,9.76c-9.15,6.34-17.57,4.17-23.13-3.88Z"/>
  <path class="cls-1" d="M86.83,286.13h-.01s-12.01,8.31-12.01,8.31l12.02-8.31Z"/>
  <path class="cls-1" d="M24.45,294.05c-5.56-8.05-4.67-16.65,4.53-23.02l2.1-1.45,12.01-8.31,2.1-1.45c4.3-2.98,4.67-6.33,2.53-9.41-2.13-3.08-5.4-3.92-9.69-.95l-14.11,9.77-5.72-8.26,14.11-9.77c9.14-6.32,17.56-4.16,23.13,3.89,5.56,8.04,4.67,16.64-4.54,23.01l-2.1,1.45-12.01,8.31-2.1,1.45c-4.29,2.98-4.66,6.33-2.53,9.41,2.14,3.09,5.41,3.93,9.7.95l14.11-9.76,5.72,8.26-14.11,9.76c-9.15,6.33-17.56,4.16-23.13-3.88Z"/>
  <path class="cls-1" d="M111.75,344.55c-5.57-8.05-4.67-16.65,4.53-23.02l2.1-1.45,12.01-8.31,2.1-1.45c4.29-2.98,4.67-6.33,2.53-9.41s-5.4-3.92-9.7-.95l-14.11,9.77-5.72-8.27,14.11-9.76c9.15-6.33,17.57-4.16,23.13,3.89,5.57,8.04,4.67,16.64-4.53,23.01l-2.1,1.45-12.01,8.31-2.1,1.45c-4.29,2.98-4.67,6.33-2.53,9.41,2.13,3.09,5.4,3.92,9.69.95l14.11-9.76,5.73,8.26-14.11,9.76c-9.15,6.33-17.57,4.16-23.13-3.88Z"/>
  <path class="cls-1" d="M113.06,272.18c-5.57-8.04-4.67-16.64,4.53-23.01l2.1-1.45,12.01-8.31,2.1-1.45c4.29-2.98,4.67-6.33,2.53-9.42-2.13-3.08-5.4-3.92-9.7-.94l-14.11,9.76-5.72-8.26,14.11-9.76c9.15-6.33,17.57-4.17,23.13,3.88,5.57,8.05,4.67,16.65-4.53,23.02l-2.1,1.45-12.01,8.31-2.1,1.45c-4.3,2.97-4.67,6.33-2.53,9.41,2.13,3.08,5.4,3.92,9.69.94l14.11-9.76,5.73,8.26-14.11,9.76c-9.15,6.34-17.57,4.17-23.13-3.88Z"/>
  <path class="cls-1" d="M69.32,247.34c-5.57-8.05-4.67-16.65,4.53-23.02l2.1-1.45,12.01-8.31,2.1-1.45c4.29-2.98,4.67-6.33,2.53-9.41-2.13-3.08-5.4-3.92-9.69-.94l-14.11,9.76-5.73-8.26,14.11-9.77c9.15-6.33,17.57-4.16,23.13,3.89,5.57,8.04,4.67,16.64-4.53,23.01l-2.1,1.45-12.01,8.31-2.1,1.45c-4.29,2.98-4.67,6.33-2.53,9.41,2.14,3.09,5.4,3.93,9.7.95l14.11-9.76,5.72,8.26-14.11,9.76c-9.15,6.33-17.57,4.16-23.13-3.88Z"/>
  <path class="cls-1" d="M70.93,608.02c-5.56-8.05-4.67-16.65,4.53-23.02l14.11-9.76,2.1-1.45c4.31-2.97,4.67-6.33,2.53-9.41-2.13-3.08-5.4-3.92-9.69-.94l-14.11,9.76-5.72-8.26,14.11-9.76c9.14-6.33,17.56-4.17,23.13,3.88,5.56,8.05,4.67,16.65-4.54,23.01l-2.1,1.45-12.02,8.31-2.09,1.45c-4.29,2.98-4.66,6.33-2.53,9.42,2.14,3.08,5.41,3.92,9.7.94l14.11-9.76,5.72,8.26-14.11,9.76c-9.15,6.33-17.56,4.17-23.13-3.88Z"/>
  <path class="cls-1" d="M27.19,583.17c-5.56-8.04-4.67-16.64,4.53-23.01l2.1-1.45,12.01-8.31,2.1-1.45c4.3-2.98,4.67-6.33,2.54-9.41-2.14-3.09-5.41-3.92-9.7-.95l-14.11,9.76-5.72-8.26,14.11-9.76c9.14-6.32,17.56-4.16,23.13,3.88,5.56,8.05,4.67,16.65-4.54,23.02l-2.09,1.45-12.02,8.31-2.09,1.45c-4.3,2.98-4.67,6.33-2.54,9.41,2.14,3.08,5.41,3.92,9.7.95l14.11-9.76,5.71,8.25-14.11,9.77c-9.14,6.32-17.56,4.16-23.13-3.89Z"/>
  <path class="cls-1" d="M114.49,633.67c-5.57-8.04-4.67-16.64,4.53-23.01l2.1-1.45,12.01-8.31,2.1-1.45c4.29-2.98,4.67-6.33,2.53-9.41-2.13-3.09-5.4-3.92-9.69-.95l-14.11,9.76-5.73-8.26,14.11-9.76c9.15-6.33,17.57-4.16,23.13,3.88,5.57,8.05,4.67,16.65-4.53,23.02l-2.1,1.45-12.01,8.31-2.1,1.45c-4.29,2.98-4.67,6.33-2.53,9.41,2.13,3.08,5.4,3.92,9.7.95l14.11-9.77,5.72,8.26-14.11,9.77c-9.15,6.33-17.57,4.16-23.13-3.89Z"/>
  <path class="cls-1" d="M25.65,364.85c-5.56-8.04-4.67-16.64,4.53-23.01l2.1-1.45,12.01-8.31,2.1-1.45c4.29-2.98,4.67-6.33,2.53-9.42-2.13-3.08-5.4-3.92-9.69-.94l-14.11,9.76-5.72-8.26,14.11-9.76c9.14-6.32,17.56-4.17,23.12,3.88,5.57,8.05,4.67,16.65-4.53,23.02l-2.1,1.45-12.01,8.31-2.1,1.45c-4.3,2.97-4.66,6.33-2.53,9.41,2.14,3.08,5.4,3.92,9.7.94l14.11-9.76,5.72,8.26-14.11,9.76c-9.15,6.34-17.57,4.17-23.13-3.88Z"/>
  <path class="cls-1" d="M25.26,222.5c-5.57-8.05-4.67-16.65,4.53-23.02l2.1-1.45,12.01-8.31,2.1-1.45c4.29-2.98,4.67-6.33,2.53-9.41-2.13-3.08-5.4-3.92-9.69-.94l-14.11,9.76-5.73-8.26,14.11-9.77c9.15-6.33,17.57-4.16,23.13,3.89,5.57,8.04,4.67,16.64-4.53,23.01l-2.1,1.45-12.01,8.31-2.1,1.45c-4.29,2.98-4.67,6.33-2.53,9.41,2.14,3.09,5.4,3.93,9.7.95l14.11-9.76,5.72,8.26-14.11,9.76c-9.15,6.33-17.57,4.16-23.13-3.88Z"/>
  <path class="cls-1" d="M23.21,3.7c-5.57-8.05-4.67-16.65,4.53-23.02l2.1-1.45,12.01-8.31,2.1-1.45c4.3-2.97,4.67-6.33,2.53-9.41-2.13-3.08-5.4-3.92-9.69-.94l-14.11,9.76-5.73-8.26,14.11-9.76c9.15-6.34,17.57-4.17,23.13,3.88,5.57,8.04,4.67,16.64-4.53,23.01l-2.1,1.45-12.01,8.31-2.1,1.45c-4.29,2.98-4.66,6.33-2.53,9.42,2.14,3.08,5.4,3.92,9.7.94l14.11-9.76,5.72,8.26-14.11,9.76c-9.15,6.33-17.57,4.17-23.13-3.88Z"/>
  <path class="cls-1" d="M-21.77,51.81c-5.56-8.04-4.66-16.64,4.54-23.01l2.1-1.45L-3.13,19.05l2.1-1.45c4.29-2.98,4.66-6.33,2.53-9.42-2.14-3.08-5.4-3.92-9.7-.94l-14.11,9.76-5.72-8.26L-13.92-1.03C-4.77-7.35,3.64-5.2,9.21,2.85c5.56,8.05,4.67,16.65-4.53,23.02l-2.1,1.45-12.01,8.31-2.1,1.45c-4.3,2.97-4.67,6.33-2.53,9.41,2.13,3.08,5.4,3.92,9.69.94l14.11-9.76,5.72,8.26L1.36,55.69c-9.14,6.33-17.56,4.17-23.13-3.88Z"/>
  <path class="cls-1" d="M-20.76,125.24c-5.56-8.05-4.67-16.65,4.53-23.01l2.1-1.45,12.02-8.31L-.03,91.04c4.3-2.98,4.67-6.33,2.53-9.42-2.13-3.08-5.4-3.92-9.69-.94l-14.11,9.76-5.72-8.26,14.11-9.76c9.14-6.32,17.56-4.17,23.13,3.88,5.56,8.05,4.67,16.65-4.54,23.02l-2.09,1.44-12.02,8.32-2.09,1.45c-4.31,2.97-4.67,6.32-2.54,9.41,2.14,3.08,5.41,3.92,9.7.94l14.11-9.76,5.72,8.26-14.11,9.76c-9.15,6.33-17.56,4.17-23.13-3.88Z"/>
  <path class="cls-1" d="M-20.82,412.85c-5.57-8.05-4.67-16.65,4.53-23.02l2.1-1.45,12.01-8.31,2.1-1.45c4.29-2.98,4.66-6.33,2.53-9.41-2.14-3.08-5.4-3.92-9.7-.95l-14.11,9.77-5.72-8.27,14.11-9.76c9.15-6.33,17.57-4.16,23.13,3.89,5.56,8.04,4.67,16.64-4.53,23.01l-2.1,1.45-12.01,8.31-2.1,1.45c-4.29,2.98-4.67,6.33-2.53,9.41,2.13,3.08,5.4,3.92,9.69.95l14.11-9.76,5.72,8.26-14.11,9.76c-9.14,6.32-17.56,4.16-23.12-3.88Z"/>
  <path class="cls-1" d="M-19.81,486.27c-5.56-8.04-4.67-16.64,4.53-23.01l2.1-1.45,12.01-8.31,2.1-1.45c4.3-2.98,4.67-6.33,2.54-9.41-2.14-3.09-5.41-3.92-9.7-.95l-14.11,9.76-5.72-8.26,14.11-9.76c9.14-6.32,17.56-4.16,23.13,3.88,5.56,8.05,4.67,16.65-4.54,23.02l-2.09,1.45-12.02,8.31-2.09,1.45c-4.3,2.98-4.67,6.33-2.54,9.41,2.14,3.08,5.41,3.92,9.7.95l14.11-9.76,5.71,8.25-14.11,9.77c-9.14,6.32-17.56,4.16-23.13-3.89Z"/>
  <path class="cls-1" d="M-20.94,269.43c-5.56-8.05-4.67-16.65,4.53-23.02l2.1-1.45,12.01-8.31,2.1-1.45c4.3-2.98,4.67-6.33,2.53-9.41-2.13-3.08-5.4-3.92-9.69-.95l-14.11,9.77-5.72-8.26,14.11-9.77c9.14-6.32,17.56-4.16,23.13,3.89,5.56,8.04,4.67,16.64-4.54,23.01l-2.1,1.45-12.01,8.31-2.1,1.45c-4.29,2.98-4.66,6.33-2.53,9.41,2.14,3.09,5.41,3.93,9.7.95l14.11-9.76,5.72,8.26-14.11,9.76c-9.15,6.33-17.56,4.16-23.13-3.88Z"/>
  <path class="cls-1" d="M-18.2,558.55c-5.56-8.04-4.67-16.64,4.53-23.01l2.1-1.45,12.01-8.31,2.1-1.45c4.3-2.98,4.67-6.33,2.54-9.41-2.14-3.09-5.41-3.92-9.7-.95l-14.11,9.76-5.72-8.26,14.11-9.76c9.14-6.32,17.56-4.16,23.13,3.88,5.56,8.05,4.67,16.65-4.54,23.02l-2.09,1.45-12.02,8.31-2.09,1.45c-4.3,2.98-4.67,6.33-2.54,9.41,2.14,3.08,5.41,3.92,9.7.95l14.11-9.76,5.71,8.25-14.11,9.77c-9.14,6.32-17.56,4.16-23.13-3.89Z"/>
  <path class="cls-1" d="M-16.56,632.54c-5.56-8.04-4.67-16.64,4.53-23.01l2.1-1.45,12.01-8.31,2.1-1.45c4.3-2.98,4.67-6.33,2.54-9.41-2.14-3.09-5.41-3.92-9.7-.95l-14.11,9.76-5.72-8.26,14.11-9.76c9.14-6.32,17.56-4.16,23.13,3.88,5.56,8.05,4.67,16.65-4.54,23.02l-2.09,1.45-12.02,8.31-2.09,1.45c-4.3,2.98-4.67,6.33-2.54,9.41,2.14,3.08,5.41,3.92,9.7.95l14.11-9.76,5.71,8.25-14.11,9.77c-9.14,6.32-17.56,4.16-23.13-3.89Z"/>
  <path class="cls-1" d="M-19.74,340.24c-5.56-8.04-4.67-16.64,4.53-23.01l2.1-1.45,12.01-8.31,2.1-1.45c4.29-2.98,4.67-6.33,2.53-9.42-2.13-3.08-5.4-3.92-9.69-.94l-14.11,9.76-5.72-8.26,14.11-9.76c9.14-6.32,17.56-4.17,23.12,3.88,5.57,8.05,4.67,16.65-4.53,23.02l-2.1,1.45-12.01,8.31-2.1,1.45c-4.3,2.97-4.66,6.33-2.53,9.41,2.14,3.08,5.4,3.92,9.7.94l14.11-9.76,5.72,8.26-14.11,9.76c-9.15,6.34-17.57,4.17-23.13-3.88Z"/>
  <path class="cls-1" d="M-20.13,197.89c-5.57-8.05-4.67-16.65,4.53-23.02l2.1-1.45,12.01-8.31,2.1-1.45c4.29-2.98,4.67-6.33,2.53-9.41-2.13-3.08-5.4-3.92-9.69-.94l-14.11,9.76-5.73-8.26,14.11-9.77c9.15-6.33,17.57-4.16,23.13,3.89,5.57,8.04,4.67,16.64-4.53,23.01l-2.1,1.45-12.01,8.31-2.1,1.45c-4.29,2.98-4.67,6.33-2.53,9.41,2.14,3.09,5.4,3.93,9.7.95l14.11-9.76,5.72,8.26-14.11,9.76c-9.15,6.33-17.57,4.16-23.13-3.88Z"/>
</svg>