<?xml version="1.0" encoding="UTF-8"?>
<svg id="Livello_2" data-name="Livello 2" xmlns="http://www.w3.org/2000/svg" viewBox="0 0 154.73 55.05">
  <defs>
    <style>
      .cls-1 {
        fill: #f5f5f5;
      }
    </style>
  </defs>
  <g id="Livello_1-2" data-name="Livello 1">
    <path class="cls-1" d="M.29,1.52h10.05v33.1H.29V1.52Z"/>
    <path class="cls-1" d="M16.97,18.47C16.97,7.82,24.34.65,34.86.65s17.62,6.9,17.62,17.75v16.21h-9.25v-5.49c-1.74,4.09-5.49,6.37-10.25,6.37-7.37,0-16.01-5.49-16.01-17.02ZM42.43,18.07c0-4.76-3.08-8.04-7.64-8.04s-7.64,3.28-7.64,8.04,3.08,8.04,7.64,8.04,7.64-3.28,7.64-8.04Z"/>
    <path class="cls-1" d="M119.22,18.47c0-10.65,7.37-17.82,17.89-17.82s17.62,6.9,17.62,17.75v16.21h-9.25v-5.49c-1.74,4.09-5.49,6.37-10.25,6.37-7.37,0-16.01-5.49-16.01-17.02ZM144.68,18.07c0-4.76-3.08-8.04-7.64-8.04s-7.64,3.28-7.64,8.04,3.08,8.04,7.64,8.04,7.64-3.28,7.64-8.04Z"/>
    <path class="cls-1" d="M114.7,19.89v17.63c0,11.42-6.75,17.27-16.8,17.27s-16.8-5.78-16.8-17.27v-20.24c0-5.37-2.61-7.64-6.46-7.64s-6.47,2.27-6.47,7.64v17.62h-10.33v-17.62c0-11.43,6.74-17.28,16.8-17.28s16.79,5.78,16.79,17.28v20.24c0,5.36,2.62,7.63,6.47,7.63s6.47-2.27,6.47-7.63v-17.63h10.33Z"/>
    <g>
      <path class="cls-1" d="M0,48.11c0-3.38,1.98-5.01,4.6-5.01,1.84,0,3.36.87,4.09,2.55.71-1.68,2.23-2.55,4.09-2.55,2.62,0,4.6,1.63,4.6,5.01v6.65h-1.54v-6.65c0-2.41-1.33-3.59-3.17-3.59s-3.2,1.22-3.2,3.59v6.65h-1.54v-6.65c0-2.37-1.38-3.59-3.22-3.59s-3.17,1.17-3.17,3.59v6.65H0v-6.65Z"/>
      <path class="cls-1" d="M20.19,43.4h1.54v11.36h-1.54v-11.36Z"/>
      <path class="cls-1" d="M24.52,48.82c0-3.77,2.25-5.73,5.61-5.73s5.61,1.95,5.61,5.73v5.93h-1.54v-5.93c0-2.81-1.61-4.3-4.07-4.3s-4.07,1.49-4.07,4.3v5.93h-1.54v-5.93Z"/>
      <path class="cls-1" d="M37.65,49.03c0-3.5,2.55-5.93,5.89-5.93,2.16,0,3.93,1.01,4.78,2.74v-7.4h1.54v10.58c0,3.66-2.55,6.05-6.07,6.05s-6.14-2.53-6.14-6.02ZM48.32,49.08c0-2.62-1.82-4.55-4.55-4.55s-4.55,1.93-4.55,4.55,1.84,4.55,4.55,4.55,4.55-1.93,4.55-4.55Z"/>
    </g>
  </g>
</svg>