<?xml version="1.0" encoding="UTF-8"?>
<svg id="Livello_2" data-name="Livello 2" xmlns="http://www.w3.org/2000/svg" viewBox="0 0 155.33 53.98">
  <defs>
    <style>
      .cls-1 {
        fill: #f9fafa;
      }

      .cls-2 {
        fill: #f5f5f5;
      }
    </style>
  </defs>
  <g id="Livello_1-2" data-name="Livello 1">
    <g>
      <path class="cls-2" d="M0,50.48h1.56c.07,1.22,1.17,2.09,3.08,2.09s3.08-.92,3.08-2.14c0-1.38-1.45-1.54-3.08-1.75-2.05-.25-4.37-.57-4.37-3.08,0-2.14,1.68-3.59,4.35-3.59s4.3,1.47,4.35,3.4h-1.52c-.07-1.13-1.1-2-2.85-2s-2.78.87-2.78,2.05c0,1.4,1.47,1.56,3.08,1.77,1.77.23,4.39.51,4.39,3.08,0,2.16-1.82,3.66-4.64,3.66s-4.58-1.49-4.65-3.5Z"/>
      <path class="cls-2" d="M11.27,49.49v-11.2h1.54v4.02h6.69v1.4h-6.69v5.77c0,2.07,1.15,3.06,2.92,3.06s2.92-.97,2.92-3.06v-.25h1.5v.25c0,2.99-1.79,4.48-4.42,4.48s-4.46-1.49-4.46-4.48Z"/>
      <path class="cls-2" d="M22.2,48.25v-5.93h1.54v5.93c0,2.78,1.61,4.3,4.07,4.3s4.07-1.52,4.07-4.3v-5.93h1.54v5.93c0,3.77-2.25,5.73-5.61,5.73s-5.61-1.95-5.61-5.73Z"/>
      <path class="cls-2" d="M35.33,47.95c0-3.5,2.55-5.93,5.89-5.93,2.16,0,3.93,1.01,4.78,2.74v-7.4h1.54v10.58c0,3.66-2.55,6.05-6.07,6.05s-6.14-2.53-6.14-6.02ZM46,48c0-2.62-1.82-4.55-4.55-4.55s-4.55,1.93-4.55,4.55,1.84,4.55,4.55,4.55,4.55-1.93,4.55-4.55Z"/>
      <path class="cls-2" d="M50.35,42.32h1.54v11.36h-1.54v-11.36Z"/>
      <path class="cls-2" d="M54.21,48c0-3.45,2.53-5.98,6.12-5.98s6.12,2.53,6.12,5.98-2.53,5.98-6.12,5.98-6.12-2.53-6.12-5.98ZM64.88,48c0-2.62-1.84-4.55-4.55-4.55s-4.55,1.93-4.55,4.55,1.84,4.55,4.55,4.55,4.55-1.93,4.55-4.55Z"/>
    </g>
    <path class="cls-2" d="M.89.87h10.05v33.1H.89V.87Z"/>
    <path class="cls-2" d="M17.57,17.82C17.57,7.17,24.94,0,35.46,0s17.62,6.9,17.62,17.75v16.21h-9.25v-5.49c-1.74,4.09-5.49,6.37-10.25,6.37-7.37,0-16.01-5.49-16.01-17.02ZM43.03,17.42c0-4.76-3.08-8.04-7.64-8.04s-7.64,3.28-7.64,8.04,3.08,8.04,7.64,8.04,7.64-3.28,7.64-8.04Z"/>
    <path class="cls-1" d="M115.32,19.36v17.16c0,11.12-6.57,16.81-16.35,16.81s-16.35-5.63-16.35-16.81v-19.7c0-5.23-2.54-7.44-6.29-7.44s-6.3,2.21-6.3,7.44v17.15h-10.05v-17.15C59.98,5.69,66.54,0,76.33,0s16.34,5.63,16.34,16.82v19.7c0,5.22,2.55,7.43,6.3,7.43s6.3-2.21,6.3-7.43v-17.16h10.05Z"/>
    <path class="cls-2" d="M119.82,17.82c0-10.65,7.37-17.82,17.89-17.82s17.62,6.9,17.62,17.75v16.21h-9.25v-5.49c-1.74,4.09-5.49,6.37-10.25,6.37-7.37,0-16.01-5.49-16.01-17.02ZM145.28,17.42c0-4.76-3.08-8.04-7.64-8.04s-7.64,3.28-7.64,8.04,3.08,8.04,7.64,8.04,7.64-3.28,7.64-8.04Z"/>
  </g>
</svg>