<?xml version="1.0" encoding="UTF-8"?>
<svg id="Livello_2" data-name="Livello 2" xmlns="http://www.w3.org/2000/svg" viewBox="0 0 115.14 23.26">
  <defs>
    <style>
      .cls-1 {
        fill: #f9f9f9;
      }
    </style>
  </defs>
  <g id="Livello_1-2" data-name="Livello 1">
    <g>
      <path class="cls-1" d="M0,.58h6.71v22.1H0V.58Z"/>
      <path class="cls-1" d="M11.14,11.9C11.14,4.79,16.06,0,23.08,0s11.76,4.61,11.76,11.85v10.83h-6.17v-3.67c-1.16,2.73-3.67,4.25-6.84,4.25-4.92,0-10.69-3.67-10.69-11.36ZM28.14,11.63c0-3.18-2.06-5.37-5.1-5.37s-5.1,2.19-5.1,5.37,2.06,5.37,5.1,5.37,5.1-2.19,5.1-5.37Z"/>
      <path class="cls-1" d="M39.45,11.23c0-7.43,4.38-11.23,10.91-11.23s10.91,3.76,10.91,11.23v11.45h-6.71v-11.45c0-3.49-1.7-4.97-4.2-4.97s-4.2,1.48-4.2,4.97v11.45h-6.71v-11.45Z"/>
      <path class="cls-1" d="M65.89,12.03V.58h6.71v11.45c0,3.49,1.7,4.97,4.2,4.97s4.21-1.48,4.21-4.97V.58h6.71v11.45c0,7.43-4.38,11.23-10.91,11.23s-10.91-3.76-10.91-11.23Z"/>
      <path class="cls-1" d="M91.43,11.9c0-7.11,4.92-11.9,11.94-11.9s11.76,4.61,11.76,11.85v10.83h-6.17v-3.67c-1.16,2.73-3.67,4.25-6.84,4.25-4.92,0-10.69-3.67-10.69-11.36ZM108.43,11.63c0-3.18-2.06-5.37-5.1-5.37s-5.1,2.19-5.1,5.37,2.06,5.37,5.1,5.37,5.1-2.19,5.1-5.37Z"/>
    </g>
  </g>
</svg>