<?xml version="1.0" encoding="UTF-8"?>
<svg id="Livello_2" data-name="Livello 2" xmlns="http://www.w3.org/2000/svg" viewBox="0 0 154.44 53.33">
  <defs>
    <style>
      .cls-1 {
        fill: #f5f5f5;
      }
    </style>
  </defs>
  <g id="Livello_1-2" data-name="Livello 1">
    <path class="cls-1" d="M0,.87h10.05v33.1H0V.87Z"/>
    <path class="cls-1" d="M16.68,17.82C16.68,7.17,24.05,0,34.57,0s17.62,6.9,17.62,17.75v16.21h-9.25v-5.49c-1.74,4.09-5.49,6.37-10.25,6.37-7.37,0-16.01-5.49-16.01-17.02ZM42.14,17.42c0-4.76-3.08-8.04-7.64-8.04s-7.64,3.28-7.64,8.04,3.08,8.04,7.64,8.04,7.64-3.28,7.64-8.04Z"/>
    <path class="cls-1" d="M114.43,19.36v17.16c0,11.12-6.57,16.81-16.35,16.81s-16.35-5.63-16.35-16.81v-19.7c0-5.23-2.54-7.44-6.29-7.44s-6.3,2.21-6.3,7.44v17.15h-10.05v-17.15C59.09,5.69,65.65,0,75.44,0s16.34,5.63,16.34,16.82v19.7c0,5.22,2.55,7.43,6.3,7.43s6.3-2.21,6.3-7.43v-17.16h10.05Z"/>
    <path class="cls-1" d="M118.93,17.82c0-10.65,7.37-17.82,17.89-17.82s17.62,6.9,17.62,17.75v16.21h-9.25v-5.49c-1.74,4.09-5.49,6.37-10.25,6.37-7.37,0-16.01-5.49-16.01-17.02ZM144.39,17.42c0-4.76-3.08-8.04-7.64-8.04s-7.64,3.28-7.64,8.04,3.08,8.04,7.64,8.04,7.64-3.28,7.64-8.04Z"/>
    <g>
      <path class="cls-1" d="M.78,46.99c0-3.45,2.53-5.98,6.12-5.98,2.94,0,5.17,1.7,5.84,4.23h-1.56c-.62-1.7-2.21-2.8-4.28-2.8-2.71,0-4.55,1.93-4.55,4.55s1.84,4.55,4.55,4.55c2.07,0,3.66-1.1,4.28-2.81h1.56c-.67,2.53-2.9,4.23-5.84,4.23-3.59,0-6.12-2.53-6.12-5.98Z"/>
      <path class="cls-1" d="M14.24,47.06c0-3.54,2.53-6.05,6.12-6.05s6.09,2.46,6.09,6.05v5.61h-1.43v-2.81c-.8,2.02-2.69,3.1-4.9,3.1-3.2,0-5.89-2.28-5.89-5.91ZM24.91,46.99c0-2.62-1.84-4.55-4.55-4.55s-4.55,1.93-4.55,4.55,1.84,4.55,4.55,4.55,4.55-1.93,4.55-4.55Z"/>
      <path class="cls-1" d="M28.82,45.86c0-3.27,1.95-4.85,4.78-4.85s4.76,1.59,4.76,4.88v.14h-1.52v-.16c0-2.37-1.31-3.43-3.24-3.43s-3.24,1.06-3.24,3.43v6.81h-1.54v-6.81Z"/>
      <path class="cls-1" d="M39.53,46.99c0-3.45,2.53-5.98,6.12-5.98s6.07,2.53,6.07,5.98v.51h-10.6c.21,2.37,1.98,4.05,4.53,4.05,1.79,0,3.17-.74,3.91-2.05h1.68c-.87,2.09-2.94,3.47-5.59,3.47-3.59,0-6.12-2.53-6.12-5.98ZM50.11,46.12c-.37-2.3-2.16-3.68-4.46-3.68s-4.14,1.45-4.48,3.68h8.94Z"/>
    </g>
  </g>
</svg>